<?xml version="1.0" standalone="no"?><!DOCTYPE svg PUBLIC "-//W3C//DTD SVG 1.1//EN" "http://www.w3.org/Graphics/SVG/1.1/DTD/svg11.dtd"><svg t="1565145482796" class="icon" viewBox="0 0 1024 1024" version="1.1" xmlns="http://www.w3.org/2000/svg" p-id="56998" xmlns:xlink="http://www.w3.org/1999/xlink" width="40" height="40"><defs><style type="text/css"></style></defs><path d="M918.528 799.744c3.072 10.24 5.632 23.552 7.68 39.424 2.048 15.872 3.584 31.744 3.584 48.128s-1.536 31.744-4.096 46.08-6.656 25.088-11.776 32.768c-3.584 5.12-13.312 10.24-28.672 14.848-15.36 4.608-34.816 9.216-57.856 13.312-23.04 4.096-49.152 7.68-77.312 11.776-28.16 3.584-56.832 6.656-84.992 9.216-28.16 2.56-55.808 4.608-82.944 5.632-27.136 1.024-50.688 1.536-70.656 1.536s-43.52-0.512-70.144-2.048c-26.624-1.536-53.76-3.584-81.92-5.632-28.16-2.048-55.808-4.608-83.456-7.68s-52.736-6.144-75.776-9.728-42.496-7.168-58.368-10.752c-15.872-3.584-26.112-6.656-29.696-10.752-6.656-5.12-11.776-21.504-15.872-49.152-3.584-27.648-2.048-63.488 4.608-108.032 3.584-25.088 13.824-44.544 30.72-57.344 16.896-13.312 36.352-23.552 58.368-31.744 22.016-7.68 45.056-14.336 69.632-20.48 24.064-6.144 45.568-14.848 63.488-26.624 14.336-8.704 25.088-17.408 33.28-25.6 7.68-8.192 13.312-16.384 16.896-24.576 3.584-8.192 5.12-16.384 5.12-25.6 0-8.704-0.512-18.944-1.024-29.696-1.536-16.384-7.168-28.672-16.384-37.888-9.216-8.704-19.456-17.92-30.72-27.648-6.144-4.608-11.264-10.752-15.36-19.456-4.096-8.704-8.192-17.408-11.776-26.112-3.584-9.728-7.168-20.48-10.24-32.256-1.536-1.536-3.584-4.096-6.656-7.68-2.048-3.584-5.12-8.704-7.68-14.848-3.072-6.144-6.144-15.36-10.24-27.136-3.584-11.776-6.144-22.528-7.168-31.744-1.024-9.216-1.024-17.408 0.512-23.552 0.512-8.192 2.56-15.36 5.632-20.992 0-26.112 1.536-51.712 4.608-77.312 3.072-21.504 7.68-44.544 14.336-69.632 6.656-25.088 17.408-47.616 32.256-67.584 13.312-18.432 28.16-33.792 43.52-46.08 15.872-12.288 31.744-21.504 48.64-28.16 16.896-6.656 33.792-11.264 51.2-13.824 17.408-2.56 33.792-4.096 49.152-4.096 17.408 1.536 31.232 3.584 41.984 6.144 10.752 2.56 19.456 5.632 26.112 9.216 6.656 3.584 12.288 8.192 17.408 13.312 4.608 5.12 9.728 10.24 15.36 15.36h21.504c6.656 0 13.312 1.024 19.456 2.56 6.144 2.048 12.8 5.12 18.944 10.752 6.144 5.12 13.312 12.8 20.992 22.016 17.408 22.016 29.696 46.08 37.888 72.704 8.192 26.112 14.336 51.2 17.92 74.752 3.584 27.136 6.144 54.272 6.656 80.896 1.536 3.584 2.56 8.192 3.584 13.312 0.512 5.12 1.536 11.264 1.536 18.944 0.512 7.168 0 16.384-1.536 27.648-1.536 14.848-3.584 26.624-6.656 34.816-3.072 8.704-6.144 14.848-10.24 19.456-3.584 5.12-7.68 8.704-12.288 11.264-3.072 11.776-6.144 22.528-10.24 32.256-3.584 8.704-7.68 17.408-11.776 26.112-4.096 8.704-9.216 14.848-15.36 19.456-12.8 10.24-23.04 18.944-31.232 26.112-8.192 7.168-13.824 18.944-16.896 35.84-2.048 10.24-3.072 20.48-2.048 31.232 0.512 10.24 3.584 20.992 8.192 31.744 5.12 10.752 12.8 20.992 23.552 30.208 10.752 9.728 26.112 17.92 45.568 25.6 17.408 6.656 35.84 12.8 56.832 18.432 20.48 5.632 40.448 11.776 59.392 18.944 18.944 7.168 35.84 15.872 51.2 27.136 14.848 10.752 25.6 25.088 31.744 42.496" p-id="56999"></path></svg>