<?xml version="1.0" standalone="no"?><!DOCTYPE svg PUBLIC "-//W3C//DTD SVG 1.1//EN" "http://www.w3.org/Graphics/SVG/1.1/DTD/svg11.dtd"><svg t="1565143292750" class="icon" viewBox="0 0 1024 1024" version="1.1" xmlns="http://www.w3.org/2000/svg" p-id="13596" xmlns:xlink="http://www.w3.org/1999/xlink" width="40" height="40"><defs><style type="text/css"></style></defs><path d="M626.664 196.275c8.74 25.052 33.602 104.59 33.602 139.311 0 118.498-43.413 231.734-119.142 310.653-7.215 7.55-20.741 17.408-34.601 26.338a312.749 312.749 0 0 1-0.405-0.642 288.91 288.91 0 0 1-77.872 37.078l26.172 77.467h-81.634l-9.597 36.816a12.144 12.144 0 0 0 2.857 11.407 70.37 70.37 0 0 1 9.645 82.396l-38.912 69.156a29.196 29.196 0 0 1-39.674 11.097 29.172 29.172 0 0 1-11.121-39.65l38.912-69.156a12.217 12.217 0 0 0-1.691-14.312 70.251 70.251 0 0 1-16.432-65.631l5.787-22.1h-68.87l26.148-77.419c-64.274-19.48-122.332-62.869-164.293-123.023A377.023 377.023 0 0 1 55.01 482.233a407.433 407.433 0 0 1-18.265-121.309C36.745 162.411 176.842 0.93 349.065 0.93c61.25 0 120.57 20.527 171.58 59.344 45.032 34.292 81.443 81.063 106.02 136.002z m38.15-3.501a231.9 231.9 0 0 1 56.82-7.049c146.29 0 265.43 136.311 266.383 304.295v2.072c0 72.513-22.528 142.883-63.416 198.18-38.508 52.057-90.994 87.873-148.671 101.637l12.264 36.293h-35.197l-3.19 12.24c17.05 18.575 20.193 45.723 7.858 67.703l-27.172 48.295a29.172 29.172 0 0 1-39.674 11.097 29.172 29.172 0 0 1-11.121-39.674l27.076-48.104a57.749 57.749 0 0 1-13.955-51.534h-40.388l12.455-36.911a246.617 246.617 0 0 1-89.303-43.199 280.29 280.29 0 0 1-48.628-47.199c43.818-20.17 132.81-147.646 151.862-251.523 7.144-38.864 17.908-113.569 8.43-175.89-5.882-38.65-16.67-64.369-22.433-80.729z m84.254 479.78a29.23 29.23 0 0 0 10.764-2.072 142.122 142.122 0 0 0 84.61-95.185c2.001-7.525 0.953-15.36-2.952-22.099a29.196 29.196 0 0 0-53.391 7.144 83.587 83.587 0 0 1-49.771 55.987 29.172 29.172 0 0 0 10.74 56.2zM192.06 370.712c13.764 0 25.766-9.812 28.529-23.338A219.993 219.993 0 0 1 342.73 192.703a29.172 29.172 0 0 0 14.098-38.722 29.172 29.172 0 0 0-38.721-14.098 278.48 278.48 0 0 0-154.6 195.846c-1.572 7.62-0.072 15.408 4.215 21.909a28.934 28.934 0 0 0 24.338 13.074z" p-id="13597"></path></svg>