<?xml version="1.0" standalone="no"?><!DOCTYPE svg PUBLIC "-//W3C//DTD SVG 1.1//EN" "http://www.w3.org/Graphics/SVG/1.1/DTD/svg11.dtd"><svg t="1565145733710" class="icon" viewBox="0 0 1024 1024" version="1.1" xmlns="http://www.w3.org/2000/svg" p-id="65777" xmlns:xlink="http://www.w3.org/1999/xlink" width="40" height="40"><defs><style type="text/css"></style></defs><path d="M944.894 144.581s0.612-1.009-25.197-15.496C786.982 54.448 615.194 43.232 499.013 46.846L487.956 14.02l-11.244 33.73c-51.512 2.525-89.069 7.683-102.493 10.234-129.285 24.559-292.008 77.958-292.008 77.958l-0.16 126.681 111.185 0.24s-1.728-34.501 9.038-44.602c47.446-44.495 140.954-65.467 241.585-71.952l-64.483 193.45H76.896l5.156 4.333c0 0.053 20.706 134.814 96.964 272.313 39.896 71.979 62.836 114.984 75.593 139.625l-32.933 105.976 279.197-180.984 122.641 87.82c-54.621 63.739-97.84 99.888-107.117 97.018-12.599-3.854-77.561-66.875-77.561-66.875l-86.598 69.799s-1.622 13.582 47.817 59.141c49.465 45.558 96.964 77.561 96.964 77.561h38.753s78.677-62.941 155.785-149.964c296.636-334.78 253.337-710.941 253.337-710.941zM211.868 452.937l108.687 91.089-26.129 84.02c-24.507-35.643-65.599-102.945-82.558-175.109zM531.84 144.13c147.864 1.701 287.064 28.759 297.378 53.452-0.665 47.498 5.662 46.834-2.604 113.736a571.63 571.63 0 0 1-4.439 29.105H598.077L531.84 144.13z m262.345 310.959c-18.925 62.517-45.345 130.854-78.702 188.878l-56.909-99.941 135.611-88.937z m0 0" p-id="65778"></path></svg>