<?xml version="1.0" standalone="no"?><!DOCTYPE svg PUBLIC "-//W3C//DTD SVG 1.1//EN" "http://www.w3.org/Graphics/SVG/1.1/DTD/svg11.dtd"><svg t="1565145532261" class="icon" viewBox="0 0 1024 1024" version="1.1" xmlns="http://www.w3.org/2000/svg" p-id="57887" xmlns:xlink="http://www.w3.org/1999/xlink" width="40" height="40"><defs><style type="text/css"></style></defs><path d="M693.952 669.888c-13.973333 0-18.965333 5.994667-18.965333 5.994667l-190.592 90.816-190.592-92.8c-5.994667-2.986667-11.968-3.989333-18.965334-4.992-23.957333-2.986667-34.922667 13.973333-34.922666 30.933333 0 10.986667 6.976 19.968 15.957333 24.938667l209.557333 103.786666c5.994667 2.986667 11.968 5.994667 18.965334 5.994667s12.970667-2.005333 18.965333-5.994667l209.557333-100.778666c8.981333-5.994667 15.957333-15.957333 15.957334-26.944 0.021333-16.981333-15.957333-30.954667-34.922667-30.954667z m0 109.781333c-13.973333 0-18.965333 5.994667-18.965333 5.994667l-190.592 90.816-190.592-92.8c-5.994667-2.986667-11.968-3.989333-18.965334-4.992-23.957333-2.986667-34.922667 13.973333-34.922666 30.933333 0 10.986667 6.976 19.968 15.957333 24.938667l209.557333 103.786667c5.994667 2.986667 11.968 5.994667 18.965334 5.994666s12.970667-2.005333 18.965333-5.994666l209.557333-100.778667c8.981333-5.994667 15.957333-15.957333 15.957334-26.944 0.021333-16.981333-15.957333-30.954667-34.922667-30.954667z m18.965333-217.536l-209.557333-103.786666c-5.994667-2.986667-11.968-4.992-18.965333-4.992s-13.973333 2.005333-18.965334 5.994666l-209.557333 101.781334c-8.981333 4.992-15.957333 13.973333-15.957333 24.938666s6.976 19.968 15.957333 24.938667l209.557333 102.784c5.994667 2.986667 11.968 5.994667 18.965334 5.994667s12.970667-2.005333 18.965333-5.994667l209.557333-102.784c8.981333-5.994667 15.957333-13.973333 15.957334-24.938667 0.021333-8.981333-6.976-17.962667-15.957334-23.936z" p-id="57888"></path><path d="M835.754667 307.584c-28.778667-108.949333-127.125333-187.306667-236.416-187.306667-86.570667 0-168.768 49.813333-211.84 127.637334a182.186667 182.186667 0 0 0-48.192-5.952c-90.112 0-165.781333 64.96-182.698667 155.562666-86.997333 16.704-151.658667 96.405333-151.658667 188.586667 0 99.306667 74.986667 183.232 170.709334 191.018667l23.061333 1.877333v-80.512l-19.008-2.090667c-53.504-5.845333-93.824-53.269333-93.824-110.272 0-61.824 48.085333-112.128 107.2-112.128h39.978667v-41.664c0.810667-60.906667 48.021333-110.442667 105.258666-110.442666 17.92 0 34.538667 4.352 49.557334 13.056l41.130666 22.634666 16.768-44.074666c23.552-67.178667 85.269333-112.32 153.557334-112.32 81.237333 0 151.018667 63.765333 162.325333 148.309333l4.288 32.106667 33.130667 2.069333c78.528 5.162667 140.010667 74.261333 140.010666 157.312 0 86.698667-67.029333 157.248-149.397333 157.248h-31.146667v79.957333h31.146667c126.464 0 229.354667-106.410667 229.354667-237.205333 0.021333-113.578667-76.672-210.624-183.296-233.408z" p-id="57889"></path></svg>