<?xml version="1.0" standalone="no"?><!DOCTYPE svg PUBLIC "-//W3C//DTD SVG 1.1//EN" "http://www.w3.org/Graphics/SVG/1.1/DTD/svg11.dtd"><svg t="1565145096174" class="icon" viewBox="0 0 1024 1024" version="1.1" xmlns="http://www.w3.org/2000/svg" p-id="45109" xmlns:xlink="http://www.w3.org/1999/xlink" width="40" height="40"><defs><style type="text/css"></style></defs><path d="M1010.683205 760.119007c-0.178055-2.345418-0.088004-4.737908 0-7.083326 0.355087-16.204054-4.694929-30.726815-13.768585-43.963281-14.742772-21.473057-34.665521-37.411051-56.005548-51.66673-40.376593-27.096125-84.428901-46.531779-130.250506-62.025659-18.24248-6.199189-27.096125-18.285458-27.495214-36.791951-0.398066-16.559141 2.434445-31.698956 14.476713-45.158503 29.930683-33.559327 49.276287-73.05076 61.318554-116.349915 10.716063-38.562271 13.326517-77.389578 5.269004-116.615974-8.146541-39.712467-26.919093-73.359798-60.123332-97.311303-42.503023-30.68179-90.229001-37.987173-140.522454-26.697035-57.20077 12.839423-95.363951 48.125067-113.870444 103.820554-13.325493 40.155559-13.105482 81.242326-3.984754 122.106012 11.599176 51.931766 34.355459 98.55155 70.527286 138.088008 1.417279 1.593288 3.143597 3.098571 3.940752 4.957919 12.662391 29.441543 3.275603 58.041928-24.306592 68.667939-21.38403 8.190543-42.546002 17.044188-63.265906 26.873044-32.93818 15.672958-64.727187 33.470299-92.486414 57.555857-17.48728 15.185864-34.222429 31.43392-39.845497 54.810327-2.87856 11.954263-2.479471 24.836665-2.701528 37.322024-0.265036 16.160051 5.535063 30.505781 17.35425 41.351803 8.456602 7.748475 17.931395 14.8318 27.980261 20.274766 30.106692 16.383132 63.310931 23.245424 96.692203 28.646434 54.855352 8.898671 110.197798 10.093892 165.53922 10.891048 57.9529-0.929162 115.862821-2.169409 173.196621-12.352329 30.547737-5.443989 60.609403-12.661368 88.279602-27.360138C995.363288 816.789705 1013.605767 794.918581 1010.683205 760.119007zM393.072889 835.871295c-18.330484-16.824177-28.247344-40.200584-27.803229-65.747423 0.042979-1.902326 0.088004-3.806699 0.088004-5.710049 0.088004-11.689227 0.176009-24.970718 3.453658-38.651298 7.879458-32.852222 30.016641-54.234205 50.116421-71.677483 12.043291-10.492982 25.103748-20.23281 39.84652-29.618575 7.084349-4.604878 6.198166-15.496949-1.683339-18.551518-9.606799-3.717671-19.303648-7.216355-29.131481-10.535961-18.240433-6.199189-27.139104-18.285458-27.538193-36.791951-0.355087-15.760962 2.213411-30.238698 12.795421-43.210128 25.279756-30.946826 45.998637-65.7464 58.573023-103.688547 14.299681-43.342134 18.770506-87.040379 9.695826-131.225717-8.146541-39.712467-26.874067-73.359798-60.167335-97.311303-26.829042-19.392676-55.739489-29.441543-86.066191-31.390941-86.332251-5.533017-164.606988 58.751079-176.649256 144.553257-4.02978 28.511357-2.036379 57.332776 4.426823 86.067214 11.688203 52.462862 34.798551 99.43671 71.546499 139.282207 1.239224 1.860371 2.478448 3.76372 3.674693 5.668093 11.466146 28.733415 1.90335 56.403614-25.102724 66.76459-21.340027 8.190543-42.546002 17.044188-63.221904 26.873044-32.939203 15.672958-64.771189 33.470299-92.53144 57.555857-17.443277 15.185864-34.266431 31.43392-39.845497 54.810327-2.479471 10.403954-2.479471 21.473057-2.612501 32.408107-0.176009 20.09978 8.456602 39.314401 23.952528 52.065819 6.640234 5.489014 13.81361 10.402931 21.339004 14.475689 30.105668 16.383132 63.266929 23.245424 96.693226 28.646434 54.810327 8.898671 110.151749 10.093892 165.494195 10.891048 39.137369-0.618077 78.273714-1.416256 117.235075-5.003967-4.072759-1.858324-8.101515-3.89675-12.131295-6.064113C415.651117 854.28876 404.051941 845.921185 393.072889 835.871295z" p-id="45110"></path></svg>