<?xml version="1.0" standalone="no"?><!DOCTYPE svg PUBLIC "-//W3C//DTD SVG 1.1//EN" "http://www.w3.org/Graphics/SVG/1.1/DTD/svg11.dtd"><svg t="1565142987143" class="icon" viewBox="0 0 1024 1024" version="1.1" xmlns="http://www.w3.org/2000/svg" p-id="10203" xmlns:xlink="http://www.w3.org/1999/xlink" width="40" height="40"><defs><style type="text/css"></style></defs><path d="M392.016 620.784 217.856 537.744 217.856 402.976 392.016 486Z" p-id="10204"></path><path d="M880.752 874.288 880.752 467.136l-111.6-64.144-46.032 20.624 0-140.368-237.936-113.2-117.68 60.384 0 210.832 36.16 15.104 0-15.104L403.664 247.696l81.52-37.728 0 664.304-39.92 0L445.264 681.904l-227.408-113.2-106.48 45.296 0 260.288L59.904 874.288l0 38.304L933.6 912.592l0-38.304L880.752 874.288zM151.584 874.288 151.584 635.936l66.288-28.32 0 266.656L151.584 874.272zM261.392 874.288 261.392 707.84l143.92 67.936 0 98.496L261.392 874.272zM723.12 874.288l0-404.64 46.032-20.624 0 425.264L723.12 874.288z" p-id="10205"></path><path d="M963.744 765.28 911.152 731.328 911.152 578.256 963.744 612.224Z" p-id="10206"></path></svg>