<?xml version="1.0" standalone="no"?><!DOCTYPE svg PUBLIC "-//W3C//DTD SVG 1.1//EN" "http://www.w3.org/Graphics/SVG/1.1/DTD/svg11.dtd"><svg t="1579068905930" class="icon" viewBox="0 0 1024 1024" version="1.1" xmlns="http://www.w3.org/2000/svg" p-id="2949" xmlns:xlink="http://www.w3.org/1999/xlink" width="20" height="20"><defs><style type="text/css"></style></defs><path d="M723.232 224H864a96 96 0 0 1 96 96v512a96 96 0 0 1-96 96H160a96 96 0 0 1-96-96V320a96 96 0 0 1 96-96h141.44l64.736-112a32 32 0 0 1 27.712-16h236.928a32 32 0 0 1 27.712 16L723.2 224z m-310.88-64l-64.704 112a32 32 0 0 1-27.712 16H160a32 32 0 0 0-32 32v512a32 32 0 0 0 32 32h704a32 32 0 0 0 32-32V320a32 32 0 0 0-32-32h-159.232a32 32 0 0 1-27.712-16L612.352 160h-200z" p-id="2950"></path><path d="M671.968 574.56a160 160 0 1 0-320-0.032 160 160 0 0 0 320 0z m64 0a224 224 0 1 1-448 0 224 224 0 1 1 448 0z" p-id="2951"></path></svg>