<?xml version="1.0" standalone="no"?><!DOCTYPE svg PUBLIC "-//W3C//DTD SVG 1.1//EN" "http://www.w3.org/Graphics/SVG/1.1/DTD/svg11.dtd"><svg t="1565145368215" class="icon" viewBox="0 0 1024 1024" version="1.1" xmlns="http://www.w3.org/2000/svg" p-id="52837" xmlns:xlink="http://www.w3.org/1999/xlink" width="40" height="40"><defs><style type="text/css"></style></defs><path d="M575.099188 889.836463v6.38874h127.774797a63.887398 63.887398 0 0 1 0 127.774797H319.549594a63.887398 63.887398 0 0 1 0-127.774797h127.774797v-6.38874a447.211789 447.211789 0 1 1 127.774797 0zM511.211789 193.46382a255.549594 255.549594 0 1 0 255.549594 255.549594 255.549594 255.549594 0 0 0-255.549594-255.549594z m0 383.324391a127.774797 127.774797 0 0 1-127.774797-127.774797 126.433162 126.433162 0 0 1 6.38874-37.310241 63.887398 63.887398 0 1 0 84.267479-84.267478A126.433162 126.433162 0 0 1 511.211789 321.238617a127.774797 127.774797 0 0 1 0 255.549594z" p-id="52838"></path></svg>