<?xml version="1.0" standalone="no"?><!DOCTYPE svg PUBLIC "-//W3C//DTD SVG 1.1//EN" "http://www.w3.org/Graphics/SVG/1.1/DTD/svg11.dtd"><svg t="1566979149119" class="icon" viewBox="0 0 1024 1024" version="1.1" xmlns="http://www.w3.org/2000/svg" p-id="8034" xmlns:xlink="http://www.w3.org/1999/xlink" width="100" height="100"><defs><style type="text/css"></style></defs><path d="M511.811633 1024C357.844709 1024 71.361798 794.531422 71.361798 577.481808V163.175303c0-10.055127 8.432194-18.169791 18.840132-18.381477l24.943771-0.423374c0.952591 0 98.787211-1.975744 199.620728-41.914002C418.246032 61.636163 484.96268 14.535832 485.668303 14.041896l14.676957-10.407938A19.863286 19.863286 0 0 1 523.066319 3.528115l14.994487 10.513781c0.670342 0.493936 67.422271 47.523705 170.76075 88.414554 100.974642 39.938258 198.77398 41.914002 199.797133 41.914002l24.732084 0.423374a18.76957 18.76957 0 0 1 18.840132 18.346196l0.211687 414.306505c0 217.049614-286.518192 446.553473-440.661522 446.553473h0.070563zM884.451104 211.404631c-37.85667-2.822492-117.521499-12.63065-200.29107-45.371555a1009.111356 1009.111356 0 0 1-172.348401-87.603087 1014.191841 1014.191841 0 0 1-172.31312 87.603087c-82.593164 32.670342-162.046307 42.443219-200.396913 45.371555v366.077177c0 170.196251 249.578831 378.284454 372.710033 378.284454 47.735391 0 140.736494-38.738699 232.149945-123.766262 88.132304-81.922822 140.736494-177.111356 140.736494-254.518192L884.451104 211.404631zM476.495205 647.09151a33.305402 33.305402 0 0 1-23.920617 10.055127 33.728776 33.728776 0 0 1-23.99118-10.055127l-101.680265-102.315325a34.363837 34.363837 0 0 1 0-48.264608 33.658214 33.658214 0 0 1 47.947078 0l77.724367 78.183021 196.269018-197.715546a33.587652 33.587652 0 0 1 47.911797 0 34.187431 34.187431 0 0 1 0 48.264608l-220.260198 221.84785z" p-id="8035"></path></svg>