<?xml version="1.0" standalone="no"?><!DOCTYPE svg PUBLIC "-//W3C//DTD SVG 1.1//EN" "http://www.w3.org/Graphics/SVG/1.1/DTD/svg11.dtd"><svg t="1563269354914" class="icon" viewBox="0 0 1024 1024" version="1.1" xmlns="http://www.w3.org/2000/svg" p-id="6133" xmlns:xlink="http://www.w3.org/1999/xlink" width="40" height="40"><defs><style type="text/css"></style></defs><path d="M1017.6 374.4c-6.4-6.4-12.8-9.6-19.2-9.6l-99.2 0c-25.6-64-57.6-128-92.8-153.6C678.4 128 345.6 128 217.6 211.2c-35.2 25.6-67.2 86.4-92.8 153.6L25.6 364.8c-6.4 0-16 3.2-19.2 9.6C0 380.8 0 387.2 0 396.8l16 70.4c3.2 12.8 12.8 22.4 25.6 22.4l28.8 0c-28.8 32-41.6 73.6-41.6 115.2 0 51.2 19.2 96 54.4 131.2 0 0 0 0 0 0l0 99.2c0 22.4 16 38.4 38.4 38.4l92.8 0c22.4 0 38.4-19.2 38.4-38.4l0-41.6L768 793.6l0 41.6c0 22.4 16 38.4 38.4 38.4l92.8 0c22.4 0 38.4-19.2 38.4-38.4L937.6 736c38.4-35.2 54.4-83.2 54.4-128 0-41.6-12.8-86.4-44.8-118.4l32 0c12.8 0 22.4-9.6 25.6-22.4l16-70.4C1024 387.2 1024 380.8 1017.6 374.4zM262.4 278.4c99.2-67.2 400-67.2 499.2 0 19.2 12.8 44.8 64 67.2 128L195.2 406.4C217.6 342.4 243.2 291.2 262.4 278.4zM144 614.4c0-41.6 35.2-76.8 76.8-76.8 41.6 0 76.8 35.2 76.8 76.8 0 41.6-35.2 76.8-76.8 76.8C179.2 691.2 144 656 144 614.4zM803.2 691.2c-41.6 0-76.8-35.2-76.8-76.8 0-41.6 35.2-76.8 76.8-76.8 41.6 0 76.8 35.2 76.8 76.8C880 656 844.8 691.2 803.2 691.2z" p-id="6134"></path></svg>