<?xml version="1.0" standalone="no"?><!DOCTYPE svg PUBLIC "-//W3C//DTD SVG 1.1//EN" "http://www.w3.org/Graphics/SVG/1.1/DTD/svg11.dtd"><svg t="1602234252067" class="icon" viewBox="0 0 1024 1024" version="1.1" xmlns="http://www.w3.org/2000/svg" p-id="10736" xmlns:xlink="http://www.w3.org/1999/xlink" width="400" height="400"><defs><style type="text/css"></style></defs><path d="M512 113.664q123.904 0 229.376 54.272 103.424 53.248 163.84 143.36 61.44 92.16 61.44 200.704t-61.44 200.704q-60.416 90.112-163.84 143.36-105.472 54.272-229.376 54.272-68.608 0-132.096-16.896T261.12 843.776l-146.432 48.128q-9.216 3.072-19.456-1.536t-14.848-15.36-0.512-20.992l51.2-123.904q-35.84-48.128-54.784-103.424T57.344 512q0-108.544 61.44-200.704 60.416-90.112 163.84-143.36Q388.096 113.664 512 113.664z m0 340.992q-23.552 0-40.448 16.896T454.656 512t16.896 40.448 40.448 16.896 40.448-16.896 16.896-40.448-16.896-40.448T512 454.656z m-227.328 0q-23.552 0-40.448 16.896T227.328 512t16.896 40.448 40.448 16.896 39.936-16.896 16.384-40.448-16.384-40.448-39.936-16.896z m454.656 0q-23.552 0-39.936 16.896T683.008 512t16.384 40.448 39.936 16.896 40.448-16.896 16.896-40.448-16.896-40.448-40.448-16.896z" p-id="10737"></path></svg>