<?xml version="1.0" standalone="no"?><!DOCTYPE svg PUBLIC "-//W3C//DTD SVG 1.1//EN" "http://www.w3.org/Graphics/SVG/1.1/DTD/svg11.dtd"><svg t="1563334276934" class="icon" viewBox="0 0 1024 1024" version="1.1" xmlns="http://www.w3.org/2000/svg" p-id="5499" xmlns:xlink="http://www.w3.org/1999/xlink" width="40" height="40"><defs><style type="text/css"></style></defs><path d="M861.582022 1017.21248H783.256661a18.648895 18.648895 0 0 1-17.292612-23.734958 18.309825 18.309825 0 0 0-33.907082-14.240974l-20.683321 31.872657a17.970754 17.970754 0 0 1-14.919116 7.798629h-67.814166a18.648895 18.648895 0 0 1-17.292612-23.734958 18.309825 18.309825 0 0 0-33.907082-14.240974l-20.683321 31.872657a17.970754 17.970754 0 0 1-14.919116 7.798629h-67.814166a18.648895 18.648895 0 0 1-17.292612-23.734957 18.309825 18.309825 0 0 0-33.907082-14.240975l-20.683321 31.872658a17.970754 17.970754 0 0 1-14.919116 7.798629H342.464587a18.648895 18.648895 0 0 1-17.292613-23.734958 18.309825 18.309825 0 0 0-33.907082-14.240975l-20.683321 31.872658a17.970754 17.970754 0 0 1-14.919116 7.798629h-101.721248a15.936329 15.936329 0 0 1-8.815842-2.373496c-53.23412-30.855445-76.969078-101.721248 0-169.535413 51.538766-44.418278 56.963899-115.962223 55.607616-180.046609A18.648895 18.648895 0 0 1 220.399089 644.234571h644.234571a17.292612 17.292612 0 0 1 17.292612 14.240975c18.309825 79.342573 24.75217 142.070676 39.671287 251.590553A96.974256 96.974256 0 0 1 861.582022 1017.21248zM164.113332 579.811114A25.769383 25.769383 0 0 1 139.022091 540.139827l86.12399-184.115459a75.273724 75.273724 0 0 1 62.728103-39.671287h138.679968a17.970754 17.970754 0 0 0 17.631683-18.309824V63.406245A63.406245 63.406245 0 0 1 507.592079 0h51.538766a62.728103 62.728103 0 0 1 62.728103 62.728103v233.6198a17.970754 17.970754 0 0 0 18.309825 18.309824h135.62833a75.951865 75.951865 0 0 1 62.728103 39.671287l86.463061 184.115459a25.769383 25.769383 0 0 1-27.125666 37.975932" p-id="5500"></path></svg>