<?xml version="1.0" standalone="no"?><!DOCTYPE svg PUBLIC "-//W3C//DTD SVG 1.1//EN" "http://www.w3.org/Graphics/SVG/1.1/DTD/svg11.dtd"><svg t="1570772711417" class="icon" viewBox="0 0 1024 1024" version="1.1" xmlns="http://www.w3.org/2000/svg" p-id="2762" xmlns:xlink="http://www.w3.org/1999/xlink" width="300" height="300"><defs><style type="text/css"></style></defs><path d="M662.2 252.6c-92.9-53.7-207.4-53.7-300.4 0-92.9 53.7-150.2 152.8-150.2 260.2 0 107.3 57.2 206.5 150.2 260.1 92.9 53.7 207.4 53.7 300.4 0 92.9-53.7 150.2-152.8 150.2-260.1 0-107.4-57.3-206.6-150.2-260.2z" fill="#FDC4C7" p-id="2763"></path><path d="M512 65.9c-37.6 0-75 4.7-111.4 13.9-14.1 3.6-22.5 18-18.9 32.1 3.6 14.1 18 22.6 32.1 18.9 163.2-42 335 24.3 427.6 165.1s85.4 324.9-17.8 458.1-279.7 186.1-439.1 131.6C225 831.1 117.9 681.2 117.9 512.7c-0.2-55.2 11.4-109.7 33.9-160 2.8-6.4 3-13.6 0.5-20.1-2.5-6.5-7.5-11.7-13.9-14.6-6.4-2.8-13.6-3-20.1-0.5-6.5 2.5-11.7 7.5-14.6 13.9C42.3 469.6 55 629.5 137.4 756.2 219.8 883 360.8 959.5 512 959.5c246.7 0 446.7-200 446.7-446.8 0-246.7-200-446.8-446.7-446.8zM464.2 347c-13.4 3.9-21.5 17.5-18.4 31.2l41 141.9c1.9 6.6 6.4 12.1 12.4 15.5l195.5 111.2c4.1 2.1 8.6 3.3 13.1 3.4 9.6-0.2 18.4-5.6 22.9-14.2 7.1-12.6 2.6-28.6-10-35.7L534.4 495.1l-38.1-131.4c-4.6-13.2-18.7-20.6-32.1-16.7zM211.7 539h41c14.5 0 26.3-11.8 26.3-26.3s-11.8-26.3-26.3-26.3h-41c-14.5 0-26.3 11.8-26.3 26.3s11.8 26.3 26.3 26.3z m34.9-326.1c6 0 11.9-2.2 16.6-6 7.1-5.8 14.5-11.3 21.8-16.6 10.7-8.7 12.8-24.2 4.8-35.5-7.9-11.3-23.2-14.5-35-7.4-8.4 6-16.6 12.1-24.7 18.7-8.7 7-12.1 18.7-8.3 29.3 3.7 10.5 13.6 17.5 24.8 17.5zM512 279.6c7 0 13.7-2.8 18.6-7.7 4.9-4.9 7.7-11.6 7.7-18.6v-41c0-14.5-11.8-26.3-26.3-26.3s-26.3 11.8-26.3 26.3v41c0 14.5 11.8 26.3 26.3 26.3zM812.4 539c14.5 0 26.3-11.8 26.3-26.3s-11.8-26.3-26.3-26.3h-41c-14.5 0-26.3 11.8-26.3 26.3s11.8 26.3 26.3 26.3h41zM485.7 772.1v41c0 7 2.8 13.7 7.7 18.6 4.9 4.9 11.6 7.7 18.6 7.7 7 0 13.7-2.8 18.6-7.7 4.9-4.9 7.7-11.6 7.7-18.6v-41c0-14.5-11.8-26.3-26.3-26.3s-26.3 11.8-26.3 26.3z" fill="#F73A47" p-id="2764"></path></svg>