<?xml version="1.0" standalone="no"?><!DOCTYPE svg PUBLIC "-//W3C//DTD SVG 1.1//EN" "http://www.w3.org/Graphics/SVG/1.1/DTD/svg11.dtd"><svg t="1556086537983" class="icon" style="" viewBox="0 0 1024 1024" version="1.1" xmlns="http://www.w3.org/2000/svg" p-id="3743" xmlns:xlink="http://www.w3.org/1999/xlink" width="40" height="40"><defs><style type="text/css"></style></defs><path d="M335.582011 173.2089l622.668519 0 0 92.589768-622.668519 0 0-92.589768Z" p-id="3744" ></path><path d="M65.748447 125.09509l188.81739 0 0 188.81739-188.81739 0 0-188.81739Z" p-id="3745" ></path><path d="M335.582011 467.844338l622.668519 0 0 92.589768-622.668519 0 0-92.589768Z" p-id="3746" ></path><path d="M65.748447 419.730527l188.81739 0 0 188.81739-188.81739 0 0-188.81739Z" p-id="3747" ></path><path d="M335.582011 758.200308l622.668519 0 0 92.589768-622.668519 0 0-92.589768Z" p-id="3748" ></path><path d="M65.748447 710.086497l188.81739 0 0 188.81739-188.81739 0 0-188.81739Z" p-id="3749" ></path></svg>