<?xml version="1.0" standalone="no"?><!DOCTYPE svg PUBLIC "-//W3C//DTD SVG 1.1//EN" "http://www.w3.org/Graphics/SVG/1.1/DTD/svg11.dtd"><svg t="1567051294422" class="icon" viewBox="0 0 1024 1024" version="1.1" xmlns="http://www.w3.org/2000/svg" p-id="8531" xmlns:xlink="http://www.w3.org/1999/xlink" width="100" height="100"><defs><style type="text/css"></style></defs><path d="M311.287414 163.8397a204.838983 204.838983 0 0 1 401.387931 0h204.799444a45.048233 45.048233 0 0 1 45.048233 45.061413v770.037474a45.048233 45.048233 0 0 1-45.048233 45.061413H106.540689A45.061413 45.061413 0 0 1 61.479276 978.938587V208.927473a45.061413 45.061413 0 0 1 45.061413-45.087773z m84.811405 0h231.765121a122.927113 122.927113 0 0 0-231.765121 0z m110.894042 535.886826a15.65749 15.65749 0 0 0 4.995108 1.159814 11.782657 11.782657 0 0 0 5.061007-1.133455 167.276822 167.276822 0 0 0 15.64431-8.804043c22.313241-13.983668 52.916518-38.221146 80.870673-68.389492 18.451588-19.980434 33.226038-39.723632 43.743443-58.702408 12.283486-22.155085 18.517486-42.847223 18.517486-61.298811 0-38.221146-18.451588-60.257614-33.858663-72.02709-17.133617-13.061088-40.633032-20.863474-62.774938-20.863474-13.759613 0-27.980515 4.085709-42.293675 12.151689-10.543764 5.917688-21.970569 15.815647-24.909643 18.253892-3.242208-2.846816-14.418598-12.336204-24.922823-18.253892-14.29998-8.06598-28.534062-12.151688-42.293675-12.151689-22.141905 0-45.614961 7.802386-62.761758 20.863474-15.446615 11.729938-33.858663 33.805945-33.858663 72.02709 0 18.557025 6.220821 39.183264 18.451588 61.33835 10.543764 18.978776 25.239136 38.721975 43.756622 58.702408 35.34797 38.03663 74.847548 66.649771 96.633601 77.127637z" p-id="8532"></path></svg>