<?xml version="1.0" standalone="no"?><!DOCTYPE svg PUBLIC "-//W3C//DTD SVG 1.1//EN" "http://www.w3.org/Graphics/SVG/1.1/DTD/svg11.dtd"><svg t="1565946950766" class="icon" viewBox="0 0 1024 1024" version="1.1" xmlns="http://www.w3.org/2000/svg" p-id="41383" xmlns:xlink="http://www.w3.org/1999/xlink" width="100" height="100"><defs><style type="text/css"></style></defs><path d="M288.768 389.632c-30.72 0-55.808 26.112-55.808 57.856 0 31.744 25.088 57.856 55.808 57.856s55.808-26.112 55.808-57.856c0-31.744-24.576-57.856-55.808-57.856zM512 389.632c-30.72 0-55.808 26.112-55.808 57.856 0 31.744 25.088 57.856 55.808 57.856s55.808-26.112 55.808-57.856c-0.512-31.744-25.088-57.856-55.808-57.856zM734.72 389.632c-30.72 0-55.808 26.112-55.808 57.856 0 31.744 25.088 57.856 55.808 57.856s55.808-26.112 55.808-57.856c0-31.744-25.088-57.856-55.808-57.856z" fill="" p-id="41384"></path><path d="M512 924.672c-11.776 0-23.04-4.608-31.232-12.8-8.704-8.192-104.96-97.28-143.872-136.192H180.224c-78.336 0-144.384-70.144-144.384-153.6V244.224c0-80.896 64-146.432 142.336-146.432h668.16c78.336 0 142.336 65.536 142.336 146.432v377.856c0 82.944-66.048 153.6-144.384 153.6h-161.28c-55.808 54.272-134.144 131.072-138.752 136.192-9.216 8.192-20.48 12.8-32.256 12.8zM177.664 159.232c-44.544 0-80.896 37.888-80.896 84.992v377.856c0 49.152 38.912 92.16 82.944 92.16h183.296l9.216 9.728c23.04 24.576 108.032 103.936 139.264 133.12 26.112-25.6 91.136-89.6 136.704-134.144l8.704-8.704h186.368c44.544 0 82.944-43.008 82.944-92.16V244.224c0-46.592-36.352-84.992-80.896-84.992H177.664z" fill="" p-id="41385"></path></svg>