<?xml version="1.0" standalone="no"?><!DOCTYPE svg PUBLIC "-//W3C//DTD SVG 1.1//EN" "http://www.w3.org/Graphics/SVG/1.1/DTD/svg11.dtd"><svg t="1565145130747" class="icon" viewBox="0 0 1024 1024" version="1.1" xmlns="http://www.w3.org/2000/svg" p-id="45835" xmlns:xlink="http://www.w3.org/1999/xlink" width="40" height="40"><defs><style type="text/css"></style></defs><path d="M512 89.088c-233.472 0-422.912 165.888-422.912 370.176 0 116.736 61.952 220.672 158.72 288.768v187.392l185.344-112.64c26.112 4.608 52.736 6.656 78.848 6.656 233.472 0 422.912-165.888 422.912-370.176s-189.44-370.176-422.912-370.176zM300.544 512c-29.184 0-52.736-23.552-52.736-52.736S271.36 406.016 300.544 406.016 353.28 430.08 353.28 459.264 329.728 512 300.544 512z m211.456 0c-29.184 0-52.736-23.552-52.736-52.736s23.552-52.736 52.736-52.736 52.736 23.552 52.736 52.736c0 29.184-23.552 52.736-52.736 52.736z m211.456 0c-29.184 0-52.736-23.552-52.736-52.736s23.552-52.736 52.736-52.736 52.736 23.552 52.736 52.736c0 29.184-23.552 52.736-52.736 52.736z" p-id="45836"></path></svg>