<?xml version="1.0" standalone="no"?><!DOCTYPE svg PUBLIC "-//W3C//DTD SVG 1.1//EN" "http://www.w3.org/Graphics/SVG/1.1/DTD/svg11.dtd"><svg t="1565925350520" class="icon" viewBox="0 0 1024 1024" version="1.1" xmlns="http://www.w3.org/2000/svg" p-id="22353" xmlns:xlink="http://www.w3.org/1999/xlink" width="100" height="100"><defs><style type="text/css"></style></defs><path d="M535.153778 56.888889c263.054222 0 478.264889 207.303111 478.264889 456.590222C1013.418667 762.88 798.151111 967.111111 535.153778 967.111111h-328.817778v-126.179555C113.664 756.849778 56.888889 639.658667 56.888889 510.520889 56.888889 261.12 272.099556 56.888889 535.153778 56.888889zM170.666667 483.555556a85.333333 85.333333 0 1 0 170.666666 0 85.333333 85.333333 0 0 0-170.666666 0z m284.444444 0a85.333333 85.333333 0 1 0 170.666667 0 85.333333 85.333333 0 0 0-170.666667 0z m284.444445 0a85.333333 85.333333 0 1 0 170.666666 0 85.333333 85.333333 0 0 0-170.666666 0z" p-id="22354"></path></svg>