<?xml version="1.0" standalone="no"?><!DOCTYPE svg PUBLIC "-//W3C//DTD SVG 1.1//EN" "http://www.w3.org/Graphics/SVG/1.1/DTD/svg11.dtd"><svg t="1563787993606" class="icon" viewBox="0 0 1024 1024" version="1.1" xmlns="http://www.w3.org/2000/svg" p-id="2601" xmlns:xlink="http://www.w3.org/1999/xlink" width="40" height="40"><defs><style type="text/css"></style></defs><path d="M974.4 320H49.6C3.2 320 0 348.8 3.2 384l41.6 576c3.2 35.2 9.6 64 56 64h822.4c48 0 52.8-28.8 56-64l41.6-576c3.2-35.2 1.6-64-46.4-64z m-33.6-140.8C936 150.4 907.2 128 878.4 128H531.2c-28.8 0-67.2-20.8-88-44.8l-30.4-38.4C393.6 20.8 353.6 0 324.8 0H160C131.2 0 105.6 28.8 102.4 64l-16 166.4h864l-9.6-51.2z" p-id="2602"></path></svg>