<?xml version="1.0" standalone="no"?><!DOCTYPE svg PUBLIC "-//W3C//DTD SVG 1.1//EN" "http://www.w3.org/Graphics/SVG/1.1/DTD/svg11.dtd"><svg t="1565923185656" class="icon" viewBox="0 0 1029 1024" version="1.1" xmlns="http://www.w3.org/2000/svg" p-id="2977" xmlns:xlink="http://www.w3.org/1999/xlink" width="100.48828125" height="100"><defs><style type="text/css"></style></defs><path d="M997.843478 420.730435l-129.113043-115.756522V135.791304c0-35.617391-28.93913-66.782609-64.556522-66.782608-35.617391 0-64.556522 28.93913-64.556522 66.782608v55.652174l-169.182608-151.373913c-33.391304-33.391304-89.043478-33.391304-122.434783 0L25.043478 409.6c-33.391304 33.391304-33.391304 84.591304 0 117.982609l115.756522 46.747826v340.591304c0 46.747826 37.843478 84.591304 84.591304 84.591304h565.426087c46.747826 0 84.591304-37.843478 84.591305-84.591304V587.686957l122.434782-46.747827c33.391304-35.617391 33.391304-86.817391 0-120.208695m-333.913043 20.034782c28.93913 0 53.426087 24.486957 53.426087 53.426087 0 28.93913-24.486957 53.426087-53.426087 53.426087-28.93913 0-53.426087-24.486957-53.426087-53.426087 0-31.165217 24.486957-53.426087 53.426087-53.426087m-307.2 0c28.93913 0 53.426087 24.486957 53.426087 53.426087 0 28.93913-24.486957 53.426087-53.426087 53.426087-28.93913 0-53.426087-24.486957-53.426087-53.426087 2.226087-31.165217 24.486957-53.426087 53.426087-53.426087M766.330435 734.608696c-62.330435 80.13913-153.6 140.243478-256 140.243478-100.173913 0-191.443478-60.104348-253.773913-138.017391-11.130435-15.582609-8.904348-37.843478 6.678261-51.2 6.678261-4.452174 13.356522-6.678261 22.260869-6.678261 11.130435 0 22.26087 4.452174 28.939131 13.356521 46.747826 60.104348 120.208696 95.721739 198.121739 95.72174s151.373913-35.617391 198.121739-97.947826c6.678261-8.904348 17.808696-13.356522 28.93913-13.356522 6.678261 0 15.582609 2.226087 22.26087 6.678261 13.356522 13.356522 15.582609 35.617391 4.452174 51.2m0 0" p-id="2978"></path></svg>