<?xml version="1.0" standalone="no"?><!DOCTYPE svg PUBLIC "-//W3C//DTD SVG 1.1//EN" "http://www.w3.org/Graphics/SVG/1.1/DTD/svg11.dtd"><svg t="1565144650829" class="icon" viewBox="0 0 1024 1024" version="1.1" xmlns="http://www.w3.org/2000/svg" p-id="35700" xmlns:xlink="http://www.w3.org/1999/xlink" width="40" height="40"><defs><style type="text/css"></style></defs><path d="M947.436119 416.022431l-114.923741-103.009186c0.524184-3.182881 0-6.422431 0-9.751706L832.512378 160.608006c0-32.829958-26.246966-59.445268-58.628297-59.445268-32.386054 0-58.63302 26.610588-58.63302 59.445268l0 48.83409-151.092418-134.436598c-30.100424-30.525438-78.90618-30.525438-109.011326 0L76.563881 406.521011c-30.105147 30.515993-30.105147 75.246338 0 105.762332l103.977274 79.293414 0 303.733776c0 42.024424 33.599705 76.086921 75.043276 76.086921l506.57399 0c41.443571 0 75.047999-34.062498 75.047999-76.086921l0-293.217045 110.220255-80.299281C977.541265 491.273492 977.541265 446.547869 947.436119 416.022431L947.436119 416.022431zM618.111787 448.299871c27.743959 0 50.236635 22.351005 50.236635 49.929681s-22.492677 49.929681-50.236635 49.929681c-27.739236 0-50.236635-22.351005-50.236635-49.929681C567.875152 470.655599 590.367829 448.299871 618.111787 448.299871L618.111787 448.299871zM413.703745 448.299871c27.739236 0 50.236635 22.351005 50.236635 49.929681s-22.492677 49.929681-50.236635 49.929681c-27.748681 0-50.236635-22.351005-50.236635-49.929681C363.467109 470.655599 385.955064 448.299871 413.703745 448.299871L413.703745 448.299871zM522.946467 852.51164c-111.391404 0-201.692677-89.422911-201.692677-199.728168 0-1.062535 0.061391-2.096735 0.08028-3.154547 50.477476 42.898063 122.101752 69.735326 201.612396 69.735326 79.505921 0 151.125475-26.83254 201.607674-69.735326 0.023612 1.057812 0.08028 2.092013 0.08028 3.154547C724.634422 763.088729 634.337871 852.51164 522.946467 852.51164L522.946467 852.51164z" p-id="35701"></path></svg>