<?xml version="1.0" standalone="no"?><!DOCTYPE svg PUBLIC "-//W3C//DTD SVG 1.1//EN" "http://www.w3.org/Graphics/SVG/1.1/DTD/svg11.dtd"><svg t="1565144951939" class="icon" viewBox="0 0 1126 1024" version="1.1" xmlns="http://www.w3.org/2000/svg" p-id="42969" xmlns:xlink="http://www.w3.org/1999/xlink" width="43.984375" height="40"><defs><style type="text/css"></style></defs><path d="M245.216817 915.256833V574.785886L432.844196 1024H353.913713c-29.331866 0-54.780982-10.787206-76.347348-32.363631-21.566365-21.576424-32.349548-47.035599-32.349548-76.379536z m108.696896-591.616503c15.526978 0 28.251536-5.391591 38.171662-16.180809 9.920126-10.789218 14.881194-23.950334 14.881195-39.48536 0-15.535026-4.961069-28.265619-14.881195-38.189768s-22.644684-14.88723-38.173674-14.88723c-15.526978 0-28.251536 5.178342-38.173673 15.535026-9.920126 10.356684-14.881194 22.870004-14.881195 37.541972 0 14.671969 5.17633 27.617823 15.52899 38.837564 10.35266 11.219741 22.859945 16.828605 37.525878 16.828605z m763.46543 387.076024c12.076762 27.615811 12.292024 55.233635 0.645784 82.851457-11.64624 27.617823-31.27123 47.035599-58.876982 58.25534l-397.261705 164.409336c-11.213705 5.178342-25.449116 7.767513-42.702209 7.767513-21.566365 0-41.193367-5.826138-58.876982-17.476401-17.683615-11.652275-30.840707-27.40055-39.467253-47.25086L252.978295 310.694475c-5.174318-14.669957-7.763489-28.909391-7.763489-42.720314 0-19.85031 6.039387-38.405029 18.116149-55.666169 12.078774-17.261139 28.036275-30.637517 47.88055-40.131143L711.056346 7.767513C725.724291 2.589171 739.95769 0 753.760566 0c19.842263 0 38.388935 6.041399 55.644039 18.124196 17.253092 12.082798 30.623434 28.048346 40.115049 47.898657l267.859489 644.693501z m-1050.73666 199.362137c-27.605752-11.219741-47.015481-30.206994-58.231198-56.96176-11.215717-26.752754-11.215717-53.940055 0-81.557878l130.695796-315.870806v485.460495l-72.464598-31.070051z" p-id="42970"></path></svg>