<?xml version="1.0" standalone="no"?><!DOCTYPE svg PUBLIC "-//W3C//DTD SVG 1.1//EN" "http://www.w3.org/Graphics/SVG/1.1/DTD/svg11.dtd"><svg t="1565146339032" class="icon" viewBox="0 0 1024 1024" version="1.1" xmlns="http://www.w3.org/2000/svg" p-id="72147" xmlns:xlink="http://www.w3.org/1999/xlink" width="40" height="40"><defs><style type="text/css"></style></defs><path d="M512 40.96C250.88 40.96 40.96 250.88 40.96 512s209.92 471.04 471.04 471.04 471.04-209.92 471.04-471.04S773.12 40.96 512 40.96z m307.2 737.28l-87.04-87.04c-56.32 61.44-133.12 102.4-220.16 102.4s-168.96-40.96-220.16-102.4L204.8 778.24c-56.32-66.56-92.16-148.48-97.28-230.4h122.88V481.28H107.52c5.12-87.04 40.96-168.96 97.28-235.52l87.04 87.04 15.36-15.36c66.56 87.04 174.08 230.4 179.2 240.64 10.24 15.36 40.96 40.96 81.92 5.12 40.96-35.84 10.24-71.68-5.12-81.92-10.24-5.12-153.6-112.64-240.64-179.2l15.36-15.36L245.76 204.8c66.56-56.32 148.48-92.16 230.4-97.28v122.88h61.44V107.52c87.04 5.12 168.96 40.96 230.4 97.28l-87.04 87.04 46.08 46.08L819.2 245.76c56.32 66.56 92.16 148.48 97.28 230.4h-122.88v61.44h122.88c-5.12 92.16-40.96 174.08-97.28 240.64z" p-id="72148"></path></svg>