<?xml version="1.0" standalone="no"?><!DOCTYPE svg PUBLIC "-//W3C//DTD SVG 1.1//EN" "http://www.w3.org/Graphics/SVG/1.1/DTD/svg11.dtd"><svg t="1570695211614" class="icon" viewBox="0 0 1024 1024" version="1.1" xmlns="http://www.w3.org/2000/svg" p-id="5694" xmlns:xlink="http://www.w3.org/1999/xlink" width="300" height="300"><defs><style type="text/css"></style></defs><path d="M418.087822 209.942756l48.310045-48.241778 12.856889 12.9024-48.310045 48.241778zM437.8624 232.197689l48.287289-48.264533 12.879644 12.879644-48.287289 48.241778zM354.736356 272.907378l48.287288-48.241778 12.856889 12.856889-48.264533 48.264533zM376.103822 293.4784l48.287289-48.241778 12.879645 12.879645-48.287289 48.241777zM461.937778 254.862222l11.377778 11.377778c15.928889-18.204444 31.857778-34.133333 45.511111-50.062222h-15.928889l2.275555-6.826667-43.235555 45.511111z" fill="#F96268" p-id="5695"></path><path d="M395.946667 0L0 393.671111V1024L1024 0H395.946667z m-38.684445 177.493333l13.653334-13.653333 13.653333 13.653333 79.644444-79.644444 11.377778 11.377778-79.644444 79.644444 11.377777 11.377778 61.44-61.44L523.377778 193.422222l-9.102222 9.102222c20.48-2.275556 38.684444-2.275556 52.337777 0l-2.275555 18.204445c-6.826667 0-15.928889-2.275556-22.755556-2.275556-29.582222 34.133333-77.368889 84.195556-136.533333 150.186667l-13.653333-11.377778c27.306667-27.306667 50.062222-52.337778 72.817777-75.093333l-11.377777-11.377778-65.991112 59.164445-56.888888-56.888889 61.44-61.44-11.377778-11.377778-79.644445 79.644444-11.377777-11.377777 79.644444-79.644445-11.377778-11.377778z m172.942222 113.777778l-2.275555 18.204445c-13.653333-2.275556-29.582222-2.275556-47.786667-2.275556l4.551111-15.928889c18.204444-2.275556 34.133333 0 45.511111 0zM218.453333 325.404444c20.48-4.551111 38.684444-4.551111 54.613334-4.551111v18.204445c-15.928889 0-34.133333 0-56.888889 4.551111l2.275555-18.204445z m65.991111 277.617778l-109.226666-109.226666c2.275556 15.928889 4.551111 31.857778 4.551111 47.786666l-18.204445-9.102222c-2.275556-43.235556-13.653333-84.195556-34.133333-122.88l18.204445-6.826667c9.102222 18.204444 15.928889 38.684444 22.755555 56.888889l131.982222 131.982222-15.928889 11.377778z m127.431112-134.257778L386.844444 493.795556c-9.102222 9.102222-20.48 9.102222-31.857777 0l-97.848889-97.848889-11.377778 11.377777c47.786667 56.888889 70.542222 111.502222 68.266667 163.84l-18.204445 2.275556c2.275556-50.062222-18.204444-100.124444-61.44-152.462222l-38.684444 38.684444-13.653334-13.653333 38.684445-38.684445c-4.551111-4.551111-6.826667-9.102222-11.377778-11.377777l-34.133333-34.133334 13.653333-13.653333 34.133333 34.133333 11.377778 11.377778 63.715556-63.715555 13.653333 13.653333-38.684444 38.684444 95.573333 95.573334c4.551111 4.551111 6.826667 4.551111 11.377778 0l15.928889-15.928889c2.275556-2.275556 2.275556-4.551111 2.275555-9.102222-2.275556-4.551111-11.377778-15.928889-27.306666-34.133334l15.928888-9.102222c18.204444 22.755556 29.582222 36.408889 31.857778 43.235556 2.275556 4.551111 0 11.377778-6.826666 15.928888z m27.306666-47.786666c-2.275556-20.48-9.102222-38.684444-18.204444-56.888889l15.928889-9.102222c11.377778 20.48 18.204444 40.96 22.755555 61.44l-20.48 4.551111z m125.155556-102.4l-50.062222 50.062222c-11.377778 11.377778-22.755556 11.377778-34.133334 0l-34.133333-34.133333 13.653333-13.653334 31.857778 31.857778c4.551111 4.551111 9.102222 4.551111 13.653333-2.275555l45.511111-45.511112c4.551111-4.551111 4.551111-6.826667 4.551112-11.377777s-4.551111-11.377778-13.653334-22.755556l15.928889-9.102222c13.653333 15.928889 18.204444 27.306667 18.204445 34.133333-2.275556 9.102222-4.551111 15.928889-11.377778 22.755556z m-25.031111-68.266667l4.551111-18.204444c27.306667 2.275556 50.062222 4.551111 68.266666 9.102222l-4.551111 18.204444c-18.204444-2.275556-40.96-6.826667-68.266666-9.102222z" fill="#F96268" p-id="5696"></path></svg>