<?xml version="1.0" standalone="no"?><!DOCTYPE svg PUBLIC "-//W3C//DTD SVG 1.1//EN" "http://www.w3.org/Graphics/SVG/1.1/DTD/svg11.dtd"><svg t="1564712496221" class="icon" viewBox="0 0 1044 1024" version="1.1" xmlns="http://www.w3.org/2000/svg" p-id="4269" xmlns:xlink="http://www.w3.org/1999/xlink" width="40.78125" height="40"><defs><style type="text/css"></style></defs><path d="M505.856 567.296c2.048 2.56 4.608 4.096 7.68 4.096s5.632-1.536 7.68-4.096l156.672-212.992c1.024-1.536 1.536-3.584 1.024-5.632-0.512-2.048-2.048-3.072-3.584-3.072H573.44V129.024c0-4.096-1.024-8.192-3.072-11.264-2.048-3.072-5.12-4.608-7.68-4.608H463.872c-2.56 0-5.632 1.536-7.68 4.608-2.048 3.072-3.072 7.168-3.072 11.264v216.064H351.232c-1.536 0-2.56 1.024-3.584 3.072-0.512 2.048 0 4.608 1.024 5.632l157.184 213.504z" p-id="4270"></path><path d="M942.592 639.488L803.328 542.72h-87.04l145.92 118.272-160.256-2.048c-4.608 0-11.264 4.608-13.312 8.192l-44.544 108.032h-261.12L337.92 666.624c-2.048-3.584-8.704-8.192-13.312-8.192H164.864L310.272 542.72h-87.04l-139.264 96.768c-21.504 12.8-34.816 43.008-29.184 66.56l25.6 141.824c5.632 23.552 31.744 43.008 57.344 43.008h750.08c25.6 0 51.712-19.456 57.344-43.008l25.6-141.824c6.656-23.552-6.656-53.76-28.16-66.56z" p-id="4271"></path></svg>