<?xml version="1.0" standalone="no"?><!DOCTYPE svg PUBLIC "-//W3C//DTD SVG 1.1//EN" "http://www.w3.org/Graphics/SVG/1.1/DTD/svg11.dtd"><svg t="1565142843400" class="icon" viewBox="0 0 1024 1024" version="1.1" xmlns="http://www.w3.org/2000/svg" p-id="8217" xmlns:xlink="http://www.w3.org/1999/xlink" width="40" height="40"><defs><style type="text/css"></style></defs><path d="M507.953997 410.886051c0.2023-0.065025 0.541875-0.18785 0.953701 0 0.238425 0.13005 0.4913 0.267325 0.773076 0.541875 1.799026 1.567826 2.095252 3.005602 1.163226 5.173104-1.445001 3.287377-5.317604 6.863755-10.180032 9.782657C501.740492 417.699231 505.62032 411.818077 507.953997 410.886051z" fill="" p-id="8218"></path><path d="M546.54275 426.224737c1.690651-1.379976 2.629902-0.997051 3.113977-0.794751 0 0 0.13005 0.079475 0.267325 0.079475 0.852551 0.44795 0.852551 0.729726 0.874226 0.932026 0.151725 2.622677-4.067678 8.561631-11.581683 14.023735C540.885571 434.099993 543.616623 428.536739 546.54275 426.224737z" fill="" p-id="8219"></path><path d="M443.904325 567.719241l29.391322-62.684146c0.62135-1.221026 0.874226-2.651577 0.780301-4.031553l-1.921851-61.20302c1.668976 0.599675 3.352402 1.112651 5.288704 1.351076 4.717928 0.4913 9.992182-0.15895 15.150836-1.697876 1.661751 6.632555 5.144204 12.101884 10.302858 15.591561 6.61088 4.544528 15.895012 4.797404 26.154519 0.982601 0.0867 1.177676 0.27455 2.290327 0.4913 3.417428 1.322176 7.066055 4.732378 12.087434 9.674282 14.421111 0.62135 0.267325 1.206576 0.50575 1.813476 0.6647 1.777351 0.599675 3.554703 0.968151 5.281479 1.206576l-47.309335 36.934227c-1.076526 0.845326-2.015776 1.965201-2.543202 3.207902l-29.391322 62.713046L443.904325 567.719241z" fill="" p-id="8220"></path><path d="M641.03137 467.255542l-8.684456 14.435561 0.10115 0.397375c-8.973457 12.954434-34.810075 44.217032-89.727341 72.228378-16.863162 9.016807-29.174571 26.233994-37.208777 42.259056l-22.274691-10.461808 28.444846-60.740619 56.362266-43.942482c3.836478-3.012827 4.522853-8.604981 1.524476-12.513709-2.955027-3.699203-8.279856-4.400028-12.166909-1.654526-3.605278 0.33235-8.619431 0.44795-13.691385-1.141551-3.337952-1.098201-4.782954-5.144204-5.418754-8.337656-0.368475-1.799026-0.53465-3.829253-0.53465-5.816129 0 0 0.1445-0.065025 0.21675-0.13005 10.801383-6.083454 22.245791-16.834262 21.776166-25.887194-0.267325-3.923178-2.767177-6.98658-6.62533-8.720581-4.074903-1.726776-8.395456-0.982601-12.145234 2.051902-6.14848 4.941904-10.678558 16.053962-11.834559 27.06487-7.37673 3.345177-15.895012 5.115304-21.234291 1.351076-3.540253-2.413152-5.938954-6.401355-6.95768-11.415508 8.323206-3.937628 15.309786-9.898257 18.011938-16.133437 2.478177-5.714979 1.235476-11.350483-3.431878-15.403711-3.207902-2.861102-7.037155-3.540253-10.750808-2.131377-7.412855 2.861102-11.877909 13.64081-12.911084 23.040542-0.18785 1.654526-0.33235 3.272927-0.33235 4.876879-4.414478 1.459451-9.002357 2.210852-13.084485 1.806251-2.796077-0.3468-4.891329-1.156001-6.62533-2.413152l-0.065025-2.442052c-0.1445-4.291653-3.402977-7.607931-7.412855-8.337656-0.4624-0.1445-0.939251-0.2601-1.401651-0.2601 0 0-0.267325-0.065025-0.411825-0.065025l-0.238425 0.065025c0 0-0.15895 0-0.27455 0-0.1445 0.079475-0.252875 0.1445-0.36125 0.1734-4.450603 0.6358-7.860806 4.400028-7.687406 8.987907l2.319227 71.397502-28.473746 60.791195L412.909052 553.218655c7.181655-16.364637 12.564284-36.811402 8.604981-55.249615-13.61191-60.444394-6.14848-100.398674-1.965201-115.60731l0.397375-0.1445 5.447654-15.895012c0.62135-1.827926 1.148776-3.699203 1.986876-5.527129 27.953545-59.743569 99.300473-85.580188 159.080167-57.597742 59.707444 27.996896 85.594638 99.271573 57.583292 159.058491C643.177196 464.054865 642.078995 465.651591 641.03137 467.255542z" fill="" p-id="8221"></path><path d="M677.019121 128.055994c-122.42049-55.451916-226.409991-59.945869-336.302321 13.30846-84.424187 56.311691-114.162309 196.187794-113.208608 213.065406 1.047626 16.942637 19.695364 42.620306-34.607775 78.875383-54.23089 36.255077-61.137995 27.59952-56.723517 52.359613 3.048952 17.549538 22.245791 27.54172 29.694772 36.717477 7.412855 9.204657 14.00206 20.59849 3.713653 32.729274-6.401355 7.456205-21.263191 9.616482-12.246384 30.186072 7.954731 18.105863 33.870825 19.984365 42.620306 22.029041 3.193452 0.729726-23.741367-3.858153-35.048501 1.156001-8.099231 3.540253-17.527863 17.737388-12.195809 26.710845 5.382629 8.937332 19.500289 13.16396 23.459592 15.671036 3.952078 2.528752 2.745502 18.344288 3.012827 22.664842 1.257151 18.517689-10.432908 34.521075-17.845763 51.420363-7.875256 18.120313 4.400028 56.029916 44.477133 64.461497 40.084329 8.482156 56.109391 8.113681 85.312862 10.765258 52.561913 4.826304 92.552318 82.639611 96.995696 147.093883 22.708192 3.475228 89.09154 3.720878 112.688408 3.720878 76.556156 0 149.051859-19.088464 213.881832-53.074889-33.097749-186.311211 69.150526-204.077499 122.514415-384.175206C858.879729 440.638623 890.561377 224.73379 677.019121 128.055994zM616.242376 217.92061l21.11869-45.084033c3.590828-7.701856 12.744909-10.974783 20.519015-7.369505 7.737981 3.619728 11.054258 12.795484 7.398405 20.504565l-21.11869 45.047908c-3.605278 7.716306-12.737684 11.068708-20.519015 7.46343C615.960601 234.848797 612.608199 225.651365 616.242376 217.92061zM521.291357 136.993325c8.532731-0.729726 16.010612 5.563254 16.675312 14.038185l4.277203 49.563536c0.744176 8.482156-5.570479 15.988937-14.038185 16.711437-2.796077 0.267325-5.512679-0.27455-7.875256-1.394426-4.797404-2.225302-8.373781-6.921555-8.814506-12.672659l-4.291653-49.563536C506.508996 145.200931 512.765851 137.694151 521.291357 136.993325zM388.820885 180.632357c6.921555-4.876879 16.610287-3.207902 21.487166 3.793128l28.459296 40.828505c4.876879 7.00103 3.207902 16.624737-3.829253 21.501616-4.717928 3.258477-10.577408 3.590828-15.389261 1.271601-2.369802-1.127101-4.493953-2.810527-6.097904-5.100854l-28.444846-40.79238C380.035278 195.132943 381.79818 185.487561 388.820885 180.632357zM333.679644 431.022141l-49.512961 4.219403c-2.846652 0.27455-5.541579-0.238425-7.889706-1.351076-4.840754-2.239752-8.337656-6.98658-8.865081-12.672659-0.729726-8.561631 5.556029-15.974487 14.10321-16.718662l49.563536-4.219403c8.511056-0.751401 15.945587 5.570479 16.718662 14.08876C348.49813 422.83621 342.147351 430.321315 333.679644 431.022141zM303.291272 305.213124c-7.672956-3.670303-11.018133-12.846059-7.412855-20.533465 3.619728-7.737981 12.795484-11.054258 20.51179-7.46343l45.069583 21.154815c7.680181 3.576378 11.054258 12.795484 7.412855 20.45399-3.590828 7.745206-12.817159 11.054258-20.533465 7.44898L303.291272 305.213124zM507.282072 651.753277l-5.158654-2.442052-4.732378 10.057207 5.209229 2.456502-4.941904 10.534058-5.209229-2.398702-4.732378 10.057207 4.876879 2.261427c-7.07328 12.846059-24.586693 17.506188-41.088605 10.989233-6.061779 5.317604-14.977436 6.87098-22.773217 3.236802l-43.465632-20.388965c-7.795781-3.569153-12.224709-11.451633-12.101884-19.550864-15.577111-8.496606-23.199492-24.940718-17.816863-38.538178l5.527129 2.572102 4.667353-10.042757-5.888379-2.745502 4.999704-10.577408 5.808904 2.745502 4.746828-10.071657-5.845029-2.810527 5.173104-11.054258 137.954251 64.584322L507.282072 651.753277zM554.085656 576.468722c-23.409017 12.484809-35.416976 53.782939-35.286926 53.847964-20.33839-9.544232-40.59008-19.059564-60.87067-28.517096-6.227955-2.861102-12.340309-5.787229-18.611614-8.706131-20.28059-9.464757-40.56118-19.023439-60.805645-28.466521 0.1445 0.065025 24.102618-35.640951 18.676639-61.557045-19.608664-86.642263 1.192126-138.936852 3.048952-139.681027 1.495576-4.335003 2.572102-8.814506 4.587878-13.14951 33.870825-72.286178 119.884513-103.425951 192.185141-69.605701 72.293403 33.856375 103.389826 119.898963 69.605701 192.185141-2.030226 4.356678-4.826304 8.005306-7.18888 11.979059C660.025908 486.633006 633.156114 536.095393 554.085656 576.468722zM684.179101 631.508813c-4.703478 3.222352-10.642433 3.540253-15.425386 1.286051-2.362577-1.062076-4.493953-2.890002-6.083454-5.129754l-28.517096-40.828505c-4.826304-7.01548-3.135652-16.639187 3.822028-21.516066 6.993805-4.876879 16.696987-3.164552 21.552191 3.836478l28.444846 40.785155C692.863557 616.950427 691.194581 626.538009 684.179101 631.508813zM695.818585 304.468948c-4.891329-6.950455-3.215127-16.559712 3.778678-21.487166l40.770705-28.473746c6.97213-4.811854 16.639187-3.128427 21.501616 3.793128 4.876879 7.00103 3.171777 16.639187-3.771453 21.516066l-40.842955 28.502646c-4.667353 3.244027-10.534058 3.590828-15.374811 1.365526C699.517787 308.536626 697.371961 306.802625 695.818585 304.468948zM777.114344 527.410936c-3.619728 7.716306-12.809934 11.032583-20.55514 7.412855l-45.062358-21.082565c-7.730756-3.605278-11.003683-12.817159-7.46343-20.48289 3.634178-7.752431 12.795484-11.104833 20.519015-7.47788l45.112933 21.08979C777.381669 510.468299 780.705172 519.680181 777.114344 527.410936zM791.47043 407.548098l-49.549086 4.269978c-2.824977 0.27455-5.512679-0.267325-7.846356-1.379976-4.840754-2.210852-8.409906-6.97213-8.879532-12.737684-0.751401-8.467706 5.534354-15.945587 14.038185-16.610287l49.592436-4.320553c8.511056-0.715276 15.945587 5.584929 16.747562 14.067085C806.267241 399.354942 799.945361 406.782248 791.47043 407.548098z" fill="" p-id="8222"></path></svg>