<?xml version="1.0" standalone="no"?><!DOCTYPE svg PUBLIC "-//W3C//DTD SVG 1.1//EN" "http://www.w3.org/Graphics/SVG/1.1/DTD/svg11.dtd"><svg t="1562570606579" class="icon" viewBox="0 0 1024 1024" version="1.1" xmlns="http://www.w3.org/2000/svg" p-id="2012" width="40" height="40" xmlns:xlink="http://www.w3.org/1999/xlink"><defs><style type="text/css"></style></defs><path d="M512 963.764706C262.866824 963.764706 60.235294 761.133176 60.235294 512 60.235294 262.866824 262.866824 60.235294 512 60.235294 761.133176 60.235294 963.764706 262.866824 963.764706 512 963.764706 761.133176 761.133176 963.764706 512 963.764706M512 0C229.677176 0 0 229.677176 0 512 0 794.322824 229.677176 1024 512 1024 794.322824 1024 1024 794.322824 1024 512 1024 229.677176 794.322824 0 512 0" p-id="2013"></path><path d="M675.412329 659.413835C589.577035 719.588894 457.481035 723.986071 366.224565 670.015247 360.201035 666.401129 354.358212 662.666541 348.756329 658.630776 335.143153 648.993129 316.349741 652.1856 306.712094 665.738541 297.134682 679.291482 300.266918 698.145129 313.880094 707.722541 320.807153 712.661835 328.035388 717.360188 335.504565 721.757365 387.728565 752.778541 448.987859 769.102306 512.656565 769.102306 584.3968 769.102306 654.510682 747.658541 709.987388 708.686306 723.600565 699.169129 726.913506 680.375718 717.336094 666.762541 707.818918 653.149365 689.085741 649.776188 675.412329 659.413835" p-id="2014"></path><path d="M344.419388 415.491012C371.886682 415.491012 394.113506 393.264188 394.113506 365.796894 394.113506 338.3296 371.886682 316.102776 344.419388 316.102776 316.952094 316.102776 294.725271 338.3296 294.725271 365.796894 294.725271 393.264188 316.952094 415.491012 344.419388 415.491012" p-id="2015"></path><path d="M679.604706 316.096753C652.137412 316.096753 629.910588 338.323576 629.910588 365.790871 629.910588 393.258165 652.137412 415.484988 679.604706 415.484988 707.072 415.484988 729.298824 393.258165 729.298824 365.790871 729.298824 338.323576 707.072 316.096753 679.604706 316.096753" p-id="2016"></path></svg>