<?xml version="1.0" standalone="no"?><!DOCTYPE svg PUBLIC "-//W3C//DTD SVG 1.1//EN" "http://www.w3.org/Graphics/SVG/1.1/DTD/svg11.dtd"><svg t="1567067827756" class="icon" viewBox="0 0 1024 1024" version="1.1" xmlns="http://www.w3.org/2000/svg" p-id="26552" xmlns:xlink="http://www.w3.org/1999/xlink" width="100" height="100"><defs><style type="text/css"></style></defs><path d="M683.008 432.201143a51.2 51.2 0 0 1-51.2-51.2 121.417143 121.417143 0 0 0-242.614857 0 51.053714 51.053714 0 1 1-102.326857 0 223.597714 223.597714 0 1 1 447.268571 0 51.2 51.2 0 0 1-51.126857 51.2z" p-id="26553"></path><path d="M839.533714 432.201143a51.2 51.2 0 0 1-51.2-51.2 277.942857 277.942857 0 1 0-555.885714 0 51.2 51.2 0 0 1-102.326857 0 380.196571 380.196571 0 0 1 760.32 0 50.761143 50.761143 0 0 1-50.907429 51.2z" p-id="26554"></path><path d="M959.414857 607.890286H563.2V432.201143a51.2 51.2 0 1 0-102.326857 0v175.689143H64.877714a64 64 0 0 0-64 63.926857v285.988571c0 35.254857 28.672 63.926857 64 63.926857h894.537143a64 64 0 0 0 63.926857-63.926857v-285.988571a64.073143 64.073143 0 0 0-63.926857-63.926857z m-800.914286 257.974857a51.2 51.2 0 1 1 19.529143-98.304 51.2 51.2 0 0 1-19.602285 98.304z m154.843429 0a51.2 51.2 0 1 1 19.529143-98.304 51.2 51.2 0 0 1-19.529143 98.304z" p-id="26555"></path></svg>