<?xml version="1.0" standalone="no"?><!DOCTYPE svg PUBLIC "-//W3C//DTD SVG 1.1//EN" "http://www.w3.org/Graphics/SVG/1.1/DTD/svg11.dtd"><svg t="1562736649590" class="icon" viewBox="0 0 1024 1024" version="1.1" xmlns="http://www.w3.org/2000/svg" p-id="2796" width="40" height="40" xmlns:xlink="http://www.w3.org/1999/xlink"><defs><style type="text/css"></style></defs><path d="M1021.147429 518.253714c0 274.944-227.913143 502.857143-515.401143 502.857143-274.944 0-502.857143-227.913143-502.857143-502.857143C2.889143 230.765714 230.802286 2.852571 505.746286 2.852571c287.451429 0 515.401143 227.949714 515.401143 515.401143zM482.048 262.4a18.870857 18.870857 0 0 0-19.017143 19.858286l15.250286 329.398857a10.788571 10.788571 0 0 0 10.569143 10.203428h46.336a10.825143 10.825143 0 0 0 10.605714-10.203428l15.250286-329.398857a18.797714 18.797714 0 0 0-17.700572-19.821715h-61.293714zM512 781.568a49.92 49.92 0 0 0 0.073143-99.84H512c-27.538286 0-49.883429 22.345143-49.846857 49.92s22.345143 49.846857 49.846857 49.92z" p-id="2797"></path></svg>