<?xml version="1.0" standalone="no"?><!DOCTYPE svg PUBLIC "-//W3C//DTD SVG 1.1//EN" "http://www.w3.org/Graphics/SVG/1.1/DTD/svg11.dtd"><svg t="1565924973294" class="icon" viewBox="0 0 1024 1024" version="1.1" xmlns="http://www.w3.org/2000/svg" p-id="6274" xmlns:xlink="http://www.w3.org/1999/xlink" width="100" height="100"><defs><style type="text/css"></style></defs><path d="M665.6 281.6H358.4c-28.16 0-51.2 23.04-51.2 51.2v358.4c0 28.16 23.04 51.2 51.2 51.2h307.2c28.16 0 51.2-23.04 51.2-51.2V332.8c0-28.16-23.04-51.2-51.2-51.2zM512 652.8h-102.4c-14.08 0-25.6-11.52-25.6-25.6s11.52-25.6 25.6-25.6h102.4c14.08 0 25.6 11.52 25.6 25.6s-11.52 25.6-25.6 25.6z m102.4-115.2H409.6c-14.08 0-25.6-11.52-25.6-25.6s11.52-25.6 25.6-25.6h204.8c14.08 0 25.6 11.52 25.6 25.6s-11.52 25.6-25.6 25.6z m0-115.2H409.6c-14.08 0-25.6-11.52-25.6-25.6s11.52-25.6 25.6-25.6h204.8c14.08 0 25.6 11.52 25.6 25.6s-11.52 25.6-25.6 25.6z" p-id="6275"></path><path d="M512 0C229.12 0 0 229.12 0 512s229.12 512 512 512 512-229.12 512-512S794.88 0 512 0z m256 691.2c0 56.32-46.08 102.4-102.4 102.4H358.4c-56.32 0-102.4-46.08-102.4-102.4V332.8c0-56.32 46.08-102.4 102.4-102.4h307.2c56.32 0 102.4 46.08 102.4 102.4v358.4z" p-id="6276"></path></svg>