<?xml version="1.0" standalone="no"?><!DOCTYPE svg PUBLIC "-//W3C//DTD SVG 1.1//EN" "http://www.w3.org/Graphics/SVG/1.1/DTD/svg11.dtd"><svg t="1563334310457" class="icon" viewBox="0 0 1024 1024" version="1.1" xmlns="http://www.w3.org/2000/svg" p-id="8687" xmlns:xlink="http://www.w3.org/1999/xlink" width="40" height="40"><defs><style type="text/css"></style></defs><path d="M754.314 192.518c28.39 20.127 53.614 42.978 75.586 68.554a444.991 444.991 0 0 1 56.69 82.705c15.732 29.62 27.773 60.996 35.947 94.043 8.174 33.047 12.305 66.621 12.305 100.635 0 58.623-11.162 113.555-33.574 164.97-22.413 51.329-52.647 96.065-90.791 134.21-38.145 38.144-82.881 68.379-134.21 90.79C624.94 950.839 569.92 962 511.298 962c-58.008 0-112.676-11.162-164.004-33.574-51.328-22.412-96.24-52.647-134.736-90.791-38.409-38.145-68.73-82.881-90.791-134.21-22.06-51.327-33.047-106.347-33.047-164.97 0-33.398 3.955-66.182 11.777-98.35s19.072-62.666 33.574-91.67c14.502-29.003 32.432-56.074 53.877-81.298a457.715 457.715 0 0 1 71.807-68.028c13.887-10.107 28.828-13.886 44.912-11.338 16.084 2.55 29.18 10.372 39.2 23.643 10.107 13.272 13.886 28.037 11.337 44.473-2.549 16.347-10.371 29.619-23.642 39.726-39.727 29.004-70.137 64.6-91.23 106.787s-31.642 87.627-31.642 136.143c0 41.572 7.91 80.86 23.643 117.686 15.732 36.826 37.354 68.994 64.775 96.416 27.422 27.421 59.59 49.13 96.416 65.214 36.827 16.084 76.114 24.082 117.686 24.082s80.86-7.998 117.686-24.082c36.826-16.084 68.994-37.793 96.416-65.214 27.421-27.422 49.13-59.59 65.214-96.416 16.084-36.827 24.082-76.114 24.082-117.686 0-49.13-11.337-95.625-34.013-139.395-22.676-43.77-54.492-79.892-95.45-108.193-13.886-9.492-22.236-22.412-25.048-38.76-2.813-16.347 0.44-31.552 9.931-45.351 9.493-13.272 22.412-21.27 38.76-24.082 16.524-2.989 31.64 0.263 45.527 9.756z m-242.93 348.837c-16.347 0-30.41-5.8-42.099-17.49-11.69-11.69-17.49-25.664-17.49-42.1V122.558c0-16.348 5.8-30.586 17.49-42.54 11.69-11.953 25.664-17.93 42.1-17.93 17.05 0 31.377 5.977 42.978 17.93 11.69 11.954 17.49 26.192 17.49 42.54v359.209c0 16.347-5.8 30.41-17.49 42.1-11.601 11.6-26.015 17.49-42.978 17.49z" p-id="8688"></path></svg>