<?xml version="1.0" standalone="no"?><!DOCTYPE svg PUBLIC "-//W3C//DTD SVG 1.1//EN" "http://www.w3.org/Graphics/SVG/1.1/DTD/svg11.dtd"><svg t="1556077695585" class="icon" style="" viewBox="0 0 1024 1024" version="1.1" xmlns="http://www.w3.org/2000/svg" p-id="2194" xmlns:xlink="http://www.w3.org/1999/xlink" width="40" height="40"><defs><style type="text/css"></style></defs><path d="M28.4 170.7h967.1c19 0 28.4 9.5 28.4 28.4 0 19-9.5 28.4-28.4 28.4H28.4C9.4 227.5 0 218 0 199.1c0-19 9.5-28.4 28.4-28.4zM28.4 853.3h967.1c19 0 28.4 9.5 28.4 28.4 0 19-9.5 28.4-28.4 28.4H28.4c-19 0-28.4-9.5-28.4-28.4s9.5-28.4 28.4-28.4zM28.4 512h512c19 0 28.4 9.5 28.4 28.4 0 19-9.5 28.4-28.4 28.4h-512c-19 0-28.4-9.5-28.4-28.4S9.5 512 28.4 512zM739.6 341.3l275.9 209.8-275.9 188.5V341.3z" p-id="2195"></path></svg>