<?xml version="1.0" standalone="no"?><!DOCTYPE svg PUBLIC "-//W3C//DTD SVG 1.1//EN" "http://www.w3.org/Graphics/SVG/1.1/DTD/svg11.dtd"><svg t="1563960903924" class="icon" viewBox="0 0 1024 1024" version="1.1" xmlns="http://www.w3.org/2000/svg" p-id="4726" xmlns:xlink="http://www.w3.org/1999/xlink" width="40" height="40"><defs><style type="text/css"></style></defs><path d="M512 512m-512 0a512 512 0 1 0 1024 0 512 512 0 1 0-1024 0Z" fill="#E6A23C" p-id="4727"></path><path d="M512 607.085714c-21.942857 0-36.571429-14.628571-36.571429-36.571428v-292.571429c0-21.942857 14.628571-36.571429 36.571429-36.571428s36.571429 14.628571 36.571429 36.571428v292.571429c0 14.628571-14.628571 36.571429-36.571429 36.571428z" fill="#FFFFFF" p-id="4728"></path><path d="M512 702.171429m-43.885714 0a43.885714 43.885714 0 1 0 87.771428 0 43.885714 43.885714 0 1 0-87.771428 0Z" fill="#FFFFFF" p-id="4729"></path></svg>