<?xml version="1.0" standalone="no"?><!DOCTYPE svg PUBLIC "-//W3C//DTD SVG 1.1//EN" "http://www.w3.org/Graphics/SVG/1.1/DTD/svg11.dtd"><svg t="1563248093663" class="icon" viewBox="0 0 1024 1024" version="1.1" xmlns="http://www.w3.org/2000/svg" p-id="2293" xmlns:xlink="http://www.w3.org/1999/xlink" width="40" height="40"><defs><style type="text/css"></style></defs><path d="M512 190.984127C192.790123 190.984127 0 516.514991 0 516.514991s222.589065 315.597884 512 315.597884c288.959436 0 512-315.597884 512-315.597884S831.209877 190.984127 512 190.984127z m329.142857 445.62963c-106.553792 89.848325-219.428571 146.285714-332.303351 146.285714S282.638448 729.622575 176.536155 636.613757c-36.571429-33.410935-73.142857-66.37037-102.941799-102.941799-6.772487-6.772487-9.932981-13.093474-16.705467-19.865962 3.160494-6.772487 9.932981-13.093474 13.093474-19.865961 26.638448-36.571429 59.597884-73.142857 96.169312-106.553792 102.941799-93.008818 215.816578-149.446208 342.236332-149.446208s239.294533 56.43739 342.236332 149.446208c36.571429 33.410935 66.37037 69.982363 96.169312 106.553792 3.160494 6.772487 9.932981 13.093474 13.093474 19.865961-3.160494 6.772487-9.932981 13.093474-16.705467 19.865962-28.895944 32.959436-62.306878 69.530864-102.038801 102.941799z m0 0" p-id="2294"></path><path d="M508.839506 317.40388c-99.781305 0-176.084656 79.915344-176.084656 176.084656 0 99.781305 79.915344 176.084656 176.084656 176.084656 99.781305 0 176.084656-79.915344 176.084656-176.084656s-79.915344-176.084656-176.084656-176.084656z m0 305.664903c-69.982363 0-126.419753-56.43739-126.419753-126.419753s56.43739-126.419753 126.419753-126.419753 126.419753 56.43739 126.419753 126.419753c-0.451499 66.821869-56.888889 126.419753-126.419753 126.419753z m0 0" p-id="2295"></path></svg>