<?xml version="1.0" standalone="no"?><!DOCTYPE svg PUBLIC "-//W3C//DTD SVG 1.1//EN" "http://www.w3.org/Graphics/SVG/1.1/DTD/svg11.dtd"><svg t="1563269471865" class="icon" viewBox="0 0 1026 1024" version="1.1" xmlns="http://www.w3.org/2000/svg" p-id="6880" xmlns:xlink="http://www.w3.org/1999/xlink" width="40.078125" height="40"><defs><style type="text/css"></style></defs><path d="M145.02659697 743.2269374h-83.02583056v218.7730626h219.18819199v-83.02583057H145.02659697v-135.95479716z m0-599.44649502h137.40774873V62H62.83102519v217.73523955h81.78044239V143.78044239z m490.26752754 285.8164207s177.46771201 107.72601503 204.45110684 27.19095997a327.32933555 327.32933555 0 0 0-654.45110684 0c174.35424375 61.64667862 450-27.19095908 450-27.19095996z m245.34132803-149.86162353h81.78044326V62H744.8882205v81.78044239h136.36992657v135.95479716zM62.83102519 511.5848706v54.58948331h900.83025791v-54.58948331z m777.53689981 81.78044327h-54.5894833a101.08394825 101.08394825 0 0 1-68.08118027 95.06457509c-1.6605167 39.64483388-69.32656846 204.65867198-203.62084893 204.65867198s-203.82841318-166.05166026-205.48892989-204.65867198a98.38560849 98.38560849 0 0 1-66.42066444-95.06457509H185.91681816s-2.07564609 95.06457597 81.78044327 122.67066357c2.07564609 46.49446494 83.02583057 231.6420668 245.54889228 231.6420668s243.68081221-184.73247247 245.34132891-231.6420668c84.27121787-27.60608848 81.78044239-122.67066445 81.78044238-122.67066357z m41.51291572 285.8164207h-136.36992656v82.81826543H963.6612831V743.2269374h-81.78044238z" p-id="6881"></path></svg>