<?xml version="1.0" standalone="no"?><!DOCTYPE svg PUBLIC "-//W3C//DTD SVG 1.1//EN" "http://www.w3.org/Graphics/SVG/1.1/DTD/svg11.dtd"><svg t="1563334259014" class="icon" viewBox="0 0 1024 1024" version="1.1" xmlns="http://www.w3.org/2000/svg" p-id="4151" xmlns:xlink="http://www.w3.org/1999/xlink" width="40" height="40"><defs><style type="text/css"></style></defs><path d="M764.94749396 78.12687018H84.18753719v746.01033114a113.07983782 113.07983782 0 0 0 33.3196377 79.88412497 113.04359463 113.04359463 0 0 0 80.05715297 32.88472852H479.42859247l6.64989811-6.72238319 385.73268204-390.97964889 6.50843614-6.58091994V191.11902374c-0.12860202-62.50179518-50.88434853-113.07866756-113.3721148-112.99215356zM508.67037377 697.60909021a30.801375 30.801375 0 0 1-9.05124977 21.86119013 30.82475695 30.82475695 0 0 1-21.90678507 8.978766c-17.10758864 0-30.99077113-13.79666849-30.99077113-30.83995613v-8.18377063a30.811897 30.811897 0 0 1 9.08749297-21.86119013 30.80605087 30.80605087 0 0 1 21.90327816-8.97408882 30.91477915 30.91477915 0 0 1 21.88340312 8.9963018 30.88905796 30.88905796 0 0 1 9.07930889 21.83897715v8.18377063h-0.00467717z m38.65428883-212.04266977c-37.5448022 36.29268466-56.29148213 67.58859399-56.29148343 93.63870542v22.22127503s-3.00461297 19.05298709-24.64717889 19.05298839c-21.64724309 0-24.64717889-19.05298709-24.64718018-19.05298839v-31.99503639c0-31.18250518 19.58259436-66.4744315 58.72440111-105.92254414 29.51652246-31.14158613 46.13074704-56.70184041 49.17627906-76.43992693-1.52101257-44.34434636-24.19005671-68.95996052-67.93114305-73.86905289-65.76244323-3.26064805-97.86386863 29.52470653-96.2598503 98.54312193 0 0-1.40760843 21.30936989-25.33695418 21.30936989-23.91180866 0-26.35524964-21.30936989-26.35524965-21.30936989 0-103.43818669 47.74178049-154.36345297 143.16104047-152.7746325 82.95186998 3.35300817 125.89328379 46.10268791 129.16328488 128.06432157 0 29.58783858-19.47737428 62.52868533-58.75596584 98.5337689z m0 0M786.87298511 679.25055427L627.53146159 837.97946475l-3.31092015 3.27935413-0.91307538 4.55719155-15.44043694 77.01980499-4.52562554 22.63397123 22.69710457-4.52562553 77.3249419-15.40887092 4.60395545-0.91307538 3.30624428-3.30624299L870.40941033 762.83257443l0.07716094-0.07716095-83.61358616-83.50485921z m140.80411477 4.74424846l-61.83891002-61.6202858-10.94637873-10.87272468-10.96040634 10.87272468-35.38896362 35.24750034 83.66970312 83.51304197 0.09937523-0.10054291 35.44391029-35.28725044 10.88207771-10.88324667-10.96040764-10.86921649z m0 0" fill="" p-id="4152"></path></svg>