<?xml version="1.0" standalone="no"?><!DOCTYPE svg PUBLIC "-//W3C//DTD SVG 1.1//EN" "http://www.w3.org/Graphics/SVG/1.1/DTD/svg11.dtd"><svg t="1570780325489" class="icon" viewBox="0 0 1029 1024" version="1.1" xmlns="http://www.w3.org/2000/svg" p-id="6577" xmlns:xlink="http://www.w3.org/1999/xlink" width="301.46484375" height="300"><defs><style type="text/css"></style></defs><path d="M39.92134 820.64617c-12.682592 0.14412-22.915137 10.520786-22.771017 23.203378 0 12.682592 10.376666 22.915137 23.059258 22.915138 0.288241 0 29.832915 0.14412 71.483699 14.123795C167.179619 899.335887 216.901144 932.48357 259.416651 979.034447c4.611852 5.044213 10.809027 7.494259 17.006202 7.494259 5.620694 0 11.097268-2.017685 15.564999-6.053055 9.367823-8.647222 10.088425-23.203378 1.441204-32.571202-115.872771-126.970038-247.887022-127.258279-253.507716-127.258279zM944.276608 822.375614c-9.511944-0.576481-167.32374-9.223703-292.708454 125.384715-8.647222 9.367823-8.214861 23.92398 1.152963 32.571201 4.467731 4.17949 10.088425 6.197176 15.709119 6.197176 6.197176 0 12.394351-2.450046 16.862083-7.350138 46.983238-50.442127 104.343142-84.310411 170.350267-100.884253 49.145043-12.394351 84.022171-9.944305 85.463374-9.800185h1.729445c12.682592 0 23.059258-10.376666 23.059257-23.059258 0-12.250231-9.511944-22.338656-21.618054-23.059258zM1002.068873 541.196789c-31.8506-77.824995-103.046058-149.164574-159.252999-201.336145 54.477497-35.021248 94.254716-82.148606 118.466937-140.661473 3.89125-9.367823 1.152963-20.03273-6.629537-26.518146-67.88069-56.495182-164.153092-105.063743-271.23452-136.770223C571.869594 2.907239 459.599833-7.901788 367.651042 5.789646c-99.298929 14.700277-175.106239 57.648145-219.49531 123.943511-0.720602 0.864722-1.441204 1.873565-2.161806 3.026528-5.764814 9.079583-22.626897 45.974395-24.500461 50.153886-3.603009 7.92662-8.791342 19.312128-12.682592 28.679952-1.873565 4.323611-3.170648 7.7825-4.03537 10.376666-0.864722 2.450046-1.441204 4.611852-1.729445 6.773657-8.07074 30.841757-9.800185 62.836478-5.620694 95.263558-0.288241 1.441204-0.432361 3.026528-0.432361 4.611852 0 3.89125 1.585324 97.857725 46.983238 230.160217 26.518147 77.392634 62.836478 152.191102 107.65791 221.945357 56.062821 87.192819 125.817076 167.179619 207.24508 237.510356 4.323611 3.747129 9.656064 5.620694 15.132638 5.620694 6.485416 0 12.970833-2.738287 17.438564-7.92662 8.358981-9.656064 7.206018-24.212221-2.450047-32.571202-77.824995-67.160088-144.408602-143.39976-197.877256-226.413088-42.803747-66.439487-77.392634-137.634945-102.901938-211.28045-6.341296-18.303286-11.81787-36.174211-16.573842-53.324533 119.043419 158.820638 345.888867 274.549289 505.718349 296.743824 1.008843 0.14412 2.161805 0.288241 3.170648 0.288241 7.7825 0 15.132638-4.03537 19.456249-10.664907 41.506664-65.142403 56.062821-133.743695 41.794904-183.46522 144.408602 7.494259 241.401605-21.906295 245.869337-23.203378 6.197176-1.873565 11.241388-6.341296 14.123795-12.250231 2.594167-5.908935 2.738287-12.682592 0.288241-18.591527z" p-id="6578"></path><path d="M168.044341 167.060331c-3.458889 0.288241-7.061898-0.14412-10.664906-1.729444 3.458889 1.441204 7.061898 2.017685 10.664906 1.729444zM144.552723 220.528985c-1.008843-1.441204-2.161805-2.882407-3.60301-4.03537 1.441204 1.152963 2.594167 2.594167 3.60301 4.03537z" p-id="6579"></path></svg>