<?xml version="1.0" standalone="no"?><!DOCTYPE svg PUBLIC "-//W3C//DTD SVG 1.1//EN" "http://www.w3.org/Graphics/SVG/1.1/DTD/svg11.dtd"><svg t="1570780341483" class="icon" viewBox="0 0 1024 1024" version="1.1" xmlns="http://www.w3.org/2000/svg" p-id="8192" xmlns:xlink="http://www.w3.org/1999/xlink" width="300" height="300"><defs><style type="text/css"></style></defs><path d="M853.2 174.8c-4.5-8.3-15-13.7-26.7-13.9l-9.1-0.1c-57.9 0-111.8 8.6-160.8 25.4-34.8-49.4-73.3-85.6-117.1-110.1-1.2-0.9-2.6-1.7-4.1-2.4-8.4-4.2-19-4.8-28.2-1.8-2.9 1-5.6 2.2-7.9 3.8-43.6 24.3-83.2 61-117.9 109.4-48-16.1-100.7-24.3-157.1-24.3l-8.9 0.1c-11.7 0.2-22.2 5.6-26.8 13.9-42 76.8-27.4 184 36.3 266.8C280 512.8 365.2 557.2 465.4 567c2.8 0.7 5.7 1 8.7 1H568c3 0 5.9-0.4 8.7-0.9 100.2-9.8 185.3-54.3 240.2-125.5 63.8-82.8 78.3-190 36.3-266.8z" p-id="8193"></path><path d="M856.9 557c74.4-124 91.3-284.8 42.3-400-5.3-12.4-17.5-20.6-31.2-20.8l-10.6-0.1c-67.5 0-130.4 12.8-187.4 38.1-40.5-74.1-85.4-128.3-136.4-165.1-1.4-1.4-3-2.6-4.7-3.7-9.8-6.3-22.2-7.2-32.8-2.7-3.4 1.4-6.5 3.4-9.2 5.7-50.9 36.4-97 91.4-137.4 164-55.9-24.2-117.4-36.4-183.1-36.4l-10.4 0.1c-13.7 0.3-25.9 8.4-31.2 20.8-49 115.2-32 275.9 42.3 400 64 106.8 163.3 173.4 280.1 188.1 3.2 1 6.6 1.5 10.1 1.5h22.4v235.9c0 20.3 15.6 41.5 41.5 41.5s41.5-21.8 41.5-41.5V746.6h4.1c3.5 0 6.9-0.5 10.2-1.4 116.6-14.8 215.9-81.4 279.9-188.2zM573 691c-2.6 0.7-5.3 1.1-8.1 1.1h-87.6c-2.8 0-5.5-0.4-8.1-1.1-93.5-11.5-172.9-63.3-224.1-146.3-59.4-96.5-97.1-238-71.3-324.6 3-10.1 14-16 25-16.2l8.3-0.1c52.6 0 139.3 23 184 41.8 32.3-56.5 69.2-99.3 109.9-127.6 2.2-1.8 4.6-3.3 7.4-4.4 8.5-3.5 18.5-2.8 26.3 2.1 1.4 0.8 2.6 1.8 3.8 2.8 40.8 28.6 76.7 70.8 109.2 128.4 45.6-19.7 118.4-46.2 172.4-46.2l8.5 0.1c10.9 0.2 20.7 6.6 24.9 16.2 39.2 89.6 3.1 231.1-56.4 327.6-51.3 83.1-130.7 135-224.1 146.4z m-441.6 44.2c-19 0.2-34.3 16.2-34.2 35.9 0.1 19.5 15.6 35.3 34.6 35.3h0.2c3 0 148.3 1 238.1 104.7C377 919 386.5 923 396 923c8.2 0 16.4-3 23-9.1 14.2-13.1 15.5-35.6 2.8-50.3C310.2 735 138.6 734.8 131.4 735.2z m761-0.2c-6.6-0.3-174.7-0.4-290.2 128.1-13 14.4-12.1 36.9 1.9 50.3 6.7 6.4 15.1 9.5 23.5 9.5 9.3 0 18.5-3.8 25.3-11.4 93.7-104.3 236-105.3 238.9-105.3h0.3c18.9 0 34.3-15.7 34.5-35.3 0.2-19.6-15.1-35.7-34.2-35.9z" p-id="8194"></path></svg>