<?xml version="1.0" standalone="no"?><!DOCTYPE svg PUBLIC "-//W3C//DTD SVG 1.1//EN" "http://www.w3.org/Graphics/SVG/1.1/DTD/svg11.dtd"><svg t="1570780314638" class="icon" viewBox="0 0 1024 1024" version="1.1" xmlns="http://www.w3.org/2000/svg" p-id="5753" xmlns:xlink="http://www.w3.org/1999/xlink" width="300" height="300"><defs><style type="text/css"></style></defs><path d="M928.98962 311.817728c0-31.999203-183.695427-78.398048-183.695427-78.398048s27.899306-142.896443-12.999677-158.896045S565.898658 159.021532 565.898658 159.021532 506.000149 37.324561 479.800802 55.924098c-40.898982 31.899206-82.897936 30.799233-96.297603 83.197929-57.798561 209.29479-26.599338 330.891763 113.897164 399.390058 19.799507 9.699759 40.298997 15.399617 58.398547 18.599537 142.99644 34.599139 309.492296-39.899007 382.390481-186.39536 23.29942-47.79881-9.199771-10.999726-9.199771-58.898534z" p-id="5754"></path><path d="M84.010654 768.006372c-20.399492 0-33.999154 13.999652-33.999154 35.099127s13.599661 35.099126 33.999154 35.099126c0 0 153.196187 6.999826 282.592965 133.296682 6.799831 6.999826 13.599661 10.499739 23.799408 10.499738 10.199746 0 16.999577-3.499913 23.799407-10.499738 13.599661-13.999652 13.599661-35.099126 0-49.098778C264.506161 775.006198 90.810484 768.006372 84.010654 768.006372z m420.689528-54.198651c158.996042 39.799009 340.991512-57.998556 421.589505-247.393841 26.299345-63.098429 42.698937-129.796769 42.698937-192.895199 0-42.098952-157.696075-56.098604-157.696074-56.098603S785.1932 49.124267 739.194345 28.024792C693.19549 7.025315 551.999004 91.123222 551.999004 91.123222S440.301785-21.073985 410.702522 3.525402c-45.998855 42.098952-82.097956 94.697643-108.397302 157.796072-88.697792 203.394937-29.599263 434.789177 128.096811 525.986907 2.299943 1.499963 3.9999 2.499938 6.099848 3.899903-2.899928 80.797989 8.099798 204.794902 91.99771 318.792064 6.799831 10.499739 16.999577 13.999652 27.199323 13.999652 6.799831 0 13.599661-3.499913 20.399492-6.999826 13.599661-10.499739 16.999577-35.099126 6.799831-49.098778-63.998407-90.39775-77.898061-184.195415-78.198053-254.093675z m-146.496354-490.987778c20.399492-48.1988 48.498793-88.297802 84.297902-120.397003 22.999427-18.699535 109.797267 66.898335 109.797267 66.898335S662.196261 105.022876 697.99537 121.122475c35.799109 16.099599 56.198601 144.496403 56.198601 144.496403s122.596948 10.699734 122.596948 42.798935c0 48.1988-12.799681 98.997536-33.199173 147.196336C779.693336 602.810484 632.497001 671.008787 509.000075 646.009409c-21.69946-4.39989-31.499216-8.999776-51.098728-21.69946-122.696946-69.598268-168.595803-246.293869-99.697519-401.490006zM936.989421 768.006372c-6.799831 0-180.395509 6.999826-326.791865 154.29616-13.599661 13.999652-13.599661 35.099126 0 49.098777 6.799831 6.999826 16.999577 10.499739 23.799407 10.499739 6.799831 0 16.999577-3.499913 23.799408-10.499739C787.293147 845.104453 936.989421 838.104627 940.389336 838.104627c20.399492 0 33.999154-17.499564 33.999154-35.099126-3.299918-20.999477-20.299495-34.999129-37.399069-34.999129z" p-id="5755"></path></svg>