<?xml version="1.0" standalone="no"?><!DOCTYPE svg PUBLIC "-//W3C//DTD SVG 1.1//EN" "http://www.w3.org/Graphics/SVG/1.1/DTD/svg11.dtd"><svg t="1578904432592" class="icon" viewBox="0 0 1024 1024" version="1.1" xmlns="http://www.w3.org/2000/svg" p-id="3039" xmlns:xlink="http://www.w3.org/1999/xlink" width="20" height="20"><defs><style type="text/css"></style></defs><path d="M725.5 955.5h-0.8l-5.3-0.1c-56-2.8-119.1-28.4-187.6-75.9-64.7-44.9-132.4-109-195.8-185.2l-46.2-55.5c-63.4-76.3-113.7-154.2-145.4-225.3-33.7-75.6-46.3-141.5-37.6-196 6.5-40.5 35.7-80.1 82.3-111.4 39.4-26.5 86.2-43 122-43 34.2 0 61.7 15.6 74 42 32.2 57.5 76.7 164.1 76.9 209.8v9.3l-3.3 8.5c-11.7 30.9-36.8 44.9-53.3 54.2-2.7 1.5-8.3 4.7-11.4 6.9 4.1 9.8 20 40.2 78.2 111.6l35 42.1c61.1 71.8 87.5 91.4 94.9 96 2.8-2.1 8.1-7.9 10.2-10.2 12.7-13.9 31.9-34.8 64.9-39.6l9-1.3 8.7 1.8c45.1 9.5 143.3 74.2 194.8 117.2 10.8 7.8 19.2 19.2 23.9 32.4 6.1 17.5 5.7 37.4-1.3 59.2-10.3 32.4-35.8 69.3-68.2 98.7-38.1 34.7-80.3 53.8-118.6 53.8z m-3-71.1l3.3 0.1c20.3-0.1 46-13 70.5-35.3 22.8-20.8 41.8-47.3 48.3-67.7 2.4-7.7 2.3-11.8 2-13.4l-1.4-1.2c-53.4-44.8-132.6-93.1-161.2-102.1-6 2.2-11.4 7.7-19.4 16.5-14 15.3-35.1 38.3-74.7 32.8-13-1.8-27.4-9.8-46.7-26.1-23.3-19.6-53.6-51.4-90.3-94.5l-0.3-0.3-35.5-42.7c-36.5-44.8-62.8-81.1-78.1-107.9-12.7-22.3-18-38.1-17.2-51.4 2.6-40.2 29.2-55.2 48.6-66.1 10.6-6 16.8-9.8 20-14.4-3.6-29.4-35.6-114.4-68.2-172.1l-1-1.7-0.5-1.1c-0.8-0.4-3.6-1.6-9.9-1.6-18.1 0-50.6 9.6-82.4 30.9-29.2 19.6-48.6 43.4-51.8 63.7-13.5 84.4 50.7 224.2 167.5 364.7l46.2 55.5c117.2 140.4 244.3 230.6 332.2 235.4z" p-id="3040"></path><path d="M814.2 432.3c-14.2 5.6-30.3 2.3-41.2-8.4l-88.7-88.6-88.7 88.7c-9.8 9.8-24 13.7-37.4 10.1s-23.8-14-27.4-27.4c-3.6-13.4 0.3-27.7 10.1-37.4l88.7-88.6-88.6-88.5c-15.1-15.1-15.1-39.6 0-54.6 15.1-15.1 39.6-15.1 54.6 0l88.7 88.6 88.7-88.6c15.2-14.6 39.3-14.5 54.3 0.5 15 14.9 15.1 39 0.5 54.2L739 280.7l88.7 88.6c9.1 9.3 12.9 22.5 10.2 35.2-2.7 12.7-11.6 23.1-23.7 27.8" p-id="3041"></path></svg>
