<?xml version="1.0" standalone="no"?><!DOCTYPE svg PUBLIC "-//W3C//DTD SVG 1.1//EN" "http://www.w3.org/Graphics/SVG/1.1/DTD/svg11.dtd"><svg t="1567057718773" class="icon" viewBox="0 0 1024 1024" version="1.1" xmlns="http://www.w3.org/2000/svg" p-id="23746" xmlns:xlink="http://www.w3.org/1999/xlink" width="100" height="100"><defs><style type="text/css"></style></defs><path d="M485.299085 651.699037h-138.598365a39.50079 39.50079 0 1 0 0 79.00158h138.598365v138.598366a39.50079 39.50079 0 1 0 79.00158 0v-138.598366h138.598366a39.50079 39.50079 0 1 0 0-79.00158h-138.598366v-138.598365a39.50079 39.50079 0 1 0-79.00158 0v138.598365z m209.561548-431.155092V44.825589H324.275125v175.718356c0 17.407996-13.823997 31.513592-30.899192 31.513592a31.206392 31.206392 0 0 1-30.873592-31.487992V22.399994c0-12.390397 13.823997-22.425594 30.873592-22.425594h432.383892c17.023996 0 30.873592 10.035197 30.873592 22.399994v198.143951c0 17.407996-13.823997 31.513592-30.899192 31.513592a31.206392 31.206392 0 0 1-30.873592-31.487992zM55.987192 299.315125h912.025372c16.767996 0 30.387192 13.516797 30.387193 30.207993V993.791752c0 16.639996-13.619197 30.182392-30.412793 30.182392H56.012792A30.310392 30.310392 0 0 1 25.6 993.791752V329.548718c0-16.691196 13.619197-30.207992 30.412792-30.207993z" p-id="23747"></path></svg>