<?xml version="1.0" standalone="no"?><!DOCTYPE svg PUBLIC "-//W3C//DTD SVG 1.1//EN" "http://www.w3.org/Graphics/SVG/1.1/DTD/svg11.dtd"><svg t="1572232481255" class="icon" viewBox="0 0 1024 1024" version="1.1" xmlns="http://www.w3.org/2000/svg" p-id="11111" xmlns:xlink="http://www.w3.org/1999/xlink" width="20" height="20"><defs><style type="text/css"></style></defs><path d="M512 177.2l284.4 166.7v336.3L512 846.8 227.5 680.2V343.8L512 177.2m0-120.3c-12.7 0-25.5 3.3-36.8 10l-332 194.5c-18.2 10.7-29.4 30.3-29.4 51.5V711c0 21.2 11.2 40.9 29.4 51.5l332 194.5c11.4 6.7 24.1 10 36.8 10 12.7 0 25.5-3.3 36.8-10l332-194.5c18.2-10.7 29.4-30.3 29.4-51.5V312.9c0-21.2-11.2-40.9-29.4-51.5l-332-194.5c-11.3-6.7-24.1-10-36.8-10z" p-id="11112"></path><path d="M512 303.4l170.6 102v213.2L512 720.6l-170.6-102V405.4l170.6-102" opacity=".6" p-id="11113"></path></svg>