<?xml version="1.0" standalone="no"?><!DOCTYPE svg PUBLIC "-//W3C//DTD SVG 1.1//EN" "http://www.w3.org/Graphics/SVG/1.1/DTD/svg11.dtd"><svg t="1567057818404" class="icon" viewBox="0 0 1024 1024" version="1.1" xmlns="http://www.w3.org/2000/svg" p-id="24506" xmlns:xlink="http://www.w3.org/1999/xlink" width="100" height="100"><defs><style type="text/css"></style></defs><path d="M717.443025 898.573908c-24.644493-24.658943-24.644493-64.425372-0.108375-89.06264 152.173061-152.129711 152.324787-399.578918 0-551.708629-24.536118-24.658943-24.536118-64.425372 0.108375-89.01929 24.630043-24.666168 64.468722-24.666168 89.012065 0 201.165822 201.216397 201.165822 528.682537 0 729.79056C781.861173 923.167826 742.073069 923.167826 717.443025 898.573908L717.443025 898.573908z" p-id="24507"></path><path d="M582.031976 758.798956c-23.394567-23.336767-23.394567-61.33307 0-84.705962 77.531532-77.415932 77.531532-203.470599 0-280.908206-23.394567-23.336767-23.394567-61.33307 0-84.677062 23.437917-23.358442 61.296945-23.358442 84.698737 0 124.046116 124.103916 124.046116 326.165639 0 450.29123C643.328921 782.150173 605.469893 782.150173 582.031976 758.798956L582.031976 758.798956z" p-id="24508"></path><path d="M73.637254 533.588316 475.947224 211.61318 475.947224 855.736852Z" p-id="24509"></path><path d="M72.250053 362.26899l282.793932 0 0 342.754251-282.793932 0 0-342.754251Z" p-id="24510"></path></svg>