<?xml version="1.0" standalone="no"?><!DOCTYPE svg PUBLIC "-//W3C//DTD SVG 1.1//EN" "http://www.w3.org/Graphics/SVG/1.1/DTD/svg11.dtd"><svg t="1563265340785" class="icon" viewBox="0 0 1024 1024" version="1.1" xmlns="http://www.w3.org/2000/svg" p-id="3078" xmlns:xlink="http://www.w3.org/1999/xlink" width="40" height="40"><defs><style type="text/css"></style></defs><path d="M661.477918 396.346957c-16.196891-15.562441-30.735002-29.65439-43.679825-42.24515l-33.526581-31.432896c-8.835226-8.402367-14.110369-13.497409-15.889899-15.276938-16.440437-15.594163-34.999119-22.903639-55.579853-22.027689-20.582781 0.906649-38.220487 8.247848-52.913117 22.027689-2.361791 2.403746-8.096399 7.936763-17.206894 16.621563-9.124821 8.6848-20.445658 19.34151-33.970696 31.901571-13.528108 12.56006-28.526707 26.495444-44.998867 41.773406-16.471137 15.280008-32.92897 30.715559-49.399083 46.275953-39.402405 36.555567-83.219353 77.301574-131.453914 122.231879l0 348.380502c0 14.373359 5.000897 25.495674 14.999622 33.246195 10.000771 7.809873 23.526833 11.68411 40.582277 11.68411L412.252717 959.50715c-0.122797-1.87572-0.198521-3.750417-0.198521-5.685489L412.054195 800.595884c0-48.493457 38.540781-87.736227 86.100984-87.736227l31.885198 0c47.574528 0 86.130659 39.243793 86.130659 87.736227l0 153.2268c0 1.935072-0.092098 3.809769-0.212848 5.685489l173.856653 0c16.474206-0.562818 29.569456-5.999644 39.263236-16.182564 9.723455-10.184967 14.569834-21.810748 14.569834-34.995025L843.647911 568.006572c-48.834218-46.180785-92.941785-87.796602-132.326794-124.918058C694.267718 427.497421 677.643086 411.906328 661.477918 396.346957L661.477918 396.346957zM956.558493 477.209636c-0.582261-14.375405-7.055696-27.559683-19.418258-39.527249l-22.052249-22.462594c-11.166317-11.377118-24.968671-24.996301-41.440831-40.869826-16.471137-15.872502-34.568307-33.714869-54.263881-53.494355-19.691481-19.744693-39.842427-39.679721-60.425208-59.738569-20.581758-20.059871-40.889269-39.993876-60.886719-59.770292-20.002566-19.779486-38.065967-37.589107-54.261834-53.462632-16.166191-15.871479-29.846772-29.368888-41.012066-40.429805-11.165294-11.091616-18.525935-18.121729-22.054295-21.12104-18.22099-17.996886-40.274262-26.809599-66.162886-26.499537-25.873274 0.282433-49.997718 11.500938-72.344678 33.68417-2.944052 2.99931-13.387915 13.028735-31.317263 30.118971-17.943674 17.059538-39.400359 37.556361-64.399729 61.552891-24.99937 23.934109-52.05354 49.709145-81.161485 77.269851-29.126364 27.526937-56.317657 53.333696-81.608669 77.267804-25.289989 23.964808-47.052642 44.620243-65.288982 61.990866-18.235316 17.373693-29.108968 27.871791-32.636305 31.466666-9.416464 8.998955-14.416338 21.122063-15.000646 36.397978-0.582261 15.246239 4.999874 28.309766 16.763802 39.118949 10.582009 9.56382 23.236214 14.059204 37.928844 13.43601 14.70798-0.561795 26.471908-4.499477 35.290761-11.685133 2.944052-2.375094 11.623735-10.311857 26.02677-23.809265 14.415314-13.46364 31.607882-29.80891 51.607378-48.961108 19.998473-19.152199 41.763173-39.838334 65.288982-62.021565 23.526833-22.152533 45.871747-43.428092 67.051115-63.804165 21.167089-20.339234 39.84652-38.180578 56.010665-53.426817 16.180518-15.310707 27.208689-25.623587 33.097816-30.994921 17.637706-16.183588 35.58138-24.592095 53.80237-25.182542 18.250666-0.626263 36.775578 7.77815 55.579853 25.182542 4.110621 3.561106 13.8351 12.874215 29.108968 27.809369 15.307637 14.997576 33.525558 32.68133 54.692646 53.05331 21.194718 20.369933 43.678802 42.055838 67.512626 65.145719 23.803125 23.059182 46.163389 44.617174 67.053162 64.707744 20.856004 20.060895 38.801724 37.276998 53.801347 51.67901 14.998599 14.375405 23.954575 22.747073 26.89965 25.122167 8.834202 7.80885 20.581758 11.998265 35.275411 12.622482 14.72333 0.561795 27.666106-4.247744 38.833447-14.435781C952.448896 503.579213 957.141778 491.580948 956.558493 477.209636L956.558493 477.209636z" p-id="3079"></path></svg>