<?xml version="1.0" standalone="no"?><!DOCTYPE svg PUBLIC "-//W3C//DTD SVG 1.1//EN" "http://www.w3.org/Graphics/SVG/1.1/DTD/svg11.dtd"><svg t="1563787973583" class="icon" viewBox="0 0 1024 1024" version="1.1" xmlns="http://www.w3.org/2000/svg" p-id="1836" xmlns:xlink="http://www.w3.org/1999/xlink" width="40" height="40"><defs><style type="text/css"></style></defs><path d="M1024.042667 409.870222C1024.042667 183.495111 826.453333 0 582.656 0c-139.662222 0-264.007111 60.401778-344.874667 154.481778a511.004444 511.004444 0 0 1 203.648-41.998222c267.932444 0 485.930667 203.832889 485.930667 454.385777 0 92.956444-30.051556 179.427556-81.479111 251.505778 88.206222 35.413333 178.176 48.654222 178.176 48.654222-49.493333-51.299556-66.944-156.657778-73.002667-231.466666 46.065778-64.696889 72.988444-142.279111 72.988445-225.692445z" p-id="1837"></path><path d="M445.269333 155.818667C201.486222 155.818667 0.042667 340.508444 0.042667 566.869333c0 83.413333 26.922667 160.952889 73.002666 225.678223C66.986667 867.370667 49.564444 972.728889 0.042667 1024c0 0 151.324444-21.944889 253.838222-86.115556 56.917333 24.860444 124.316444 41.585778 191.388444 41.585778 243.783111 0 437.560889-186.254222 437.560889-412.600889-0.014222-226.360889-193.792-411.050667-437.560889-411.050666zM224.042667 618.666667a53.333333 53.333333 0 1 1 0-106.666667 53.333333 53.333333 0 0 1 0 106.666667z m213.333333 0a53.333333 53.333333 0 1 1 0-106.666667 53.333333 53.333333 0 0 1 0 106.666667z m213.333333 0a53.333333 53.333333 0 1 1 0.014223-106.680889 53.333333 53.333333 0 0 1-0.014223 106.680889z" p-id="1838"></path></svg>