<?xml version="1.0" standalone="no"?><!DOCTYPE svg PUBLIC "-//W3C//DTD SVG 1.1//EN" "http://www.w3.org/Graphics/SVG/1.1/DTD/svg11.dtd"><svg t="1562571052371" class="icon" viewBox="0 0 1024 1024" version="1.1" xmlns="http://www.w3.org/2000/svg" p-id="16410" xmlns:xlink="http://www.w3.org/1999/xlink" width="40" height="40"><defs><style type="text/css"></style></defs><path d="M400.010936 651.536373h93.09091v93.090909H400.010936zM469.804121 511.950005h93.090909v93.090909h-93.090909zM330.217752 511.950005h93.090909v93.090909h-93.090909zM516.29958 0L330.217752 186.181818h372.263646zM609.390489 511.950005h93.090909v93.090909h-93.090909zM539.597305 651.536373h93.090909v93.090909h-93.090909zM190.531393 511.950005h93.09091v93.090909h-93.09091zM749.076848 511.950005h93.090909v93.090909h-93.090909z" p-id="16411"></path><path d="M888.663216 372.363636H144.035934c-51.195 0-93.090909 41.895909-93.090909 93.090909V930.909091c0 51.195 41.895909 93.090909 93.090909 93.090909h744.627282c51.195 0 93.090909-41.895909 93.09091-93.090909V465.454545c0-51.195-41.895909-93.090909-93.09091-93.090909z m46.49546 558.445465c0 25.5975-20.897959 46.495459-46.59545 46.495459H144.035934c-25.5975 0-46.495459-20.897959-46.495459-46.495459V465.454545c0-25.5975 20.897959-46.495459 46.495459-46.495459h744.627282c25.5975 0 46.59545 20.897959 46.59545 46.495459v465.354556z" p-id="16412"></path><path d="M679.183673 651.536373h93.09091v93.090909h-93.09091zM306.920027 791.222732h418.859096v93.090909H306.920027zM260.324578 651.536373h93.090909v93.090909h-93.090909z" p-id="16413"></path></svg>