<?xml version="1.0" standalone="no"?><!DOCTYPE svg PUBLIC "-//W3C//DTD SVG 1.1//EN" "http://www.w3.org/Graphics/SVG/1.1/DTD/svg11.dtd"><svg t="1562571093688" class="icon" viewBox="0 0 1031 1024" version="1.1" xmlns="http://www.w3.org/2000/svg" p-id="20746" xmlns:xlink="http://www.w3.org/1999/xlink" width="40.2734375" height="40"><defs><style type="text/css"></style></defs><path d="M483.073446 309.51412401l-102.689265-1e-8-1e-8 102.689266 102.68926501 0 0-102.68926599z m-26.033898 257.44632799l102.689266 0 0-102.689266-102.689266 0 0 102.689266zM637.830508 309.514124l-102.689265 1e-8 0 102.68926599 102.689265 0 0-102.689266z m-26.033898 257.44632801l102.689266-1e-8 0-102.689266-102.689266 0 0 102.68926601z m-309.514124-1e-8l102.689265 0 0-102.689266-102.689265 0 0 102.689266zM740.519774 154.757062l-464.271186 0L276.248588 257.446328 740.519774 257.446328l0-102.689266z m26.033898 412.20339l102.689266 1e-8 0-102.68926601-102.689266 0 0 102.689266z m-438.237288-257.446328l-102.689265 0 0 102.689266 102.689265 0 0-102.689266z m-78.101695 154.757062l-102.689265 0 0 102.68926601 102.689265-1e-8 0-102.689266z m-154.757062 257.446328l824.40678 0c57.853107 0 104.135593-46.282486 104.135593-102.689265l0-516.338983c0-56.40678-46.282486-102.68926599-102.689266-102.689266l-824.406779 0c-56.40678 0-102.68926599 46.282486-102.689266 102.689266L-5.785311 619.028249c-1.446328 56.40678 44.836158 102.689266 101.242938 102.689265z m-50.621469-617.581921c0-28.926554 23.141243-52.067797 52.067797-52.067796l824.406779 0c28.926554 0 52.067797 23.141243 52.067797 52.067796L973.378531 619.028249c0 28.926554-23.141243 52.067797-52.06779701 52.067796l-824.40677899 0c-28.926554 0-52.067797-23.141243-52.067797-52.067796l0-514.892656zM688.451977 413.64971801L792.587571 413.64971801l0-102.68926601-102.689266 0 0 102.689266z m0 0M507.661017 1024L714.48587599 817.175141l-412.20338999 0z" p-id="20747"></path></svg>