<?xml version="1.0" standalone="no"?><!DOCTYPE svg PUBLIC "-//W3C//DTD SVG 1.1//EN" "http://www.w3.org/Graphics/SVG/1.1/DTD/svg11.dtd"><svg t="1565948178915" class="icon" viewBox="0 0 1024 1024" version="1.1" xmlns="http://www.w3.org/2000/svg" p-id="2132" xmlns:xlink="http://www.w3.org/1999/xlink" width="100" height="100"><defs><style type="text/css"></style></defs><path d="M885.888 533.696a128.672 128.672 0 0 0 26.112-77.696c0-44.896-25.088-87.392-65.504-111.104a67.68 67.68 0 0 0-34.304-9.28h-239.808l6.016-122.912a107.04 107.04 0 0 0-29.504-79.392 106.624 106.624 0 0 0-77.888-33.408 116.256 116.256 0 0 0-111.808 85.12L273.312 496H144c-17.696 0-32 14.304-32 32v364c0 17.696 14.304 32 32 32h601.28c9.216 0 18.24-1.792 26.528-5.408a128.576 128.576 0 0 0 72.896-155.392 128.672 128.672 0 0 0 20.704-114.688 128.672 128.672 0 0 0 26.08-77.696 136.608 136.608 0 0 0-5.6-37.12zM184 852V568h80.992v284H184z m636.384-352.992l-21.888 19.008 13.888 25.376a57.088 57.088 0 0 1-12.704 70.304l-21.888 19.008 13.92 25.408a57.088 57.088 0 0 1-12.704 70.304l-21.92 18.976 13.92 25.408a56.864 56.864 0 0 1-26.688 79.104H328.96V564.8l99.52-360.512a44.096 44.096 0 0 1 42.176-32.288 35.52 35.52 0 0 1 35.712 37.184l-9.6 198.4h314.4c17.792 10.912 28.8 29.312 28.8 48.416a57.28 57.28 0 0 1-19.616 43.008z" p-id="2133"></path></svg>