<?xml version="1.0" standalone="no"?><!DOCTYPE svg PUBLIC "-//W3C//DTD SVG 1.1//EN" "http://www.w3.org/Graphics/SVG/1.1/DTD/svg11.dtd"><svg t="1563334234245" class="icon" viewBox="0 0 1024 1024" version="1.1" xmlns="http://www.w3.org/2000/svg" p-id="3391" xmlns:xlink="http://www.w3.org/1999/xlink" width="40" height="40"><defs><style type="text/css"></style></defs><path d="M192 981.333333c-17.066667 0-34.133333-4.266667-46.933333-17.066666s-17.066667-25.6-17.066667-42.666667V473.6c0-17.066667 4.266667-29.866667 17.066667-42.666667s25.6-17.066667 46.933333-17.066666h640c17.066667 0 34.133333 4.266667 46.933333 17.066666s17.066667 25.6 17.066667 42.666667v448c0 17.066667-4.266667 29.866667-17.066667 42.666667s-29.866667 17.066667-46.933333 17.066666h-640z m226.133333-328.533333c0 17.066667 4.266667 29.866667 12.8 46.933333s21.333333 25.6 34.133334 34.133334v85.333333c0 12.8 4.266667 25.6 12.8 34.133333s21.333333 12.8 34.133333 12.8 25.6-4.266667 34.133333-12.8 12.8-21.333333 12.8-34.133333v-85.333333c12.8-8.533333 25.6-17.066667 34.133334-34.133334s12.8-29.866667 12.8-46.933333c0-25.6-8.533333-46.933333-29.866667-64s-42.666667-25.6-68.266667-25.6-51.2 8.533333-68.266666 25.6-21.333333 38.4-21.333334 64z m-98.133333-298.666667H221.866667c0-38.4 8.533333-72.533333 21.333333-106.666666s34.133333-59.733333 59.733333-85.333334 55.466667-42.666667 93.866667-55.466666c38.4-12.8 76.8-21.333333 115.2-21.333334s76.8 8.533333 110.933333 21.333334 64 34.133333 93.866667 55.466666 46.933333 51.2 59.733333 85.333334c17.066667 34.133333 21.333333 68.266667 21.333334 106.666666h-93.866667c0-51.2-17.066667-89.6-55.466667-128-38.4-34.133333-81.066667-51.2-136.533333-51.2-55.466667 0-98.133333 17.066667-136.533333 51.2s-55.466667 76.8-55.466667 128z" p-id="3392"></path></svg>