<?xml version="1.0" standalone="no"?><!DOCTYPE svg PUBLIC "-//W3C//DTD SVG 1.1//EN" "http://www.w3.org/Graphics/SVG/1.1/DTD/svg11.dtd"><svg t="1565145972173" class="icon" viewBox="0 0 1024 1024" version="1.1" xmlns="http://www.w3.org/2000/svg" p-id="69901" xmlns:xlink="http://www.w3.org/1999/xlink" width="40" height="40"><defs><style type="text/css"></style></defs><path d="M792 289.1c23.2 7.1 47.4 10.7 71.7 10.7 21.5 0 42.8-2.9 63.5-8.5V145.6c-31.5 16.8-68.4 20.3-102.5 9.8-40-12-72.5-18-99-19.9v-12.7c0-13.2-10.7-24-24-24-13.2 0-24 10.7-24 24v189.1L548.9 183c-9.4-9.4-22.1-14.7-35.4-14.7-13.3 0-26 5.3-35.4 14.7L106.6 554.7c-9.1 9.2-9.1 24 0 33.2l6.9 6.9c4.4 4.4 10.4 6.9 16.6 6.9 6.2 0 12.2-2.5 16.6-6.9l58.1-58.1v317.7H191c-17.7 0-32 14.4-32 32.1 0 17.7 14.3 32.1 32 32.1h645.2c17.7 0 32.1-14.4 32.1-32.1 0-17.7-14.4-32.1-32.1-32.1h-13.7V536.7l57.9 58c4.4 4.4 10.4 6.9 16.6 6.9 6.2 0 12.2-2.5 16.6-6.9l6.9-6.9c4.4-4.4 6.9-10.4 6.9-16.6 0-6.2-2.5-12.2-6.9-16.6L725.7 359.9v-85.5c15.1 1.7 36.5 5.8 66.3 14.7zM599.5 854.3h-172V672h172v182.3z m0 0" p-id="69902"></path></svg>