<?xml version="1.0" standalone="no"?><!DOCTYPE svg PUBLIC "-//W3C//DTD SVG 1.1//EN" "http://www.w3.org/Graphics/SVG/1.1/DTD/svg11.dtd"><svg t="1602231820881" class="icon" viewBox="0 0 1024 1024" version="1.1" xmlns="http://www.w3.org/2000/svg" p-id="3301" xmlns:xlink="http://www.w3.org/1999/xlink" width="400" height="400"><defs><style type="text/css"></style></defs><path d="M516.096 220.16c44.032 0 79.36 35.84 79.36 79.36a79.104 79.104 0 0 1-79.36 79.36 79.104 79.104 0 0 1-79.36-79.36c0-43.52 35.328-79.36 79.36-79.36zM187.904 613.376v134.144H151.04v-114.688h-7.68v114.688H105.472V514.56H99.84v75.264H66.56v-102.912c0-17.92 14.848-32.768 32.768-32.768H174.08a68.245333 68.245333 0 0 0-1.536 14.336v144.896h15.36z m-40.448-271.36a52.650667 52.650667 0 0 1 52.736 52.736c0 11.776-4.096 22.528-10.24 31.232a50.986667 50.986667 0 0 0-5.12 5.632 51.776 51.776 0 0 1-37.376 15.36A52.650667 52.650667 0 0 1 94.72 394.24c0-28.672 23.552-52.224 52.736-52.224z m687.616 271.36v134.144h36.864v-114.688h7.68v114.688h37.888V514.56h5.632v75.264h33.28v-102.912c0-17.92-14.848-32.768-32.768-32.768h-74.752c1.024 4.608 1.536 9.728 1.536 14.336v144.896h-15.36z m40.448-271.36a52.650667 52.650667 0 0 0-52.736 52.736c0 11.776 4.096 22.528 10.24 31.232 2.048 2.048 3.584 3.584 5.12 5.632 9.728 9.728 22.528 15.36 37.376 15.36a52.650667 52.650667 0 0 0 52.736-52.736c0-28.672-23.552-52.224-52.736-52.224zM662.016 630.272v166.912h46.08v-142.848h9.728v142.848h47.104V506.88h7.168v94.208h41.984v-128c0-22.528-18.432-40.96-40.96-40.96h-93.184c1.536 5.632 2.048 11.776 2.048 17.92v180.736h-19.968v-0.512z m-76.288-36.352v-113.664h-8.704v352.256h-55.808v-173.056h-11.776v173.056h-56.832V480.256h-8.704v113.664h-50.688v-155.136a49.706667 49.706667 0 0 1 49.664-49.664h144.384a49.706667 49.706667 0 0 1 49.664 49.664v155.136h-51.2z m-221.696 36.352v166.912h-46.08v-142.848h-9.728v142.848H261.12V506.88h-7.168v94.208H211.968v-128c0-22.528 18.432-40.96 40.96-40.96h93.184a68.736 68.736 0 0 0-2.048 17.92v180.736h19.968v-0.512zM313.856 291.84a65.344 65.344 0 0 1 65.536 65.536c0 14.848-4.608 28.16-12.8 38.912-2.048 2.048-4.096 4.608-6.144 7.168a65.002667 65.002667 0 0 1-46.08 18.944 65.344 65.344 0 0 1-65.536-65.536c-1.024-35.328 28.672-65.024 65.024-65.024z m398.848 0a65.344 65.344 0 0 0-65.536 65.536c0 14.848 4.608 28.16 12.8 38.912 2.048 2.048 4.096 4.608 6.144 7.168 11.776 11.776 28.16 18.944 46.08 18.944a65.344 65.344 0 0 0 65.536-65.536c0.512-35.328-28.672-65.024-65.024-65.024z" p-id="3302"></path></svg>