<?xml version="1.0" standalone="no"?><!DOCTYPE svg PUBLIC "-//W3C//DTD SVG 1.1//EN" "http://www.w3.org/Graphics/SVG/1.1/DTD/svg11.dtd"><svg t="1570700498688" class="icon" viewBox="0 0 1024 1024" version="1.1" xmlns="http://www.w3.org/2000/svg" p-id="6822" xmlns:xlink="http://www.w3.org/1999/xlink" width="300" height="300"><defs><style type="text/css"></style></defs><path d="M512 512m-512 0a512 512 0 1 0 1024 0 512 512 0 1 0-1024 0Z" fill="#FFFFFF" p-id="6823"></path><path d="M756.363636 512l34.909091 46.545455h-46.545454v139.636363h46.545454v46.545455H232.727273v-46.545455h46.545454V325.818182l147.781818-126.650182a23.272727 23.272727 0 0 1 30.254546 0L605.090909 325.818182v372.363636h93.090909v-139.636363h-46.545454l34.909091-46.545455H651.636364l69.818181-93.090909 69.818182 93.090909h-34.909091zM512 977.454545c257.070545 0 465.454545-208.384 465.454545-465.454545S769.070545 46.545455 512 46.545455 46.545455 254.929455 46.545455 512s208.384 465.454545 465.454545 465.454545z m0 46.545455C229.236364 1024 0 794.763636 0 512S229.236364 0 512 0s512 229.236364 512 512-229.236364 512-512 512zM372.363636 325.818182v46.545454h46.545455V325.818182H372.363636z m93.090909 0v46.545454h46.545455V325.818182h-46.545455zM372.363636 418.909091v46.545454h46.545455V418.909091H372.363636z m93.090909 0v46.545454h46.545455V418.909091h-46.545455z m-93.090909 93.090909v46.545455h46.545455v-46.545455H372.363636z m93.090909 0v46.545455h46.545455v-46.545455h-46.545455z m-93.090909 93.090909v46.545455h46.545455v-46.545455H372.363636z m93.090909 0v46.545455h46.545455v-46.545455h-46.545455z" fill="#7A6060" p-id="6824"></path></svg>