<?xml version="1.0" standalone="no"?><!DOCTYPE svg PUBLIC "-//W3C//DTD SVG 1.1//EN" "http://www.w3.org/Graphics/SVG/1.1/DTD/svg11.dtd"><svg t="1565921809426" class="icon" viewBox="0 0 1024 1024" version="1.1" xmlns="http://www.w3.org/2000/svg" p-id="2202" xmlns:xlink="http://www.w3.org/1999/xlink" width="100" height="100"><defs><style type="text/css"></style></defs><path d="M784.35 479.317c-72.619 0-240.128-1.587-240.128-1.587s0.46-178.33 0.46-238.08C544.683 107.298 651.982 0 784.35 0 916.702 0 1024 107.298 1024 239.65c0 132.37-107.298 239.667-239.65 239.667zM239.65 1024C107.298 1024 0 916.702 0 784.35c0-132.37 107.298-239.667 239.65-239.667 72.619 0 240.128 1.587 240.128 1.587s-0.46 178.312-0.46 238.08c0 132.352-107.299 239.65-239.668 239.65zM0 239.65C0 107.298 107.298 0 239.65 0c132.37 0 239.667 107.298 239.667 239.65 0 59.75 0.478 238.08 0.478 238.08s-167.526 1.587-240.128 1.587C107.281 479.317 0 372.02 0 239.65z m1024 544.7C1024 916.702 916.702 1024 784.35 1024c-132.37 0-239.667-107.298-239.667-239.65 0-59.768-0.478-238.08-0.478-238.08s167.526-1.587 240.128-1.587C916.719 544.683 1024 651.98 1024 784.35z m-414.89 1.212c0 14.13 0.033 12.527 0.102 1.792 1.16 90.572 88.2 165.034 178.978 165.034 91.375 0 165.444-74.086 165.444-165.461 0-91.392-74.07-177.715-165.444-177.715-50.125 0-178.279 0.512-178.279 0.512s-0.477 141.414-0.682 177.63c-0.017-0.598-0.12-1.195-0.12-1.792z" p-id="2203"></path></svg>