<?xml version="1.0" standalone="no"?><!DOCTYPE svg PUBLIC "-//W3C//DTD SVG 1.1//EN" "http://www.w3.org/Graphics/SVG/1.1/DTD/svg11.dtd"><svg t="1565942745274" class="icon" viewBox="0 0 1024 1024" version="1.1" xmlns="http://www.w3.org/2000/svg" p-id="26137" xmlns:xlink="http://www.w3.org/1999/xlink" width="100" height="100"><defs><style type="text/css"></style></defs><path d="M512 384.65c-70.2 0-127.35 57.15-127.35 127.35s57.15 127.35 127.35 127.35 127.35-57.15 127.35-127.35c0-70.2-57.15-127.35-127.35-127.35zM125.9 448.1C90.8 448.1 62 476.9 62 512s28.8 63.9 63.9 63.9 63.9-28.8 63.9-63.9c-0.45-35.1-28.8-63.9-63.9-63.9zM898.1 448.1c-35.1 0-63.9 28.8-63.9 63.9s28.8 63.9 63.9 63.9c35.1 0 63.9-28.8 63.9-63.9 0-35.1-28.8-63.9-63.9-63.9z" p-id="26138"></path></svg>