<?xml version="1.0" standalone="no"?><!DOCTYPE svg PUBLIC "-//W3C//DTD SVG 1.1//EN" "http://www.w3.org/Graphics/SVG/1.1/DTD/svg11.dtd"><svg t="1565925191486" class="icon" viewBox="0 0 1024 1024" version="1.1" xmlns="http://www.w3.org/2000/svg" p-id="11321" xmlns:xlink="http://www.w3.org/1999/xlink" width="100" height="100"><defs><style type="text/css"></style></defs><path d="M922.794667 653.056L1024 711.893333 483.498667 1024 0 743.082667l101.205333-58.368 382.165334 222.122666 439.424-253.781333zM475.349333 165.034667l0.725334-0.128 7.466666 7.765333-0.725333 0.128a42.368 42.368 0 0 0-12.885333 4.608c-4.352 2.56-5.333333 5.077333-2.688 6.613333 2.645333 1.578667 6.528 0.981333 15.744-1.536 12.885333-3.2 22.101333-2.944 29.354666 1.28 7.722667 4.48 10.837333 12.8-4.736 21.76a60.074667 60.074667 0 0 1-18.005333 6.741334l-0.725333 0.128-7.936-7.722667 0.938666-0.298667a52.48 52.48 0 0 0 15.829334-5.461333c4.608-2.645333 5.845333-5.333333 2.688-7.168-2.901333-1.664-6.784-1.408-15.018667 0.853333-12.885333 3.797333-23.082667 3.541333-30.08-0.554666-9.386667-5.461333-7.936-13.909333 4.010667-20.778667a55.893333 55.893333 0 0 1 16.042666-6.229333z m0.64 57.898666l-13.397333 7.722667-41.130667-16.298667 27.264 24.277334-13.610666 7.893333-64.597334-23.210667 13.568-7.850666 42.837334 17.28-28.928-25.258667 13.141333-7.594667 42.112 16.853334-28.970667-24.448 13.098667-7.594667 38.613333 38.229333z m-99.242666 9.088l-19.968 11.52 9.429333 5.461334 18.986667-10.922667 10.666666 6.186667-18.986666 10.922666 10.88 6.357334 21.162666-12.202667 10.666667 6.186667-34.090667 19.669333-52.224-30.378667 32.853334-18.944 10.624 6.144z m-0.042667 48.213334l-13.141333 7.594666-54.229334-9.856 35.541334 20.650667-11.946667 6.869333-52.181333-30.336 14.592-8.448 49.408 8.746667-32.170667-18.688 11.904-6.869333 52.224 30.336z m270.421333-93.141334l-324.266666 187.264-26.837334-15.616 324.309334-187.264 26.794666 15.616z m53.888 31.36l-80.981333 46.762667-26.837333-15.573333 81.024-46.805334 26.794666 15.616z m-54.314666 93.525334l-108.288 62.506666-80.512-46.762666 108.288-62.506667 80.512 46.762667z m-188.928 46.933333L376.746667 405.674667l-26.837334-15.616L430.933333 343.296l26.837334 15.616z m296.917333-109.269333L673.706667 296.405333l-26.837334-15.616 81.024-46.762666 26.794667 15.616z m-243.285333 140.416l-81.024 46.805333-26.837334-15.616 81.024-46.762667 26.837334 15.573334z m350.933333-140.416L540.16 62.378667 107.605333 312.106667l322.218667 187.264 432.512-249.728zM1024 280.917333l-540.629333 312.106667L0 312.106667 540.501333 0 1024 280.917333z m-497.962667 386.005334l-42.794666 24.746666-42.709334-24.874666-339.968-197.589334L0 527.232l483.498667 280.917333L1024 496.042667l-100.650667-58.538667-397.312 229.418667z" p-id="11322"></path></svg>