<?xml version="1.0" standalone="no"?><!DOCTYPE svg PUBLIC "-//W3C//DTD SVG 1.1//EN" "http://www.w3.org/Graphics/SVG/1.1/DTD/svg11.dtd"><svg t="1566979096628" class="icon" viewBox="0 0 1024 1024" version="1.1" xmlns="http://www.w3.org/2000/svg" p-id="6734" xmlns:xlink="http://www.w3.org/1999/xlink" width="100" height="100"><defs><style type="text/css"></style></defs><path d="M774.4 403.2h-25.6V294.4C748.8 166.4 652.8 64 512 64S275.2 166.4 275.2 294.4v108.8h-25.6C179.2 403.2 128 448 128 512v332.8c0 64 51.2 115.2 115.2 115.2h531.2c64 0 115.2-51.2 115.2-115.2V512c6.4-64-44.8-108.8-115.2-108.8zM332.8 294.4c0-96 70.4-172.8 172.8-172.8 108.8 0 179.2 76.8 179.2 172.8v108.8H332.8V294.4z m505.6 550.4c0 32-25.6 57.6-57.6 57.6H249.6c-32 0-57.6-25.6-57.6-57.6V512c0-32 25.6-57.6 57.6-57.6h531.2c32 0 57.6 25.6 57.6 57.6v332.8zM512 569.6c-32 0-57.6 25.6-57.6 57.6 0 19.2 12.8 38.4 32 51.2V768c0 12.8 12.8 25.6 32 25.6s32-12.8 32-25.6v-96c19.2-12.8 32-25.6 32-51.2-12.8-25.6-38.4-51.2-70.4-51.2z" p-id="6735"></path></svg>