<?xml version="1.0" standalone="no"?><!DOCTYPE svg PUBLIC "-//W3C//DTD SVG 1.1//EN" "http://www.w3.org/Graphics/SVG/1.1/DTD/svg11.dtd"><svg t="1572924098959" class="icon" viewBox="0 0 1024 1024" version="1.1" xmlns="http://www.w3.org/2000/svg" p-id="3709" xmlns:xlink="http://www.w3.org/1999/xlink" width="20" height="20"><defs><style type="text/css"></style></defs><path d="M512 512m-512 0a512 512 0 1 0 1024 0 512 512 0 1 0-1024 0Z" fill="#F56839" p-id="3710"></path><path d="M743.282759 280.717241c10.593103 10.593103 10.593103 27.365517 0 37.075862L318.675862 742.4c-10.593103 10.593103-27.365517 10.593103-37.075862 0-10.593103-10.593103-10.593103-27.365517 0-37.075862L706.206897 280.717241c9.710345-9.710345 26.482759-9.710345 37.075862 0z" fill="#FFFFFF" p-id="3711"></path><path d="M743.282759 743.282759c-10.593103 10.593103-27.365517 10.593103-37.075862 0L281.6 318.675862c-10.593103-10.593103-10.593103-27.365517 0-37.075862 10.593103-10.593103 27.365517-10.593103 37.075862 0L743.282759 706.206897c9.710345 9.710345 9.710345 26.482759 0 37.075862z" fill="#FFFFFF" p-id="3712"></path></svg>