<?xml version="1.0" standalone="no"?><!DOCTYPE svg PUBLIC "-//W3C//DTD SVG 1.1//EN" "http://www.w3.org/Graphics/SVG/1.1/DTD/svg11.dtd"><svg t="1572924068661" class="icon" viewBox="0 0 1024 1024" version="1.1" xmlns="http://www.w3.org/2000/svg" p-id="2436" xmlns:xlink="http://www.w3.org/1999/xlink" width="20" height="20"><defs><style type="text/css"></style></defs><path d="M0 512c0 282.7648 229.2352 512 512 512s512-229.2352 512-512S794.7648 0 512 0 0 229.2352 0 512z" fill="#52CC90" p-id="2437"></path><path d="M756.992 304.896a46.464 46.464 0 0 1 65.8048 0 46.464 46.464 0 0 1 0 65.792L474.3936 719.104a46.464 46.464 0 0 1-65.792 0L201.2032 511.7056a46.464 46.464 0 0 1 0-65.8048 46.464 46.464 0 0 1 65.792 0l174.5024 174.5024L757.0048 304.896z" fill="#FFFFFF" p-id="2438"></path></svg>