<?xml version="1.0" standalone="no"?><!DOCTYPE svg PUBLIC "-//W3C//DTD SVG 1.1//EN" "http://www.w3.org/Graphics/SVG/1.1/DTD/svg11.dtd"><svg t="1565144383927" class="icon" viewBox="0 0 1026 1024" version="1.1" xmlns="http://www.w3.org/2000/svg" p-id="28839" xmlns:xlink="http://www.w3.org/1999/xlink" width="40.078125" height="40"><defs><style type="text/css"></style></defs><path d="M559.403607 27.087776C548.117034 14.980361 532.521042 8.208417 515.898998 8.208417c-16.416834 0-32.218036 6.771944-43.504609 18.879359-238.044088 255.486974-357.066132 452.899399-357.066132 592.237274 0 221.216834 179.353908 400.570741 400.570741 400.570742 221.216834 0 400.570741-179.353908 400.570741-400.570742 0.20521-139.337876-119.022044-336.750301-357.066132-592.237274zM664.881764 557.761924l-179.353908 254.050501c-1.846894 1.846894-4.104208 2.872946-6.566734 2.872946-1.231263 0-2.257315-0.410421-2.872946-1.026052-4.309419-1.231263-5.951102-3.693788-4.719839-7.387576l28.934669-170.94028h-125.999198c-3.078156 0-5.335471-1.231263-6.566734-3.693788-1.846894-2.462525-1.641683-5.335471 1.026052-8.413627l194.334269-254.050501c2.462525-3.693788 5.335471-4.309419 8.413627-1.846894 3.078156 0.615631 4.71984 3.078156 4.71984 7.387575l-28.93467 170.940281h111.224048c3.078156 0 5.335471 1.231263 6.566734 3.693788 0.410421 2.462525 0.410421 5.335471-0.20521 8.413627z" p-id="28840"></path></svg>