<?xml version="1.0" standalone="no"?><!DOCTYPE svg PUBLIC "-//W3C//DTD SVG 1.1//EN" "http://www.w3.org/Graphics/SVG/1.1/DTD/svg11.dtd"><svg t="1566979059139" class="icon" viewBox="0 0 1024 1024" version="1.1" xmlns="http://www.w3.org/2000/svg" p-id="5985" xmlns:xlink="http://www.w3.org/1999/xlink" width="100" height="100"><defs><style type="text/css"></style></defs><path d="M701.953 63.021H322.715c-57.135 0-103.428 46.325-103.428 103.424v689.492c0 57.099 46.294 103.425 103.428 103.425h379.237c57.135 0 103.429-46.326 103.429-103.426v-689.49c0-57.098-46.294-103.424-103.428-103.425zM477.856 97.496h68.954c9.527 0 17.237 7.71 17.237 17.237 0 9.527-7.71 17.237-17.238 17.237h-68.953c-9.526 0-17.237-7.71-17.237-17.237 0-9.527 7.711-17.237 17.237-17.237z m34.477 819.749c-24.342 0-44.071-19.729-44.071-44.07 0-24.34 19.73-44.07 44.071-44.07 24.342 0 44.072 19.73 44.072 44.07 0 24.342-19.73 44.069-44.072 44.07z m224.093-147.493c0 9.527-7.709 17.236-17.237 17.236H305.477c-9.528 0-17.239-7.709-17.239-17.236V183.683c0-9.527 7.711-17.237 17.239-17.237h413.712c9.528 0 17.237 7.711 17.237 17.237v586.069z" p-id="5986"></path></svg>