<?xml version="1.0" standalone="no"?><!DOCTYPE svg PUBLIC "-//W3C//DTD SVG 1.1//EN" "http://www.w3.org/Graphics/SVG/1.1/DTD/svg11.dtd"><svg t="1562571392858" class="icon" viewBox="0 0 1156 1024" version="1.1" xmlns="http://www.w3.org/2000/svg" p-id="21491" width="45.15625" height="40" xmlns:xlink="http://www.w3.org/1999/xlink"><defs><style type="text/css"></style></defs><path d="M1084.447 8h-1004.163c-36.992 0.074-66.951 30.079-66.951 67.080 0 0.046 0 0.092 0 0.137v873.571c0 0.048 0 0.105 0 0.162 0 36.996 29.963 66.993 66.945 67.048h1004.169c36.988-0.055 66.951-30.053 66.951-67.048 0-0.057 0-0.114 0-0.171v-873.57c0-0.038 0-0.085 0-0.13 0-37.002-29.959-67.006-66.943-67.080zM1084.447 915.2c0 0.029 0 0.063 0 0.097 0 18.486-14.976 33.473-33.458 33.491h-937.247c-18.483-0.019-33.459-15.006-33.459-33.491 0-0.034 0-0.069 0-0.103v-131.36l234.311-243.481c7.308-10.869 19.56-17.925 33.459-17.925s26.151 7.056 33.368 17.782l133.992 134.533 267.771-268.779c7.421-10.699 19.64-17.617 33.476-17.617s26.054 6.918 33.387 17.483l234.399 235.323v274.046zM1084.447 555.052l-208.103-213.11c-70.073-74.592-116.082-2.146-116.082-2.146l-244.782 248.846-114.001-121.806c-52.319-68.284-108.799 7.381-108.799 7.381l-212.331 217.858v-583.275c0-0.029 0-0.063 0-0.097 0-18.492 14.972-33.487 33.456-33.524h937.248c18.487 0.037 33.459 15.032 33.459 33.524 0 0.034 0 0.069 0 0.103v446.213zM247.645 209.6c-0.077 0-0.168-0.001-0.26-0.001-37.12 0-67.211 30.091-67.211 67.211 0 37.12 30.091 67.211 67.211 67.211 37.12 0 67.21-30.091 67.211-67.21 0-0.038 0-0.085 0-0.13 0-37.002-29.959-67.006-66.943-67.080z" p-id="21492"></path></svg>