<?xml version="1.0" standalone="no"?><!DOCTYPE svg PUBLIC "-//W3C//DTD SVG 1.1//EN" "http://www.w3.org/Graphics/SVG/1.1/DTD/svg11.dtd"><svg t="1567415481691" class="icon" viewBox="0 0 1024 1024" version="1.1" xmlns="http://www.w3.org/2000/svg" p-id="2286" xmlns:xlink="http://www.w3.org/1999/xlink" width="100" height="100"><defs><style type="text/css"></style></defs><path d="M451.732 451.732H150.13c-32.887 0-60.004 26.983-60.004 60.268 0 33.517 26.865 60.268 60.004 60.268h301.603V873.87c0 32.887 26.983 60.004 60.268 60.004 33.517 0 60.268-26.865 60.268-60.004V572.268H873.87c32.887 0 60.004-26.983 60.004-60.268 0-33.517-26.865-60.268-60.004-60.268H572.268V150.13c0-32.887-26.983-60.004-60.268-60.004-33.517 0-60.268 26.865-60.268 60.004v301.603z" fill="" p-id="2287"></path></svg>