<?xml version="1.0" standalone="no"?><!DOCTYPE svg PUBLIC "-//W3C//DTD SVG 1.1//EN" "http://www.w3.org/Graphics/SVG/1.1/DTD/svg11.dtd"><svg t="1565143930429" class="icon" viewBox="0 0 1024 1024" version="1.1" xmlns="http://www.w3.org/2000/svg" p-id="21104" xmlns:xlink="http://www.w3.org/1999/xlink" width="40" height="40"><defs><style type="text/css"></style></defs><path d="M466.688 67.328c23.552-15.8208 61.6448-15.872 85.1968 0l385.4848 259.6864c23.552 15.872 23.552 41.472 0 57.344l-385.4848 259.6864c-23.552 15.872-61.5936 15.872-85.1968 0L81.2544 384.4096c-23.552-15.872-23.552-41.5232 0-57.3952l385.4336-259.6864zM81.7664 691.6096c-24.2176-15.872-24.2176-41.5232 0-57.3952l29.3888 42.496c6.7584-4.4544 6.7584-23.1424 0-27.5456l396.1856 259.6352c6.4 4.1984 22.3232 4.1984 28.7232 0l396.1856-259.6352c-6.7584 4.4032-6.7584 23.04 0 27.4944l29.3888-42.4448c24.2176 15.872 24.2176 41.472 0 57.344l-396.1344 259.6864c-24.2176 15.872-63.3856 15.872-87.552 0l-396.1856-259.6352z m16.9984-185.2416c6.7584-4.7616 6.7584-24.7808 0-29.5424l396.1856 278.6304c6.4 4.5568 22.3232 4.5568 28.7232 0l396.1856-278.6304c-6.7584 4.7616-6.7584 24.7808 0 29.5424L949.248 460.8c24.2176 16.9984 24.2176 44.544 0 61.5936l-396.1344 278.6304c-24.2176 17.0496-63.3856 17.0496-87.552 0l-396.2368-278.6304c-24.1664-16.9984-24.2176-44.544 0-61.5936l29.44 45.568z" p-id="21105"></path></svg>