<?xml version="1.0" standalone="no"?><!DOCTYPE svg PUBLIC "-//W3C//DTD SVG 1.1//EN" "http://www.w3.org/Graphics/SVG/1.1/DTD/svg11.dtd"><svg t="1565143419817" class="icon" viewBox="0 0 1336 1024" version="1.1" xmlns="http://www.w3.org/2000/svg" p-id="17100" xmlns:xlink="http://www.w3.org/1999/xlink" width="52.1875" height="40"><defs><style type="text/css"></style></defs><path d="M343.637253 221.28903L576.113466 45.996621a234.079497 234.079497 0 0 1 221.787651-30.996828l369.824229 140.020156a205.754809 205.754809 0 0 0 74.81993 13.89513h60.924801a31.531256 31.531256 0 0 1 32.600113 30.996828v449.98844a33.134541 33.134541 0 0 1-32.600113 32.600113h-80.164211a49.701811 49.701811 0 0 0-30.996829 10.688561l-17.636126 14.963986a11.757418 11.757418 0 0 1-15.498414 0l-430.74903-521.601802a34.737825 34.737825 0 0 0-44.891958-8.016421l-196.669532 106.885615a152.312002 152.312002 0 0 1-129.331594 6.947565 44.35753 44.35753 0 0 1-22.980408-58.25266 20.842695 20.842695 0 0 1 9.085278-14.963986z m-304.089575 459.608145H106.885615l53.442808-59.321516a125.590598 125.590598 0 0 1 175.292409-16.032842A127.72831 127.72831 0 0 1 374.099653 667.536473a122.384029 122.384029 0 0 1 87.111776 84.974064A119.711889 119.711889 0 0 1 534.428076 809.159914a123.452886 123.452886 0 0 1 68.941222 34.737824 128.262738 128.262738 0 0 1 18.170554 153.915286l-6.947565 12.291846a71.078934 71.078934 0 0 0 98.869194-17.636126 68.406794 68.406794 0 0 0 11.22299-53.442808l5.344281 5.344281a75.354359 75.354359 0 0 0 92.456057 9.619705 71.613362 71.613362 0 0 0 28.859116-71.613362l5.344281 5.344281a74.285503 74.285503 0 0 0 92.456057 9.619705 71.078934 71.078934 0 0 0 29.927972-71.613362l5.344281 5.344281a72.682218 72.682218 0 0 0 87.111776 10.688561 70.010078 70.010078 0 0 0 24.583692-96.731482 102.610191 102.610191 0 0 0-8.55085-11.222989l-43.288674-53.442808L694.756499 253.889143a12.826274 12.826274 0 0 0-15.498415 0L510.913241 344.207488a213.77123 213.77123 0 0 1-176.361266 13.360701A113.83318 113.83318 0 0 1 267.214038 290.230252a117.574177 117.574177 0 0 1 12.291846-95.662626 16.56727 16.56727 0 0 0-6.947565-21.911551 20.842695 20.842695 0 0 0-8.016421 0H32.600113a31.531256 31.531256 0 0 0-32.600113 29.927972v448.919584a45.426386 45.426386 0 0 0 39.547678 29.393544z m244.23363-32.065684a61.459229 61.459229 0 0 0-78.560927 16.032842L160.328423 722.582565a59.855944 59.855944 0 0 0 8.016421 83.905208l6.947565 5.344281a63.062513 63.062513 0 0 0 66.269081 5.344281h4.275425a58.25266 58.25266 0 0 0 21.377123 61.459228l5.878709 4.275425a62.528085 62.528085 0 0 0 65.200225 6.413137h3.740997a61.459229 61.459229 0 0 0 22.980407 53.442807l4.275424 2.672141a57.183804 57.183804 0 0 0 65.200226 5.344281h4.275424a60.390373 60.390373 0 0 0 22.980408 37.944393h2.67214a60.924801 60.924801 0 0 0 85.508492-11.22299 36.875537 36.875537 0 0 1 5.344281-6.413137l8.550849-14.963986a60.924801 60.924801 0 0 0-11.22299-76.957643 62.528085 62.528085 0 0 0-66.269081-10.688561h-2.67214A62.528085 62.528085 0 0 0 427.542461 809.694342a79.095355 79.095355 0 0 0-24.583692 4.275424c-9.619705 0-6.947565-6.947565-6.947565-6.947565a59.321516 59.321516 0 0 0-32.600112-78.026499 63.596941 63.596941 0 0 0-53.442808 0c-6.947565 0-5.878709-5.344281-5.878709-5.344281a53.442808 53.442808 0 0 0-20.308267-77.492071z" p-id="17101"></path></svg>