<?xml version="1.0" standalone="no"?><!DOCTYPE svg PUBLIC "-//W3C//DTD SVG 1.1//EN" "http://www.w3.org/Graphics/SVG/1.1/DTD/svg11.dtd"><svg t="1562639203559" class="icon" viewBox="0 0 1024 1024" version="1.1" xmlns="http://www.w3.org/2000/svg" p-id="3430" width="40" height="40" xmlns:xlink="http://www.w3.org/1999/xlink"><defs><style type="text/css"></style></defs><path d="M967.111111 193.422222c0-11.377778-11.377778-17.066667-17.066667-5.688889l-62.577777 62.577778c-34.133333-45.511111-73.955556-85.333333-119.466667-113.777778-91.022222-56.888889-204.8-85.333333-307.2-73.955555-108.088889 11.377778-210.488889 62.577778-278.755556 142.222222C108.088889 278.755556 62.577778 381.155556 56.888889 483.555556l113.777778 11.377777c11.377778-79.644444 45.511111-147.911111 102.4-199.111111 56.888889-51.2 125.155556-85.333333 199.111111-85.333333 73.955556-5.688889 147.911111 17.066667 204.8 62.577778 39.822222 28.444444 68.266667 62.577778 91.022222 102.4l-62.577778 68.266666c-5.688889 5.688889 0 17.066667 5.688889 17.066667h244.622222c5.688889-5.688889 11.377778-11.377778 11.377778-17.066667V193.422222zM62.577778 625.777778c17.066667 62.577778 51.2 119.466667 91.022222 170.666666l85.333333-73.955555c-34.133333-39.822222-56.888889-79.644444-68.266666-130.844445l-108.088889 34.133334zM250.311111 887.466667c51.2 34.133333 113.777778 62.577778 176.355556 73.955555l22.755555-113.777778c-45.511111-11.377778-96.711111-28.444444-136.533333-56.888888l-62.577778 96.711111zM546.133333 847.644444l11.377778 113.777778c62.577778-5.688889 125.155556-28.444444 182.044445-56.888889l-56.888889-96.711111c-39.822222 22.755556-85.333333 39.822222-136.533334 39.822222zM762.311111 745.244444l79.644445 79.644445c45.511111-45.511111 79.644444-102.4 102.4-164.977778l-102.4-34.133333c-17.066667 45.511111-45.511111 85.333333-79.644445 119.466666z" p-id="3431"></path></svg>