<?xml version="1.0" standalone="no"?><!DOCTYPE svg PUBLIC "-//W3C//DTD SVG 1.1//EN" "http://www.w3.org/Graphics/SVG/1.1/DTD/svg11.dtd"><svg t="1565143557580" class="icon" viewBox="0 0 1024 1024" version="1.1" xmlns="http://www.w3.org/2000/svg" p-id="19760" xmlns:xlink="http://www.w3.org/1999/xlink" width="40" height="40"><defs><style type="text/css"></style></defs><path d="M937.183388 108.072554L518.274949 0.717137a22.948386 22.948386 0 0 0-11.373793 0L86.830955 108.072554a22.948386 22.948386 0 0 0-17.21129 22.231249V472.736746c0 68.845157 4.474935 122.917291 26.777898 179.857974 22.76193 58.102444 62.706464 117.05111 133.573948 197.11229 95.709111 108.129925 267.621206 170.363079 274.892975 172.959115a22.948386 22.948386 0 0 0 13.668633 0.545024c1.549016-0.415939 38.381175-10.455858 90.846922-35.397885 48.205953-22.948386 119.518061-63.466629 185.394271-126.388234 108.933119-104.042244 159.663394-227.547587 159.663394-388.688284V130.260775a22.948386 22.948386 0 0 0-17.254318-22.188221zM264.29369 819.286056c-120.622453-136.25604-144.445746-204.168919-148.217886-307.049401h397.121815V46.786021l395.343315 101.317123V472.736746q0 20.180237-1.161762 39.499909H513.197619v464.518356c-32.816192-12.707669-171.438784-69.963891-248.903929-157.468955z" fill="" p-id="19761"></path></svg>