<?xml version="1.0" standalone="no"?><!DOCTYPE svg PUBLIC "-//W3C//DTD SVG 1.1//EN" "http://www.w3.org/Graphics/SVG/1.1/DTD/svg11.dtd"><svg t="1562746173048" class="icon" viewBox="0 0 1024 1024" version="1.1" xmlns="http://www.w3.org/2000/svg" p-id="4272" width="40" height="40" xmlns:xlink="http://www.w3.org/1999/xlink"><defs><style type="text/css"></style></defs><path d="M735.845411 194.164251c-149.642512-149.642512-392.038647-149.642512-541.68116 0-149.642512 149.642512-149.642512 392.038647 0 541.68116 149.642512 149.642512 392.038647 149.642512 541.68116 0 149.642512-149.642512 149.642512-392.038647 0-541.68116M136.038647 793.971014C-45.758454 612.173913-45.758454 317.835749 136.038647 136.038647 317.835749-45.758454 612.173913-45.758454 793.971014 136.038647c181.797101 181.797101 181.797101 476.135266 0 657.932367-181.797101 181.797101-476.135266 181.797101-657.932367 0m874.357488 216.425121c-17.31401 17.31401-46.995169 17.31401-64.309178 0l-115.014493-115.014492c-17.31401-17.31401-17.31401-46.995169 0-64.309179 17.31401-17.31401 46.995169-17.31401 64.309179 0l115.014492 115.014493c18.550725 18.550725 18.550725 46.995169 0 64.309178" p-id="4273"></path></svg>