<?xml version="1.0" standalone="no"?><!DOCTYPE svg PUBLIC "-//W3C//DTD SVG 1.1//EN" "http://www.w3.org/Graphics/SVG/1.1/DTD/svg11.dtd"><svg t="1565144781444" class="icon" viewBox="0 0 1024 1024" version="1.1" xmlns="http://www.w3.org/2000/svg" p-id="39713" xmlns:xlink="http://www.w3.org/1999/xlink" width="40" height="40"><defs><style type="text/css"></style></defs><path d="M386.107 664.999c-8.406-2.768-22.27-4.983-38.09-7.525h-0.007c-11.513-1.874-32.856-9.749-32.856-9.749l-130.502-56.302c-19.608-8.473-42.733 1.435-51.645 22.106-8.92 20.686-0.262 44.305 19.354 52.757l133.285 57.442c5.403 2.597 1.708 9.309-2.796 7.372l-139.536-60.118c-20.395-8.79-28.548-35.33-18.234-59.284 2.71-6.25 6.39-11.693 10.74-16.193L68.43 461.894c-8.812-17.46-30.442-24.318-48.302-15.312-17.873 9.008-25.211 30.478-16.4 47.95l106.607 211.311c4.678 9.274 9.034 17.907 21.076 23.632l179.713 69.964c17.84 14.76 33.219 31.077 43.371 70.66 0.168 0.306 151.6 0 153.32 0 0.002 0-65.52-190.2-121.708-205.1z m617.765-218.575c-17.866-9.007-39.488-2.154-48.303 15.31l-67.391 133.612c4.352 4.49 8.046 9.935 10.741 16.2 10.316 23.943 2.162 50.484-18.227 59.276l-139.53 60.12c-4.515 1.934-8.211-4.77-2.81-7.354l133.288-57.462c19.607-8.453 28.273-32.07 19.354-52.764-8.907-20.665-32.038-30.559-51.652-22.105l-130.49 56.308s-21.342 7.882-32.858 9.749h-0.013c-15.82 2.555-29.682 4.757-38.088 7.527-56.188 14.91-123.2 205.258-123.2 205.258-1.714-1.722 156.591 0.468 154.816 0 10.38-43.026 25.525-56.064 43.365-70.82l179.715-69.958c12.042-5.732 16.406-14.364 21.083-23.637l106.605-211.304c8.801-17.48 1.467-38.95-16.405-47.956zM505.204 642.937c328.354-161.98 348.35-388.476 211.995-467.5-75.754-43.9-159.03-18.615-211.995 53.366-52.942-71.981-136.216-97.265-211.972-53.366-136.342 79.024-116.362 305.52 211.972 467.5z m0 0" p-id="39714"></path></svg>