<?xml version="1.0" standalone="no"?><!DOCTYPE svg PUBLIC "-//W3C//DTD SVG 1.1//EN" "http://www.w3.org/Graphics/SVG/1.1/DTD/svg11.dtd"><svg t="1562747092774" class="icon" viewBox="0 0 1024 1024" version="1.1" xmlns="http://www.w3.org/2000/svg" p-id="8845" width="40" height="40" xmlns:xlink="http://www.w3.org/1999/xlink"><defs><style type="text/css"></style></defs><path d="M704.1 428.66666666c-81 0-147-65.9-147-147s66-147 147-147 147 65.9 147 147-66 147-147 147z m0-252c-57.9 0-105 47.1-105 105s47.1 105 105 105 105-47.1 105-105-47.1-105-105-105zM239 701.96666666c-81 0-147-65.9-147-147s66-147 147-147 147 65.9 147 147-66 147-147 147z m0-252c-57.9 0-105 47.1-105 105s47.1 105 105 105 105-47.1 105-105-47.1-105-105-105zM785 974.66666666c-81 0-147-65.9-147-147s66-147 147-147 147 65.9 147 147-66 147-147 147z m0-252c-57.9 0-105 47.1-105 105s47.1 105 105 105 105-47.1 105-105-47.1-105-105-105z" p-id="8846"></path><path d="M346.9 510.86666666c-7.4 0-14.6-3.9-18.4-10.9-5.6-10.2-1.8-22.9 8.3-28.5L589 332.96666666c10.3-5.6 22.9-1.9 28.5 8.3s1.8 22.9-8.3 28.5L356.9 508.26666666c-3.2 1.7-6.6 2.6-10 2.6zM663 806.16666666c-3.1 0-6.3-0.7-9.3-2.2L333.3 645.46666666c-10.4-5.1-14.7-17.8-9.5-28.1 5.1-10.4 17.7-14.7 28.1-9.5l320.4 158.6c10.4 5.1 14.7 17.7 9.5 28.1-3.6 7.3-11 11.6-18.8 11.6z" p-id="8847"></path></svg>