<?xml version="1.0" standalone="no"?><!DOCTYPE svg PUBLIC "-//W3C//DTD SVG 1.1//EN" "http://www.w3.org/Graphics/SVG/1.1/DTD/svg11.dtd"><svg t="1563788023906" class="icon" viewBox="0 0 1024 1024" version="1.1" xmlns="http://www.w3.org/2000/svg" p-id="3047" xmlns:xlink="http://www.w3.org/1999/xlink" width="40" height="40"><defs><style type="text/css"></style></defs><path d="M362.666791 234.666471a149.333209 149.333209 0 0 1 298.666418 0v10.666658a10.666658 10.666658 0 0 1-10.666658 10.666658h-277.333102a10.666658 10.666658 0 0 1-10.666658-10.666658zM682.666524 639.999467a85.333262 85.333262 0 1 1 85.333263-85.333263 85.333262 85.333262 0 0 1-85.333263 85.333263z m-348.159709 80.213266a34.133305 34.133305 0 0 1 23.893313-5.119996 32.853306 32.853306 0 0 1 20.479983 13.653322 159.999867 159.999867 0 0 0 266.239778 0 32.42664 32.42664 0 0 1 42.666631-8.533326 31.999973 31.999973 0 0 1 8.533326 42.666631 223.999813 223.999813 0 0 1-372.479689 0 32.42664 32.42664 0 0 1-4.69333-24.319979 31.573307 31.573307 0 0 1 15.359988-18.346652zM341.333476 469.332942a85.333262 85.333262 0 1 1-85.333263 85.333262 85.333262 85.333262 0 0 1 85.333263-85.333262z m597.332835 404.052997l-38.399968-554.666205A66.986611 66.986611 0 0 0 831.999733 255.999787h-74.666604a10.666658 10.666658 0 0 1-10.666658-10.666658V234.666471a234.666471 234.666471 0 0 0-469.332942 0v10.666658a10.239991 10.239991 0 0 1-10.666658 10.666658H192.000267a66.986611 66.986611 0 0 0-66.986611 62.293281l-38.399968 554.666205v42.666631A106.239911 106.239911 0 0 0 192.000267 1023.999147h639.999466a106.239911 106.239911 0 0 0 106.666578-106.666578v-43.94663z" p-id="3048"></path></svg>