<?xml version="1.0" standalone="no"?><!DOCTYPE svg PUBLIC "-//W3C//DTD SVG 1.1//EN" "http://www.w3.org/Graphics/SVG/1.1/DTD/svg11.dtd"><svg t="1567495597267" class="icon" viewBox="0 0 1024 1024" version="1.1" xmlns="http://www.w3.org/2000/svg" p-id="2947" xmlns:xlink="http://www.w3.org/1999/xlink" width="100" height="100"><defs><style type="text/css"></style></defs><path d="M953.576434 799.95819H476.058439c-10.095261 0-18.366077-8.270816-18.366076-18.366077v-18.366077c0-10.095261 8.270816-18.366077 18.487706-18.366076H953.576434c10.095261 0 18.366077 8.270816 18.366077 18.366076v18.366077c0 10.095261-8.270816 18.366077-18.366077 18.366077z m0-202.026844H549.644376c-10.095261 0-18.366077-8.270816-18.366077-18.366077v-18.366077c0-10.095261 8.270816-18.366077 18.366077-18.366076H953.576434c10.095261 0 18.366077 8.270816 18.366077 18.366076v18.366077c0 10.21689-8.270816 18.366077-18.366077 18.366077z m0-202.026844H622.987053c-10.095261 0-18.366077-8.270816-18.366077-18.366077v-18.366077c0-10.095261 8.270816-18.366077 18.366077-18.366076H953.576434c10.095261 0 18.366077 8.270816 18.366077 18.366076v18.244447c0 10.21689-8.270816 18.487706-18.366077 18.487707zM295.560043 826.595083S177.214396 981.186364 116.034683 961.239102C55.09823 941.29184 51.084452 746.927664 51.084452 746.927664L274.396484 100.1012c9.487112-28.947856 40.502673-44.638081 69.450529-35.272598l139.630835 45.611118c28.947856 9.365483 44.75971 40.502673 35.272597 69.450528L295.560043 826.595083zM448.813398 156.902245l-104.601496-34.056301c-1.702815-0.486519-3.770519-0.851408-5.594964-0.851408-8.027557 0-14.960447 5.230075-17.39304 12.527854L114.818387 729.169735s-11.554816 150.820763 22.866374 161.889061c35.394227 11.554816 116.764461-116.521202 116.764461-116.521202l206.040622-594.404086c0.486519-1.702815 0.851408-3.648889 0.851408-5.594964 0-8.027557-5.230075-14.960447-12.527854-17.39304v-0.243259z m0 0" p-id="2948"></path></svg>