<?xml version="1.0" standalone="no"?><!DOCTYPE svg PUBLIC "-//W3C//DTD SVG 1.1//EN" "http://www.w3.org/Graphics/SVG/1.1/DTD/svg11.dtd"><svg t="1565852843782" class="icon" viewBox="0 0 1124 1024" version="1.1" xmlns="http://www.w3.org/2000/svg" p-id="6351" xmlns:xlink="http://www.w3.org/1999/xlink" width="109.765625" height="100"><defs><style type="text/css"></style></defs><path d="M562.208232 17.479903A494.520097 494.520097 0 1 0 1056.728329 512 493.776271 493.776271 0 0 0 562.208232 17.479903z m0 61.985472a436.377724 436.377724 0 0 1 432.286683 401.417918h-90.250847a331.250363 331.250363 0 0 0-659.277482 0h-111.57385A428.939467 428.939467 0 0 1 562.208232 79.713317z m-225.503147 301.249395q6.198547-11.405327 13.512833-22.066828-7.314286 10.661501-13.512833 22.066828z m48.224697 131.28523A177.154479 177.154479 0 0 1 562.208232 334.72155a179.261985 179.261985 0 0 1 177.278451 177.27845 175.294915 175.294915 0 0 1-177.278451 177.27845 177.154479 177.154479 0 0 1-177.27845-177.27845z m326.043584-231.453753a267.653269 267.653269 0 0 0-298.769976 13.636804 266.909443 266.909443 0 0 1 330.134625 8.925908 267.529298 267.529298 0 0 0-31.364649-22.562712z m111.573849 136.987893q4.462954 12.397094 7.686199 24.794189-2.851332-12.521065-7.314286-24.794189z m-37.191283-68.060048q-7.686199-10.289588-16.240194-19.835351 9.545763 9.545763 17.231962 19.959322z m-402.409685-30.24891q-9.049879 9.049879-17.355932 18.967554 8.306053-9.917676 17.355932-18.967554z m263.314286 617.003389a438.857143 438.857143 0 0 1-84.052301 8.058112 438.857143 438.857143 0 0 0 84.052301-8.058112 429.931235 429.931235 0 0 0 59.382082-15.992251 429.931235 429.931235 0 0 1-59.382082 15.992251zM743.08184 904.987893a427.575787 427.575787 0 0 0 52.687652-28.88523A427.575787 427.575787 0 0 1 743.08184 904.987893zM973.171913 642.169492a425.096368 425.096368 0 0 1-86.779661 156.451331q-13.14092 14.876513-27.52155 28.513317 14.38063-13.636804 27.52155-28.513317a425.592252 425.592252 0 0 0 103.76368-237.528329 428.691525 428.691525 0 0 1-16.860048 81.200968z" p-id="6352"></path><path d="M562.208232 396.707022a115.045036 115.045036 0 0 0 0 230.090072 116.9046 116.9046 0 0 0 115.045037-115.045036A112.93753 112.93753 0 0 0 562.208232 396.707022z" p-id="6353"></path></svg>