<?xml version="1.0" standalone="no"?><!DOCTYPE svg PUBLIC "-//W3C//DTD SVG 1.1//EN" "http://www.w3.org/Graphics/SVG/1.1/DTD/svg11.dtd"><svg t="1565144484571" class="icon" viewBox="0 0 1024 1024" version="1.1" xmlns="http://www.w3.org/2000/svg" p-id="34907" xmlns:xlink="http://www.w3.org/1999/xlink" width="40" height="40"><defs><style type="text/css"></style></defs><path d="M190.661388 763.637134c-31.452339 0-58.044997 20.831444-66.721611 49.454342l-30.280654 99.866499c-0.397043 1.276063-0.599657 2.638083-0.599657 4.055362 0 7.710612 6.235005 13.941524 13.941524 13.941524 1.418302 0 2.777253-0.215918 4.058432-0.593518l99.863429-30.2827c28.617781-8.665357 49.453319-35.268248 49.453319-66.725704C260.376169 794.844903 229.1684 763.637134 190.661388 763.637134L190.661388 763.637134 190.661388 763.637134zM915.700435 66.466808c-412.479379 0-500.92885 211.42427-567.556317 252.234745-104.363929 6.372128-212.545814 59.259662-273.90223 145.292084-8.374738 11.734252-10.104125 26.959002-4.600785 40.274262 5.497201 13.31526 17.467837 22.849404 31.683607 25.273616 37.579897 6.343475 90.221838 23.200398 132.253116 48.038086-7.597025 27.832905-13.765515 54.846142-18.160615 80.147388-2.329045 13.395078 2.010797 27.122731 11.640108 36.736693L329.520969 796.913005c7.910157 7.928576 18.570961 12.255115 29.572526 12.255115 2.385327 0 4.777817-0.185218 7.16519-0.623193 25.312502-4.384867 52.339042-10.564613 80.18525-18.164708 24.850991 42.074258 41.706891 94.719268 48.065715 132.301212 2.39556 14.2127 11.954263 26.169009 25.270547 31.697933 5.148253 2.121314 10.56973 3.154853 15.974833 3.154853 8.574283 0 17.087167-2.641153 24.291243-7.761778C646.058229 888.419092 698.955996 780.222881 705.290261 675.835416 848.731184 532.214391 953.863616 392.34583 957.530123 108.267842 957.827905 85.178985 938.808736 66.466808 915.700435 66.466808L915.700435 66.466808 915.700435 66.466808zM254.966972 509.334287c-28.863375-15.929808-68.662823-28.731368-96.701412-37.526685 36.861536-37.880749 94.689592-64.271816 145.625682-76.527954C284.639782 432.918897 268.396843 471.39828 254.966972 509.334287L254.966972 509.334287 254.966972 509.334287zM552.22719 865.757976c-8.810666-28.077475-21.61018-67.88818-37.565571-96.754624 37.94624-13.423731 76.440973-29.688159 114.076128-48.942689C616.496959 771.044848 590.079286 828.913836 552.22719 865.757976L552.22719 865.757976 552.22719 865.757976zM682.490999 418.567028c-48.608068 0-88.01252-39.405475-88.01252-88.015589 0-48.608068 39.404452-88.016613 88.01252-88.016613 48.607044 0 88.01252 39.407522 88.01252 88.016613C770.503519 379.162576 731.099067 418.567028 682.490999 418.567028L682.490999 418.567028 682.490999 418.567028z" p-id="34908"></path></svg>