<?xml version="1.0" standalone="no"?><!DOCTYPE svg PUBLIC "-//W3C//DTD SVG 1.1//EN" "http://www.w3.org/Graphics/SVG/1.1/DTD/svg11.dtd"><svg t="1567057450952" class="icon" viewBox="0 0 1024 1024" version="1.1" xmlns="http://www.w3.org/2000/svg" p-id="20471" xmlns:xlink="http://www.w3.org/1999/xlink" width="100" height="100"><defs><style type="text/css"></style></defs><path d="M818.650587 112.930025c0 0-38.705534 0-95.018074 0L723.632513 75.694983c0-6.308683-5.104251-11.414981-11.413957-11.414981s-11.413957 5.106298-11.413957 11.414981l0 37.235043c-103.721293 0-251.277954 0-339.034647 0L361.769952 75.694983c0-6.308683-5.106298-11.414981-11.414981-11.414981-6.309706 0-11.414981 5.106298-11.414981 11.414981l0 37.235043c-30.509874 0-49.754171 0-50.868551 0l-38.882566 0c-57.32459 0-103.96791 46.632063-103.96791 103.94335l0 26.979468 777.37195 0 0-26.979468C922.591891 159.562089 875.961874 112.930025 818.650587 112.930025zM361.768929 176.674838c0 6.309706-5.106298 11.414981-11.414981 11.414981-6.309706 0-11.414981-5.105275-11.414981-11.414981L338.938967 112.940259l22.830985 0L361.769952 176.674838zM723.632513 176.674838c0 6.309706-5.104251 11.414981-11.413957 11.414981s-11.413957-5.105275-11.413957-11.414981L700.804598 112.940259l22.828938 0L723.633536 176.674838z" p-id="20472"></path><path d="M145.219941 266.683828l0 325.317227c17.657148-24.603351 40.375569-46.081525 67.679425-62.671365 109.339244-66.442248 252.390287-31.54853 318.889841 77.779458 32.206516 52.987818 41.84913 115.337865 27.143197 175.580924-13.399171 54.886051-45.547359 102.014418-91.240027 134.321218l350.95821 0c57.311287 0 103.941304-46.620807 103.941304-103.921861L922.591891 266.683828 145.219941 266.683828zM758.459716 668.086941 645.810077 668.086941c-6.309706 0-11.413957-5.104251-11.413957-11.413957s5.104251-11.416004 11.413957-11.416004l112.64964 0c6.311753 0 11.416004 5.106298 11.416004 11.416004S764.771469 668.086941 758.459716 668.086941zM758.459716 538.359344 584.928474 538.359344c-6.307659 0-11.411911-5.104251-11.411911-11.414981 0-6.308683 5.104251-11.413957 11.411911-11.413957l173.530219 0c6.311753 0 11.416004 5.105275 11.416004 11.413957C769.87572 533.255093 764.771469 538.359344 758.459716 538.359344zM758.459716 408.629701 309.350069 408.629701c-6.306636 0-11.413957-5.105275-11.413957-11.414981s5.107321-11.416004 11.413957-11.416004l449.109648 0c6.311753 0 11.416004 5.106298 11.416004 11.416004S764.771469 408.629701 758.459716 408.629701z" p-id="20473"></path><path d="M333.519538 518.516414c-115.500571 0-209.156624 93.64275-209.156624 209.156624 0 115.527177 93.65503 209.169927 209.156624 209.169927 115.516944 0 209.171973-93.64275 209.171973-209.169927C542.691511 612.159164 449.036481 518.516414 333.519538 518.516414zM453.072401 791.261285c-1.771343 4.502547-6.076392 7.257288-10.635221 7.257288-1.384533 0-2.798742-0.243547-4.157693-0.779759l-118.549-46.411029c-4.381797-1.717108-7.256264-5.940292-7.256264-10.635221L312.474222 625.526613c0-6.309706 5.103228-11.416004 11.412934-11.416004 6.310729 0 11.416004 5.106298 11.416004 11.416004l0 107.375519L446.594873 776.467347C452.470697 778.775926 455.367677 785.39774 453.072401 791.261285z" p-id="20474"></path></svg>