<?xml version="1.0" standalone="no"?><!DOCTYPE svg PUBLIC "-//W3C//DTD SVG 1.1//EN" "http://www.w3.org/Graphics/SVG/1.1/DTD/svg11.dtd"><svg t="1564021968153" class="icon" viewBox="0 0 1024 1024" version="1.1" xmlns="http://www.w3.org/2000/svg" p-id="5240" xmlns:xlink="http://www.w3.org/1999/xlink" width="40" height="40"><defs><style type="text/css"></style></defs><path d="M512 0c282.760533 0 512 229.239467 512 512S794.760533 1024 512 1024 0 794.760533 0 512 229.239467 0 512 0z" fill="#13BF7D" p-id="5241"></path><path d="M860.7744 299.758933c-20.002133-19.985067-51.3024-21.0944-69.9392-2.491733L436.753067 651.3664l-152.388267-166.3488c-18.619733-18.619733-49.937067-17.493333-69.922133 2.491733-19.985067 20.002133-21.111467 51.3024-2.491734 69.9392l186.333867 203.4176c9.915733 9.915733 23.415467 14.045867 36.898133 12.919467 13.482667 1.1264 26.9824-3.003733 36.898134-12.919467l391.150933-391.168c18.6368-18.6368 17.5104-49.937067-2.4576-69.9392z" fill="#FFFFFF" p-id="5242"></path></svg>