<?xml version="1.0" standalone="no"?><!DOCTYPE svg PUBLIC "-//W3C//DTD SVG 1.1//EN" "http://www.w3.org/Graphics/SVG/1.1/DTD/svg11.dtd"><svg t="1563269753926" class="icon" viewBox="0 0 1024 1024" version="1.1" xmlns="http://www.w3.org/2000/svg" p-id="26561" xmlns:xlink="http://www.w3.org/1999/xlink" width="40" height="40"><defs><style type="text/css"></style></defs><path d="M1019.838037 445.454161C991.169403 217.128967 806.87104 32.830603 578.545845 4.161969 244.761031-37.817103-37.829792 243.749841 4.149279 578.558535c28.668634 228.325195 212.966998 411.599678 441.292192 441.292192 334.808693 41.979072 617.399517-240.611752 574.396566-574.396566z m-803.74564-34.811913l139.247652-140.271532c5.119399-5.119399 12.286558-8.191038 19.453717-8.191038 15.358197 0 28.668634 12.286558 28.668634 28.668634V368.663177l384.978803-2.04776c15.358197 0 28.668634 12.286558 28.668635 28.668634V430.095964c0 15.358197-12.286558 28.668634-28.668635 28.668635H236.569993c-11.262678 0-21.501476-7.167159-25.596995-17.405957-5.119399-11.262678-3.071639-22.525356 5.119399-30.716394z m591.802522 202.7282L668.647267 753.64198c-5.119399 5.119399-12.286558 8.191038-19.453716 8.191038-15.358197 0-28.668634-12.286558-28.668634-28.668634V655.34952l-383.954924 2.047759c-15.358197 0-28.668634-12.286558-28.668634-28.668634V593.916732c0-15.358197 12.286558-28.668634 28.668634-28.668635H788.441203c11.262678 0 21.501476 7.167159 25.596995 17.405957 5.119399 10.238798 2.04776 22.525356-6.143279 30.716394z" p-id="26562"></path></svg>