<?xml version="1.0" standalone="no"?><!DOCTYPE svg PUBLIC "-//W3C//DTD SVG 1.1//EN" "http://www.w3.org/Graphics/SVG/1.1/DTD/svg11.dtd"><svg t="1565144156811" class="icon" viewBox="0 0 1024 1024" version="1.1" xmlns="http://www.w3.org/2000/svg" p-id="23264" xmlns:xlink="http://www.w3.org/1999/xlink" width="40" height="40"><defs><style type="text/css"></style></defs><path d="M697.78784 87.68h-17.706667a29.013333 29.013333 0 0 1-28.373333-30.506667A57.386667 57.386667 0 0 0 595.174507 0h-166.4a57.386667 57.386667 0 0 0-56.746667 57.173333 28.8 28.8 0 0 1-28.373333 30.506667h-21.333334a29.226667 29.226667 0 0 0-28.16 30.506667v91.733333a28.8 28.8 0 0 0 28.373334 30.506667h375.253333A29.226667 29.226667 0 0 0 725.30784 209.92V118.4a29.226667 29.226667 0 0 0-28.373333-30.72z m-183.893333 99.413333a65.066667 65.066667 0 0 1 0-129.92 62.293333 62.293333 0 0 1 60.16 65.066667 59.946667 59.946667 0 0 1-60.16 64z m0 0" p-id="23265"></path><path d="M853.30784 125.866667h-17.706667a30.08 30.08 0 0 0-31.786666 30.72v133.76A28.8 28.8 0 0 1 775.654507 320l-527.36 4.053333a29.226667 29.226667 0 0 1-28.373334-30.72V160.426667A29.013333 29.013333 0 0 0 191.974507 129.92h-18.133334C127.974507 126.08 106.641173 156.586667 106.641173 198.826667v744.96C106.641173 978.133333 138.42784 1024 181.094507 1024h661.333333A86.613333 86.613333 0 0 0 917.30784 943.786667V194.56a66.133333 66.133333 0 0 0-64-68.693333zM536.294507 750.72H321.254507a40.106667 40.106667 0 0 1 0-80h214.826666a40.106667 40.106667 0 0 1 0 80z m162.56-158.72h-377.6a40.106667 40.106667 0 0 1 0-80h377.6a40.106667 40.106667 0 0 1 0 80z m0 0" p-id="23266"></path></svg>