<?xml version="1.0" standalone="no"?><!DOCTYPE svg PUBLIC "-//W3C//DTD SVG 1.1//EN" "http://www.w3.org/Graphics/SVG/1.1/DTD/svg11.dtd"><svg t="1565852537736" class="icon" viewBox="0 0 1024 1024" version="1.1" xmlns="http://www.w3.org/2000/svg" p-id="4361" width="100" height="100" xmlns:xlink="http://www.w3.org/1999/xlink"><defs><style type="text/css"></style></defs><path d="M885.333333 117.333333h-725.333333c-12.8 0-21.333333-8.533333-21.333333-21.333333s8.533333-21.333333 21.333333-21.333333h725.333333c12.8 0 21.333333 8.533333 21.333334 21.333333s-8.533333 21.333333-21.333334 21.333333zM885.333333 885.333333h-725.333333c-12.8 0-21.333333 8.533333-21.333333 21.333334s8.533333 21.333333 21.333333 21.333333h725.333333c12.8 0 21.333333-8.533333 21.333334-21.333333s-8.533333-21.333333-21.333334-21.333334z" p-id="4362"></path><path d="M640 439.466667c51.2-32 106.666667-70.4 106.666667-115.2V96H298.666667v228.266667c0 44.8 57.6 83.2 106.666666 115.2 19.2 12.8 38.4 25.6 49.066667 34.133333 8.533333 6.4 12.8 17.066667 12.8 27.733333s-4.266667 21.333333-12.8 27.733334c-10.666667 10.666667-29.866667 21.333333-49.066667 34.133333-51.2 32-106.666667 70.4-106.666666 115.2v228.266667h448V678.4c0-44.8-57.6-81.066667-106.666667-115.2-19.2-12.8-38.4-25.6-49.066667-34.133333-8.533333-6.4-12.8-17.066667-12.8-27.733334s4.266667-21.333333 12.8-27.733333c10.666667-10.666667 29.866667-21.333333 49.066667-34.133333z m-104.533333 256c8.533333 21.333333 23.466667 44.8 42.666666 57.6 42.666667 25.6 115.2 68.266667 134.4 110.933333H334.933333c19.2-42.666667 102.4-91.733333 134.4-110.933333 17.066667-10.666667 34.133333-36.266667 42.666667-59.733334 2.133333-4.266667 2.133333-6.4 2.133333-10.666666v-204.8c0-4.266667-2.133333-8.533333-4.266666-12.8-6.4-10.666667-14.933333-21.333333-27.733334-29.866667-29.866667-21.333333-149.333333-83.2-149.333333-121.6v-29.866667c0-12.8 10.666667-23.466667 23.466667-19.2 32 8.533333 91.733333 19.2 166.4-8.533333 85.333333-29.866667 151.466667-14.933333 177.066666-4.266667 8.533333 2.133333 12.8 10.666667 12.8 19.2v42.666667c0 38.4-117.333333 100.266667-149.333333 119.466667-10.666667 6.4-21.333333 19.2-27.733333 29.866666-2.133333 4.266667-4.266667 8.533333-4.266667 12.8V682.666667l4.266667 12.8z" p-id="4363"></path><path d="M85.333333 217.6m-10.666666 0a10.666667 10.666667 0 1 0 21.333333 0 10.666667 10.666667 0 1 0-21.333333 0Z" p-id="4364"></path><path d="M198.4 294.4m-17.066667 0a17.066667 17.066667 0 1 0 34.133334 0 17.066667 17.066667 0 1 0-34.133334 0Z" p-id="4365"></path><path d="M213.333333 678.4m-17.066666 0a17.066667 17.066667 0 1 0 34.133333 0 17.066667 17.066667 0 1 0-34.133333 0Z" p-id="4366"></path><path d="M712.533333 501.333333m-17.066666 0a17.066667 17.066667 0 1 0 34.133333 0 17.066667 17.066667 0 1 0-34.133333 0Z" p-id="4367"></path><path d="M825.6 727.466667m-12.8 0a12.8 12.8 0 1 0 25.6 0 12.8 12.8 0 1 0-25.6 0Z" p-id="4368"></path><path d="M906.666667 616.533333m-21.333334 0a21.333333 21.333333 0 1 0 42.666667 0 21.333333 21.333333 0 1 0-42.666667 0Z" p-id="4369"></path></svg>