<?xml version="1.0" standalone="no"?><!DOCTYPE svg PUBLIC "-//W3C//DTD SVG 1.1//EN" "http://www.w3.org/Graphics/SVG/1.1/DTD/svg11.dtd"><svg t="1567495575071" class="icon" viewBox="0 0 1024 1024" version="1.1" xmlns="http://www.w3.org/2000/svg" p-id="2183" xmlns:xlink="http://www.w3.org/1999/xlink" width="100" height="100"><defs><style type="text/css"></style></defs><path d="M77.824 866.441v-759.671h-50.79v810.462h969.933v-50.79z" p-id="2184"></path><path d="M357.444 551.868c0-46.967-38.229-85.197-85.197-85.197s-85.197 38.229-85.197 85.197v245.214h170.94v-245.214zM306.654 746.291h-68.813v-194.423c0-19.115 15.292-34.406 34.406-34.406s34.406 15.292 34.406 34.406v194.423zM637.611 392.397c0-47.514-38.229-85.743-85.197-85.743s-85.197 38.229-85.197 85.743v404.685h170.394v-404.685zM586.274 746.291h-68.813v-353.894c0-19.661 15.292-34.953 34.406-34.953s34.406 15.838 34.406 34.953v353.894zM917.231 231.834c0-46.967-38.229-85.197-85.197-85.197s-85.197 38.229-85.197 85.197v565.248h170.94v-565.248zM866.441 746.291h-68.813v-514.458c0-19.115 15.292-34.406 34.406-34.406s34.406 15.292 34.406 34.406v514.458z" p-id="2185"></path></svg>