<?xml version="1.0" standalone="no"?><!DOCTYPE svg PUBLIC "-//W3C//DTD SVG 1.1//EN" "http://www.w3.org/Graphics/SVG/1.1/DTD/svg11.dtd"><svg t="1578365742459" class="icon" viewBox="0 0 1024 1024" version="1.1" xmlns="http://www.w3.org/2000/svg" p-id="5950" xmlns:xlink="http://www.w3.org/1999/xlink" width="20" height="20"><defs><style type="text/css"></style></defs><path d="M416.256 553.472c-27.136-27.136-40.448-58.88-40.448-94.72 0-36.352 13.312-67.584 40.448-94.72 9.216-9.216 9.216-31.744 0-40.448-9.216-9.216-31.744-9.216-40.448 0-36.352 36.352-54.272 86.016-54.272 135.68s17.92 99.328 54.272 135.68c4.608 4.608 13.312 9.216 22.528 9.216 9.216 0 13.312-4.608 22.528-9.216 4.608-14.336 4.608-32.256-4.608-41.472zM646.656 323.072c-9.216-9.216-31.744-9.216-40.448 0-9.216 9.216-9.216 31.744 0 40.448 27.136 27.136 40.448 58.88 40.448 94.72 0 36.352-13.312 67.584-40.448 94.72-9.216 9.216-9.216 31.744 0 40.448 4.608 4.608 13.312 9.216 22.528 9.216s13.312-4.608 22.528-9.216c36.352-36.352 54.272-86.016 54.272-135.68 0-53.248-22.528-98.304-58.88-134.656z" fill="#A6C5F6" p-id="5951"></path><path d="M737.28 232.96c-9.216-9.216-31.744-9.216-40.448 0-9.216 9.216-9.216 31.744 0 40.448 49.664 49.664 76.8 113.152 76.8 180.736 0 67.584-27.136 135.68-76.8 180.736-9.216 9.216-9.216 31.744 0 40.448 4.608 4.608 13.312 9.216 22.528 9.216 9.216 0 13.312-4.608 22.528-9.216 58.88-58.88 94.72-140.288 94.72-225.792-9.216-76.8-40.448-153.6-99.328-216.576z m-483.328 225.792c0-67.584 27.136-135.68 76.8-180.736 9.216-9.216 9.216-31.744 0-40.448-9.216-9.216-31.744-9.216-40.448 0-58.88 58.88-94.72 140.288-94.72 225.792s31.744 162.816 94.72 225.792c4.608 4.608 13.312 9.216 22.528 9.216 9.216 0 13.312-4.608 22.528-9.216 9.216-9.216 9.216-31.744 0-40.448-54.272-58.88-81.408-122.368-81.408-189.952z" fill="#A6C5F6" p-id="5952"></path><path d="M118.272 458.752c0-103.936 40.448-203.264 113.152-280.064 9.216-9.216 9.216-31.744 0-40.448-9.216-9.216-27.136-9.216-40.448 0-81.408 86.016-131.072 198.656-131.072 321.024 0 121.856 45.056 235.008 131.072 321.024 4.608 4.608 13.312 9.216 22.528 9.216 9.216 0 13.312-4.608 22.528-9.216 9.216-9.216 9.216-31.744 0-40.448-77.312-77.824-117.76-177.152-117.76-281.088zM832 137.728c-9.216-9.216-31.744-9.216-40.448 0-9.216 9.216-9.216 31.744 0 40.448 72.192 72.192 113.152 171.52 113.152 280.064 0 108.544-40.448 203.264-113.152 280.064-9.216 9.216-9.216 31.744 0 40.448 4.608 4.608 13.312 9.216 22.528 9.216s13.312-4.608 22.528-9.216c86.016-86.016 131.072-198.656 131.072-321.024-4.608-120.832-54.272-233.984-135.68-320z" fill="#A6C5F6" p-id="5953"></path><path d="M457.216 599.04l-54.272 356.864h207.872l-54.272-356.864zM443.392 458.752c0 36.352 31.744 67.584 67.584 67.584s67.584-31.744 67.584-67.584c0-36.352-31.744-67.584-67.584-67.584s-67.584 31.232-67.584 67.584z" fill="#4E8CEE" p-id="5954"></path><path d="M488.448 625.664l-15.36 20.992c-1.536 2.048-4.096 2.048-5.632 1.024-2.048-1.536-2.048-4.096-1.024-5.632l15.36-20.992c1.536-2.048 4.096-2.048 5.632-1.024 2.048 1.024 2.56 3.584 1.024 5.632zM510.976 625.664l-22.528 31.232c-1.536 2.048-4.096 2.048-5.632 1.024-2.048-1.536-2.048-4.096-1.024-5.632l22.528-31.232c1.536-2.048 4.096-2.048 5.632-1.024 2.048 1.024 2.56 3.584 1.024 5.632z" fill="#FEDFA0" p-id="5955"></path></svg>