<?xml version="1.0" standalone="no"?><!DOCTYPE svg PUBLIC "-//W3C//DTD SVG 1.1//EN" "http://www.w3.org/Graphics/SVG/1.1/DTD/svg11.dtd"><svg t="1578365677991" class="icon" viewBox="0 0 1024 1024" version="1.1" xmlns="http://www.w3.org/2000/svg" p-id="3525" xmlns:xlink="http://www.w3.org/1999/xlink" width="20" height="20"><defs><style type="text/css"></style></defs><path d="M512 512m-500 0a500 500 0 1 0 1000 0 500 500 0 1 0-1000 0Z" fill="#DDB510" p-id="3526"></path><path d="M512 512m-420 0a420 420 0 1 0 840 0 420 420 0 1 0-840 0Z" fill="#FFFFFF" p-id="3527"></path><path d="M680 355.2c-75.2 24-87.2 84.8-87.2 120.8-52-60-52-132.8-52-236-161.6 66.4-121.6 248-127.2 307.2-40.8-36-52-120.8-52-120.8-46.4 24-69.6 84.8-69.6 132.8 0 120.8 98.4 224 220 224h3.2c-51.2-1.6-96-48.8-96-102.4 5.6-54.4 87.2-96.8 87.2-144.8 75.2 30.4 57.6 114.4 57.6 139.2 17.6-18.4 23.2-54.4 23.2-54.4 17.6 12 28.8 36 28.8 60 0 50.4-40.8 96-88 102.4 114.4-8 204-101.6 204-222.4 0-72.8-52-108.8-52-205.6z" fill="#DDB510" p-id="3528"></path></svg>