<?xml version="1.0" standalone="no"?><!DOCTYPE svg PUBLIC "-//W3C//DTD SVG 1.1//EN" "http://www.w3.org/Graphics/SVG/1.1/DTD/svg11.dtd"><svg t="1578365603245" class="icon" viewBox="0 0 1024 1024" version="1.1" xmlns="http://www.w3.org/2000/svg" p-id="2150" xmlns:xlink="http://www.w3.org/1999/xlink" width="20" height="20"><defs><style type="text/css"></style></defs><path d="M719.163077 768.787692c0.787692-0.787692 1.575385-0.787692 2.363077-1.575384l64.590769-55.138462c63.015385-67.741538 101.612308-157.538462 101.612308-256.787692 0-215.04-180.381538-388.332308-398.572308-375.729231-196.923077 11.027692-352.886154 175.655385-353.673846 372.578462-0.787692 100.036923 37.021538 189.833846 99.249231 257.575384l68.52923 58.289231 0.787693 0.787692 207.163077 176.443077 207.950769-176.443077z" fill="#FFAA00" p-id="2151"></path><path d="M195.347692 455.286154c0 174.867692 141.784615 316.652308 316.652308 316.652308s316.652308-141.784615 316.652308-316.652308c0-174.867692-141.784615-316.652308-316.652308-316.652308s-316.652308 141.784615-316.652308 316.652308z" fill="#FFFFFF" p-id="2152"></path><path d="M657.723077 250.486154h-299.323077v0.787692l-3.938462-0.787692v377.304615l224.492308 32.295385h1.575385c7.089231 0 12.603077-5.513846 12.603077-12.603077v-21.267692h63.803077c7.089231 0 12.603077-5.513846 12.603077-12.603077v-349.735385c0.787692-7.876923-4.726154-13.390769-11.815385-13.390769z m-137.058462 222.916923c0-11.815385 9.452308-21.267692 21.267693-21.267692 11.815385 0 21.267692 9.452308 21.267692 21.267692 0 11.815385-9.452308 21.267692-21.267692 21.267692-11.815385 0-21.267692-9.452308-21.267693-21.267692z m132.332308 135.483077h-59.864615v-312.713846c0-6.301538-4.726154-11.815385-11.027693-12.603077l-109.48923-15.753846h179.593846v341.070769z" fill="#FFAA00" p-id="2153"></path></svg>