<?xml version="1.0" standalone="no"?><!DOCTYPE svg PUBLIC "-//W3C//DTD SVG 1.1//EN" "http://www.w3.org/Graphics/SVG/1.1/DTD/svg11.dtd"><svg t="1578365764537" class="icon" viewBox="0 0 1024 1024" version="1.1" xmlns="http://www.w3.org/2000/svg" p-id="6942" xmlns:xlink="http://www.w3.org/1999/xlink" width="20" height="20"><defs><style type="text/css"></style></defs><path d="M834.56 420.864c13.312 13.312 20.48 30.72 20.48 49.664 0 18.944-7.168 36.352-20.48 49.664l-424.96 424.96c-45.568 45.568-105.984 68.608-165.888 68.608s-120.32-23.04-165.888-68.608c-44.032-44.544-68.608-103.424-68.608-165.888s24.576-121.856 68.608-165.888l424.96-424.96c13.312-13.312 30.72-20.48 49.664-20.48 18.944 0 36.352 7.168 49.664 20.48L834.56 420.864z m-220.672 184.832c54.272-54.272 54.272-142.336 0-196.608-54.272-54.272-142.336-54.272-196.608 0-54.272 54.272-54.272 142.336 0 196.608 27.136 27.136 62.464 40.448 98.304 40.448s71.168-13.312 98.304-40.448z m-32.768-163.84c36.352 35.84 36.352 94.72 0 131.072-36.352 36.352-94.72 35.84-131.072 0-36.352-36.352-36.352-94.72 0-131.072 17.92-17.92 41.984-27.136 65.536-27.136 23.552 0 47.616 9.216 65.536 27.136z" fill="#778391" p-id="6943"></path><path d="M885.248 334.336c-12.8 1.536-24.576-7.68-26.112-20.48-5.12-37.376-22.016-71.68-48.64-98.816-29.184-28.672-65.024-45.056-102.4-49.664-12.8-1.536-22.016-13.312-20.48-26.112 1.536-13.312 13.312-23.04 26.112-21.504 49.152 5.12 95.744 27.136 130.56 62.976 35.328 35.328 56.32 80.384 62.464 126.976 1.536 13.312-8.704 25.088-21.504 26.624zM992.256 309.248c-13.312 1.536-25.088-7.68-26.624-20.48-7.68-58.368-34.304-112.128-76.8-153.6-42.496-41.472-97.28-68.096-156.16-75.776-13.312-1.536-22.528-13.824-20.48-26.624v-1.024c1.536-13.312 13.824-22.528 26.624-20.992 68.096 8.704 133.12 38.4 184.832 89.6 50.176 48.64 81.92 113.152 90.624 181.76 1.536 13.312-7.68 25.088-20.992 27.136h-1.024z" fill="#ABB3BB" p-id="6944"></path></svg>