<?xml version="1.0" standalone="no"?><!DOCTYPE svg PUBLIC "-//W3C//DTD SVG 1.1//EN" "http://www.w3.org/Graphics/SVG/1.1/DTD/svg11.dtd"><svg t="1578365663324" class="icon" viewBox="0 0 1024 1024" version="1.1" xmlns="http://www.w3.org/2000/svg" p-id="3113" xmlns:xlink="http://www.w3.org/1999/xlink" width="20" height="20"><defs><style type="text/css"></style></defs><path d="M511.996928 512.009216m-511.990784 0a511.990784 511.990784 0 1 0 1023.981568 0 511.990784 511.990784 0 1 0-1023.981568 0Z" fill="#74C3EE" opacity=".1" p-id="3114"></path><path d="M760.824449 497.707607c-4.778581-4.778581-9.966754-9.557161-15.154927-13.823752-34.986037-29.593067-60.073585-50.618822-11.366195-147.999469a1.774901 1.774901 0 0 0 0.477858-1.433574 7.167871 7.167871 0 0 0 0.955716-1.8773V331.105805a2.901281 2.901281 0 0 0 0.477858-1.911432V323.937934a1.774901 1.774901 0 0 0-0.477858-1.433574 4.334855 4.334855 0 0 0-0.477858-2.38929 1.50184 1.50184 0 0 0-0.477858-0.955716 5.119908 5.119908 0 0 0-0.921584-2.389291 0.955716 0.955716 0 0 1-0.477858-0.955716l-1.433574-1.433574-0.955716-0.955716a1.809034 1.809034 0 0 0-0.921583-0.955716 2.525821 2.525821 0 0 0-1.433575-0.955716V311.069899c-0.477858 0-0.955716-0.477858-1.399441-0.477858a1.740769 1.740769 0 0 0-1.433574-0.477858 6.894809 6.894809 0 0 0-1.8773-0.955716h-0.955716a2.798883 2.798883 0 0 0-1.911432-0.477858h-0.921584a10.785939 10.785939 0 0 0-1.911432 0.477858 1.706636 1.706636 0 0 0-1.399441 0.477858 10.820072 10.820072 0 0 0-1.911433 0.477858 0.955716 0.955716 0 0 1-0.921583 0.477858l-0.477858 0.477858a160.287248 160.287248 0 0 0-92.704465 116.017112 154.996677 154.996677 0 0 0 37.375327 121.717276c2.355158 2.867148 4.710315 5.700164 7.543331 8.567312a167.864712 167.864712 0 0 1 55.806996 106.937809 137.315928 137.315928 0 0 1-45.874374 89.25706h-0.443726a6.621747 6.621747 0 0 0-1.433574 1.911432 1.706636 1.706636 0 0 0-0.477858 0.955716 2.525821 2.525821 0 0 0-0.955716 1.433574c-0.443725 0.477858-0.443725 0.955716-0.921584 1.433575a2.867148 2.867148 0 0 1-0.477858 1.911432 1.774901 1.774901 0 0 1-0.477858 1.433574v1.911432a1.774901 1.774901 0 0 0-0.477858 1.433574v1.911433c0 0.477858 0.477858 1.433574 0.477858 1.911432v1.399441a2.901281 2.901281 0 0 1 0.477858 1.911433c0.273062 0 0.477858 0.238929 0.477858 0.477858v0.477858c0.477858 1.433574 1.399441 2.38929 1.8773 3.822864 0.273062 0 0.477858 0.238929 0.477858 0.477858 0 0.477858 0 0.477858 0.477858 0.477859 0.682654 1.194645 1.672503 2.184494 2.833016 2.867148a1.638371 1.638371 0 0 0 0.955716 0.477858l2.833016 1.433574a1.672503 1.672503 0 0 0 0.921583 0.477858 10.990736 10.990736 0 0 0 3.788732 0.955716h0.477858a1.638371 1.638371 0 0 1 0.955716-0.477858h1.877299l0.477859-0.477858 2.38929-0.477858c95.503348-44.884525 121.512479-102.637086 126.700653-143.186756a167.830579 167.830579 0 0 0-57.684295-142.74303m-204.284323-1.433575a405.496701 405.496701 0 0 0-15.598653-13.823751C506.399162 452.857214 481.277481 431.797326 530.019004 334.450812V333.05137A2.491688 2.491688 0 0 0 530.97472 331.105805c0-0.477858 0.477858-0.955716 0.477858-1.433574V327.794932a2.321025 2.321025 0 0 0 0.477858-1.911433V324.449925c0-0.477858-0.477858-1.433574-0.477858-1.911432V321.104919c-0.477858-0.955716-0.477858-1.433574-0.955716-2.389291V317.759912c-0.477858-0.955716-0.955716-1.433574-1.399442-2.38929a0.955716 0.955716 0 0 0-0.477858-0.955716 2.525821 2.525821 0 0 1-0.955716-1.433574 1.023982 1.023982 0 0 1-0.955716-0.955716 1.809034 1.809034 0 0 1-0.921583-0.955717 2.457556 2.457556 0 0 0-1.911433-0.955716V309.636325c-0.477858 0-0.955716-0.477858-1.399441-0.477858a0.955716 0.955716 0 0 0-0.955716-0.477858 6.894809 6.894809 0 0 1-1.911433-0.955716h-1.399441a2.252759 2.252759 0 0 0-1.911432-0.477858H515.4102a10.683541 10.683541 0 0 0-1.911432 0.477858 1.706636 1.706636 0 0 0-1.399442 0.477858c-0.477858 0-1.433574 0.477858-1.911432 0.477858a0.955716 0.955716 0 0 1-0.921583 0.477858v0.477858A157.897958 157.897958 0 0 0 416.527713 425.653437a151.549272 151.549272 0 0 0 37.375328 121.717276c2.355158 2.867148 4.710315 5.700164 7.54333 8.567312a170.117471 170.117471 0 0 1 55.806996 106.937809 140.490271 140.490271 0 0 1-46.352232 89.25706h-0.443726a7.03134 7.03134 0 0 0-0.955716 1.911432 1.809034 1.809034 0 0 0-0.955716 0.955716c-0.477858 0.477858-0.477858 0.955716-0.955716 1.433574-0.443725 0.477858-0.443725 0.955716-0.443726 1.433574a2.901281 2.901281 0 0 0-0.477858 1.911433 1.774901 1.774901 0 0 0-0.477858 1.433574 2.901281 2.901281 0 0 0-0.477858 1.911432v5.256439a1.774901 1.774901 0 0 0 0.477858 1.433574c-0.068265 0.682654 0.102398 1.331176 0.477858 1.8773v0.955716a16.725032 16.725032 0 0 0 2.389291 3.822864c0 0.273062 0.170664 0.477858 0.443725 0.477858v0.477858l2.833016 2.867149c0.477858 0 0.477858 0.477858 0.955716 0.477858l2.833016 1.433574c0.341327 0.068265 0.682654 0.238929 0.955716 0.477858a14.43814 14.43814 0 0 0 3.754599 0.955716h0.477858a1.638371 1.638371 0 0 1 0.955716-0.477858h1.8773l0.955716-0.477858 1.877299-0.477858c95.571613-44.850393 121.546612-102.637086 127.212644-143.186756a170.390533 170.390533 0 0 0-57.684295-142.743031m-210.428213 1.433575c-5.188173-4.778581-9.932621-9.557161-15.120794-13.823752C295.936817 454.290788 270.883402 433.265033 319.590791 335.884386a1.774901 1.774901 0 0 1 0.477859-1.433574 10.92247 10.92247 0 0 0 0.477858-1.8773c0-0.477858 0.477858-0.955716 0.477858-1.433574V329.228506a2.286892 2.286892 0 0 0 0.443725-1.911432V325.883499c0-0.477858-0.443725-1.433574-0.443725-1.911432V322.538493a4.334855 4.334855 0 0 1-0.477858-2.38929c-0.477858 0-0.477858-0.477858-0.477858-0.955716-0.477858-0.955716-0.955716-1.433574-1.433575-2.389291a0.955716 0.955716 0 0 0-0.443725-0.955716C317.713492 315.404755 317.713492 314.892764 317.235634 314.414906a1.774901 1.774901 0 0 1-0.955716-0.955716 1.809034 1.809034 0 0 1-0.955716-0.955716 2.491688 2.491688 0 0 0-1.399442-0.955717 0.477858 0.477858 0 0 1-0.477858-0.477858A1.638371 1.638371 0 0 1 312.491186 310.626174a1.740769 1.740769 0 0 0-1.399442-0.477858C310.613886 309.636325 309.65817 309.636325 309.180312 309.158467h-0.921583a3.583935 3.583935 0 0 0-1.911432-0.477858h-1.399442c-0.477858 0-1.433574 0.477858-1.911432 0.477858-0.477858 0-0.955716 0-0.955716 0.477858-0.921583 0-1.399441 0.477858-2.355158 0.477858A0.477858 0.477858 0 0 1 299.247691 310.626174h-0.477858v0.477858A159.05847 159.05847 0 0 0 206.099501 427.087011a153.255908 153.255908 0 0 0 37.375327 121.717276c2.355158 2.867148 4.710315 5.700164 7.543331 8.567312a170.117471 170.117471 0 0 1 55.806996 106.937809 136.018885 136.018885 0 0 1-46.352233 89.25706 6.65588 6.65588 0 0 0-1.399441 1.911432 1.809034 1.809034 0 0 0-0.955716 0.955716c-0.477858 0.477858-0.477858 0.955716-0.955716 1.433574-0.477858 0.477858-0.477858 0.955716-0.477859 1.433575 0 0.477858-0.443725 1.433574-0.443725 1.911432a1.774901 1.774901 0 0 0-0.477858 1.433574c0 0.477858-0.477858 1.433574-0.477858 1.911432v5.256439c0 0.443725 0.477858 0.955716 0.477858 1.399441-0.068265 0.682654 0.102398 1.365309 0.477858 1.911433v0.477858c0 0.273062 0.204796 0.477858 0.443725 0.477858 0.443725 1.365309 1.092247 2.662352 1.911433 3.822864 0 0.273062 0.204796 0.477858 0.477858 0.477858v0.477859l2.833015 2.867148c0.477858 0 0.477858 0.477858 0.955717 0.477858l2.833015 1.433574c0.477858 0 0.921583 0.477858 1.399442 0.477858a8.806241 8.806241 0 0 0 3.788732 0.955716c0.477858 0 0.477858-0.477858 0.955716-0.477858h1.877299l0.955716-0.477858 1.8773-0.477858h0.477858c95.059622-44.884525 121.512479-102.637086 126.734785-143.186756A168.991091 168.991091 0 0 0 346.111914 497.673474" fill="#74C3EE" p-id="3115"></path></svg>