<?xml version="1.0" standalone="no"?><!DOCTYPE svg PUBLIC "-//W3C//DTD SVG 1.1//EN" "http://www.w3.org/Graphics/SVG/1.1/DTD/svg11.dtd"><svg t="1578365633421" class="icon" viewBox="0 0 1024 1024" version="1.1" xmlns="http://www.w3.org/2000/svg" p-id="2361" xmlns:xlink="http://www.w3.org/1999/xlink" width="20" height="20"><defs><style type="text/css"></style></defs><path d="M486.7072 277.6576H153.6a25.6 25.6 0 0 0-25.6 25.6v537.6a25.6 25.6 0 0 0 25.6 25.6h344.7552A25.6 25.6 0 0 1 486.4 844.8V281.6c0-1.3312 0.1024-2.6624 0.3072-3.9424z m50.5856 0c0.2048 1.28 0.3072 2.6112 0.3072 3.9424v563.2a25.6 25.6 0 0 1-11.9552 21.6576H870.4a25.6 25.6 0 0 0 25.6-25.6v-537.6a25.6 25.6 0 0 0-25.6-25.6H537.2928zM102.4 230.4h819.2a25.6 25.6 0 0 1 25.6 25.6v665.6a25.6 25.6 0 0 1-25.6 25.6H102.4a25.6 25.6 0 0 1-25.6-25.6V256a25.6 25.6 0 0 1 25.6-25.6z" fill="#FEC142" p-id="2362"></path><path d="M0 870.4h1024v76.8H0zM685.6704 401.3568a23.04 23.04 0 0 1 32.5888 0l130.4064 130.3808a23.04 23.04 0 1 1-32.6144 32.5888l-130.3808-130.3808a23.04 23.04 0 0 1 0-32.5888z m-419.968 0a23.04 23.04 0 0 1 32.5888 0l130.3808 130.3808a23.04 23.04 0 0 1-32.5888 32.5888l-130.3808-130.3808a23.04 23.04 0 0 1 0-32.5888z m350.8224 69.12a23.04 23.04 0 0 1 32.5888 0l65.2032 65.2032A23.04 23.04 0 1 1 681.728 568.32l-65.2032-65.2032a23.04 23.04 0 0 1 0-32.5888z m-419.968 0a23.04 23.04 0 0 1 32.5888 0l65.2032 65.2032a23.04 23.04 0 0 1-32.6144 32.6144l-65.1776-65.2032a23.04 23.04 0 0 1 0-32.5888z" fill="#FEC142" p-id="2363"></path></svg>