<?xml version="1.0" standalone="no"?><!DOCTYPE svg PUBLIC "-//W3C//DTD SVG 1.1//EN" "http://www.w3.org/Graphics/SVG/1.1/DTD/svg11.dtd"><svg t="1578367248372" class="icon" viewBox="0 0 1024 1024" version="1.1" xmlns="http://www.w3.org/2000/svg" p-id="11404" xmlns:xlink="http://www.w3.org/1999/xlink" width="20" height="20"><defs><style type="text/css"></style></defs><path d="M800.768 361.472c0 22.528-3.072 43.52-9.728 62.976-6.656 19.456-13.824 35.328-22.016 48.128-8.192 12.288-19.456 24.576-34.304 37.376-14.848 12.288-26.624 21.504-35.84 27.136-9.216 5.632-22.016 12.8-37.888 22.016-16.896 9.728-31.232 23.04-43.008 40.448-11.264 17.408-17.408 31.232-17.408 41.984 0 7.168-2.56 13.824-7.68 20.48s-10.752 9.728-17.408 9.728H425.984c-6.144 0-11.776-3.584-15.872-11.776s-6.656-15.36-6.656-23.552v-28.16c0-34.816 13.312-67.072 40.448-97.792s56.832-53.248 89.6-68.096c24.576-11.264 41.984-23.04 52.736-34.816 10.24-12.288 15.872-27.648 15.872-47.616 0-17.408-9.728-32.768-29.184-46.08-19.456-13.312-41.984-19.968-67.072-19.968-27.136 0-49.664 6.144-67.584 17.92-14.848 10.24-36.864 34.304-67.072 71.68-5.632 6.656-11.776 10.24-19.456 10.24-5.12 0-10.24-1.536-15.872-5.12l-102.4-78.336c-5.632-4.096-8.704-9.216-9.728-15.872-1.024-6.144 0-12.288 3.584-17.408 66.56-110.592 163.328-166.4 290.304-166.4 33.28 0 67.072 6.656 100.864 19.456s64 30.208 91.136 51.712 49.152 48.128 66.048 79.872c16.896 32.256 25.088 65.536 25.088 99.84z" fill="#FFCC51" p-id="11405"></path><path d="M401.408 812.032a101.888 99.84 0 1 0 203.776 0 101.888 99.84 0 1 0-203.776 0Z" fill="#FFCC51" p-id="11406"></path></svg>