<?xml version="1.0" standalone="no"?><!DOCTYPE svg PUBLIC "-//W3C//DTD SVG 1.1//EN" "http://www.w3.org/Graphics/SVG/1.1/DTD/svg11.dtd"><svg t="1578367676444" class="icon" viewBox="0 0 1024 1024" version="1.1" xmlns="http://www.w3.org/2000/svg" p-id="22380" xmlns:xlink="http://www.w3.org/1999/xlink" width="20" height="20"><defs><style type="text/css"></style></defs><path d="M609.2 253.1c-29.1 0-55.9 8.5-78.5 23.3-6.1 5.1-7.8 14.7-2.9 21.1 4.9 6.4 14.1 7.8 20.6 3.1 18-11.4 39-17.6 60.8-17.6 30.5 0 59.1 11.9 80.6 33.4 21.5 21.5 33.4 50.2 33.4 80.6 0 21.8-6.1 42.7-17.5 60.8-5 6.6-3.7 16.1 2.8 21.1 6.6 5 16 3.8 21-2.8 14.9-22.7 23.6-49.8 23.6-79 0.1-79.6-64.4-144-143.9-144z" fill="#5DB063" p-id="22381"></path><path d="M544.4 98.2c-47.5 0-92.7 9.4-134.1 26.4-7.4 3.5-10.7 12.3-7.2 19.8 3.4 7.5 12.2 10.8 19.7 7.5l0.1 0.1c38.6-15.7 79.4-23.7 121.5-23.7 43.5 0 85.6 8.5 125.3 25.3 38.3 16.2 72.8 39.4 102.4 69s52.8 64 69 102.4c16.8 39.7 25.3 81.8 25.3 125.3 0 41.8-7.9 82.4-23.4 120.8-3.5 7.3-0.5 16.2 6.7 19.9 7.3 3.7 16.4 0.9 20.2-6.4 17.1-41.4 26.5-86.7 26.5-134.3 0-194.5-157.6-352.1-352-352.1zM638.1 640.6c-7.7-7.7-20.5-7.8-28.3 0L514.4 736c-6.2 6.2-16.4 6.2-22.6 0L288.1 532.2c-6.2-6.2-6.2-16.4 0-22.6l95.4-95.4c7.8-7.8 7.7-20.5 0-28.3l-198-198c-7.8-7.8-20.7-8-28.5-0.2-6.3 7.1-12.4 14.4-18.2 21.8-29.8 32.1-63.9 90.1-56.9 136.7 41.7 279.4 330.5 568.6 596.5 596.5 44.1 4.6 91.8-26.5 128.9-55 9.4-7.2 18.5-14.7 27.3-22.5 7.8-7.8 8-20.2 0.3-28L638.1 640.6z" fill="#5DB063" p-id="22382"></path></svg>