<?xml version="1.0" standalone="no"?><!DOCTYPE svg PUBLIC "-//W3C//DTD SVG 1.1//EN" "http://www.w3.org/Graphics/SVG/1.1/DTD/svg11.dtd"><svg t="1565145179809" class="icon" viewBox="0 0 1024 1024" version="1.1" xmlns="http://www.w3.org/2000/svg" p-id="47463" xmlns:xlink="http://www.w3.org/1999/xlink" width="40" height="40"><defs><style type="text/css"></style></defs><path d="M917.14 546.76c6.54 6.54 9.86 14.42 9.86 23.34 0 9.03-3.22 16.81-9.86 23.34-6.54 6.54-14.42 9.86-23.34 9.86H777.6c0 59.14-11.51 109.35-34.86 150.54l107.9 108.53c6.53 6.53 9.85 14.32 9.85 23.34 0 8.92-3.22 16.8-9.85 23.34-6.23 6.53-14.01 9.85-23.34 9.85-9.44 0-17.12-3.22-23.34-9.85l-102.61-102.4c-1.76 1.76-4.36 3.94-7.78 6.74-3.43 2.69-10.68 7.78-21.89 14.84-11 7.05-22.3 13.48-33.72 18.98-11.41 5.6-25.63 10.58-42.54 15.05-16.91 4.46-33.72 6.74-50.32 6.74V404h-66.51v464.9c-17.74 0-35.27-2.29-52.7-6.95-17.43-4.67-32.48-10.37-45.13-17.12-12.66-6.74-23.97-13.59-34.34-20.13-10.27-6.74-17.74-12.35-22.62-16.91l-7.78-7.27-94.73 107.18c-6.85 7.26-15.25 10.9-24.9 10.9-8.3 0-15.67-2.7-22.31-8.3-6.54-6.23-10.17-14.01-10.58-23.14-0.52-9.23 2.18-17.22 8.09-24.07l104.79-117.76c-20.03-39.42-30.19-86.84-30.19-142.24H130.2c-8.93 0-16.81-3.22-23.34-9.86-6.54-6.53-9.86-14.32-9.86-23.34 0-8.92 3.22-16.8 9.86-23.34 6.53-6.53 14.32-9.85 23.34-9.85h116.2V384.39l-89.74-89.74c-6.53-6.53-9.86-14.32-9.86-23.34 0-8.92 3.22-16.81 9.86-23.34 6.64-6.53 14.32-9.86 23.34-9.86 8.92 0 16.81 3.22 23.34 9.86l89.74 89.74h437.83l89.74-89.74c6.53-6.53 14.32-9.86 23.34-9.86 8.92 0 16.81 3.22 23.34 9.86 6.54 6.53 9.86 14.42 9.86 23.34s-3.22 16.81-9.86 23.34l-89.74 89.74V536.9h116.2c9.14-0.11 16.82 3.22 23.35 9.86zM678.1 271.19H345.9c0-46.06 16.18-85.18 48.55-117.54 32.26-32.27 71.49-48.56 117.55-48.56s85.18 16.19 117.55 48.56c32.26 32.36 48.55 71.48 48.55 117.54z m0 0" p-id="47464"></path></svg>