<?xml version="1.0" standalone="no"?><!DOCTYPE svg PUBLIC "-//W3C//DTD SVG 1.1//EN" "http://www.w3.org/Graphics/SVG/1.1/DTD/svg11.dtd"><svg t="1567067898339" class="icon" viewBox="0 0 1024 1024" version="1.1" xmlns="http://www.w3.org/2000/svg" p-id="28594" xmlns:xlink="http://www.w3.org/1999/xlink" width="100" height="100"><defs><style type="text/css"></style></defs><path d="M873.6 150.4C780.8 57.6 652.8 0 512 0 230.4 0 0 230.4 0 512s230.4 512 512 512c140.8 0 268.8-57.6 361.6-150.4C966.4 780.8 1024 652.8 1024 512s-57.6-268.8-150.4-361.6zM512 640c22.4 0 44.8-6.4 64-19.2l92.8 92.8C624 748.8 569.6 768 512 768c-140.8 0-256-115.2-256-256s115.2-256 256-256c57.6 0 112 19.2 156.8 54.4L576 403.2c-19.2-12.8-41.6-19.2-64-19.2-70.4 0-128 57.6-128 128s57.6 128 128 128z m0-448C336 192 192 336 192 512s144 320 320 320c73.6 0 144-25.6 201.6-73.6l89.6 89.6C726.4 918.4 624 960 512 960 265.6 960 64 758.4 64 512S265.6 64 512 64c112 0 214.4 41.6 294.4 108.8l-89.6 89.6C656 217.6 585.6 192 512 192z" fill="" p-id="28595"></path></svg>