<?xml version="1.0" standalone="no"?><!DOCTYPE svg PUBLIC "-//W3C//DTD SVG 1.1//EN" "http://www.w3.org/Graphics/SVG/1.1/DTD/svg11.dtd"><svg t="1562575256669" class="icon" viewBox="0 0 1024 1024" version="1.1" xmlns="http://www.w3.org/2000/svg" p-id="23794" width="40" height="40" xmlns:xlink="http://www.w3.org/1999/xlink"><defs><style type="text/css"></style></defs><path d="M976.7 49.2c-32-32-76.1-47.3-124.9-47.3-76.8 0-165.1 38-236.2 109.1L184.3 542.3l299.3 299.3 431.3-431.3C1031.2 294 1059 131.5 976.7 49.2zM858.5 353.9L483.6 728.7 297.2 542.3 672 167.4c53.7-53.7 120.9-85.7 179.8-85.7 20.3 0 48.6 4.2 68.4 24 44.1 44.1 29.6 156.8-61.7 248.2zM4.1 955.9c-13 37.7 6.6 66.2 39.5 66.2 7 0 14.6-1.3 22.7-4.1l359.9-124.2L128.3 596 4.1 955.9z m275.5-95.6L100 922.7l62.1-180 117.5 117.6z" p-id="23795"></path></svg>