<?xml version="1.0" encoding="utf-8"?>
<!-- Generator: Adobe Illustrator 15.0.0, SVG Export Plug-In . SVG Version: 6.00 Build 0)  -->
<!DOCTYPE svg PUBLIC "-//W3C//DTD SVG 1.1//EN" "http://www.w3.org/Graphics/SVG/1.1/DTD/svg11.dtd">
<svg version="1.1" id="图层_1" xmlns="http://www.w3.org/2000/svg" xmlns:xlink="http://www.w3.org/1999/xlink" x="0px" y="0px"
	 width="57.5px" height="60.5px" viewBox="3.3 0.7 57.5 60.5" enable-background="new 3.3 0.7 57.5 60.5" xml:space="preserve">
<path d="M58.7,61.2H5.3c-1.1,0-2-0.9-2-2V44.4c0-1.101,0.9-2,2-2c1.1,0,2,0.899,2,2V57.3h49.5V44.4c0-1.101,0.9-2,2-2
	c1.101,0,2,0.899,2,2V59.3C60.7,60.3,59.9,61.2,58.7,61.2z"/>
<path d="M32,46.4c-1.1,0-2-0.9-2-2L29.8,2.7c0-1.1,0.9-2,2-2c1.101,0,2,0.9,2,2L34,44.3C34,45.5,33.1,46.3,32,46.4z"/>
<path d="M52.1,24.1c-0.5,0-1-0.2-1.399-0.6L30.4,4.2c-0.8-0.8-0.8-2-0.1-2.8c0.8-0.8,2-0.8,2.8-0.1l20.2,19.4
	c0.8,0.8,0.8,2,0.101,2.8C53.1,23.9,52.6,24.1,52.1,24.1z"/>
<path d="M11.9,24.1c-0.5,0-1-0.2-1.4-0.6c-0.8-0.8-0.8-2.1,0-2.8L30.4,1.3c0.8-0.8,2.1-0.8,2.8,0c0.8,0.8,0.8,2.1,0,2.8L13.3,23.5
	C12.9,23.9,12.4,24.1,11.9,24.1z"/>
</svg>
