<?xml version="1.0" encoding="utf-8"?>
<!-- Generator: Adobe Illustrator 15.0.0, SVG Export Plug-In . SVG Version: 6.00 Build 0)  -->
<!DOCTYPE svg PUBLIC "-//W3C//DTD SVG 1.1//EN" "http://www.w3.org/Graphics/SVG/1.1/DTD/svg11.dtd">
<svg version="1.1" id="图层_1" xmlns="http://www.w3.org/2000/svg" xmlns:xlink="http://www.w3.org/1999/xlink" x="0px" y="0px"
	 width="58.708px" height="62.6px" viewBox="2.6 0.7 58.708 62.6" enable-background="new 2.6 0.7 58.708 62.6"
	 xml:space="preserve">
<path d="M31.8,47.3c-1.1,0-2-0.899-2-2L30,2.7c0-1.1,0.9-2,2-2c1.1,0,2,0.9,2,2l-0.1,42.6C33.8,46.4,32.9,47.3,31.8,47.3z"/>
<path d="M59.4,63.3H4.6c-1.1,0-2-0.899-2-2V46.1c0-1.1,0.9-2,2-2s2,0.9,2,2v13.2h50.7V46.1c0-1.1,0.9-2,2-2c1.101,0,2,0.9,2,2v15.2
	C61.4,62.4,60.5,63.3,59.4,63.3z"/>
<path d="M31.8,47.3c-0.5,0-1.1-0.2-1.4-0.6c-0.8-0.8-0.7-2.101,0.1-2.8L51.1,24c0.801-0.8,2.101-0.7,2.801,0.1
	c0.8,0.8,0.699,2.1-0.101,2.8L33.2,46.7C32.8,47.1,32.3,47.3,31.8,47.3z"/>
<path d="M31.8,47.3c-0.5,0-1-0.2-1.4-0.6L10.1,27c-0.8-0.8-0.8-2,0-2.8c0.8-0.8,2-0.8,2.8,0L33.2,44c0.8,0.8,0.8,2,0,2.8
	C32.9,47.1,32.3,47.3,31.8,47.3z"/>
</svg>
