<?xml version="1.0" encoding="utf-8"?>
<!-- Generator: Adobe Illustrator 15.0.0, SVG Export Plug-In . SVG Version: 6.00 Build 0)  -->
<!DOCTYPE svg PUBLIC "-//W3C//DTD SVG 1.1//EN" "http://www.w3.org/Graphics/SVG/1.1/DTD/svg11.dtd">
<svg version="1.1" id="图层_1" xmlns="http://www.w3.org/2000/svg" xmlns:xlink="http://www.w3.org/1999/xlink" x="0px" y="0px"
	 width="51.856px" height="56.284px" viewBox="4.015 2.529 51.856 56.284" enable-background="new 4.015 2.529 51.856 56.284"
	 xml:space="preserve">
<path d="M53.975,58.813H5.95c-0.513,0-0.975-0.313-1.163-0.787c-1.163-2.926-1-6.9,0.4-9.65c2.075-4.075,6.825-5.075,9.388-5.612
	l0.1-0.025c0.538-0.112,5.225-1.2,4.988-4.612c-0.1-1.438-1.138-2.813-2.238-4.263c-1.275-1.688-2.712-3.587-3.025-6.037
	c-0.038-0.288-0.1-0.663-0.163-1.1c-0.612-3.85-2.025-12.888,2.725-18.788c2.625-3.263,6.712-5.075,12.138-5.4h0.012
	c2.538-0.125,5.95,1.125,7.112,3.362c0.088,0.1,0.426,0.15,0.938,0.238c0.25,0.037,0.525,0.087,0.838,0.15
	c1.713,0.35,6.237,3.087,6.688,11.438c0.05,1,0.112,1.875,0.15,2.65c0.324,5.337,0.387,6.438-2.013,10.212
	c-0.325,0.513-0.65,1-0.95,1.462c-2.1,3.2-3.075,4.825-2.513,6.726c0.601,2,2.075,3.475,7.563,4.662
	c5.851,1.275,7.75,4.213,8.362,5.838c0.538,1.449,1.051,5.5-0.149,8.725C54.963,58.487,54.5,58.813,53.975,58.813z M6.85,56.313
	h46.212c0.638-2.475,0.225-5.3-0.1-6.162c-0.351-0.938-1.688-3.213-6.551-4.275c-4.813-1.05-8.262-2.537-9.425-6.388
	c-0.938-3.112,0.713-5.625,2.813-8.825c0.3-0.462,0.612-0.938,0.938-1.438c1.976-3.075,1.95-3.5,1.625-8.712
	c-0.05-0.775-0.1-1.663-0.149-2.675C41.838,11,38.4,8.913,37.5,8.737c-0.25-0.05-0.487-0.087-0.713-0.125
	c-0.938-0.15-2.012-0.313-2.688-1.4c-0.024-0.038-0.037-0.075-0.063-0.112c-0.55-1.125-2.925-2.138-4.8-2.05
	c-4.7,0.275-8.175,1.788-10.337,4.463c-4.063,5.037-2.75,13.3-2.2,16.825c0.075,0.45,0.137,0.85,0.175,1.163
	c0.237,1.8,1.35,3.288,2.538,4.862c1.262,1.688,2.575,3.425,2.725,5.601c0.137,2.037-0.713,3.837-2.475,5.212
	c-1.688,1.325-3.712,1.851-4.5,2.013l-0.1,0.025c-2.3,0.487-6.138,1.287-7.663,4.3C6.45,51.4,6.25,54.138,6.85,56.313L6.85,56.313z"
	/>
</svg>
