<?xml version="1.0" encoding="utf-8"?>
<!-- Generator: Adobe Illustrator 16.0.0, SVG Export Plug-In . SVG Version: 6.00 Build 0)  -->
<!DOCTYPE svg PUBLIC "-//W3C//DTD SVG 1.1//EN" "http://www.w3.org/Graphics/SVG/1.1/DTD/svg11.dtd">
<svg version="1.1" id="图层_1" xmlns="http://www.w3.org/2000/svg" xmlns:xlink="http://www.w3.org/1999/xlink" x="0px" y="0px"
	 width="64px" height="64px" viewBox="0 0 64 64" enable-background="new 0 0 64 64" xml:space="preserve">
<path d="M32,64C14.4,64,0,49.602,0,32C0,14.4,14.4,0,32,0c17.601,0,32,14.4,32,32C64,49.602,49.601,64,32,64z M32,59.999
	c15.601,0,27.999-12.398,27.999-27.999C59.999,16.4,47.601,4,32,4C16.4,4,4,16.4,4,32C4,47.601,16.4,59.999,32,59.999z"/>
<path d="M20.709,20.708h23.582v23.583H20.709V20.708z"/>
</svg>
