<?xml version="1.0" encoding="utf-8"?>
<!-- Generator: Adobe Illustrator 15.0.0, SVG Export Plug-In . SVG Version: 6.00 Build 0)  -->
<!DOCTYPE svg PUBLIC "-//W3C//DTD SVG 1.1//EN" "http://www.w3.org/Graphics/SVG/1.1/DTD/svg11.dtd">
<svg version="1.1" id="图层_1" xmlns="http://www.w3.org/2000/svg" xmlns:xlink="http://www.w3.org/1999/xlink" x="0px" y="0px"
	 width="55.994px" height="55.994px" viewBox="4 3.987 55.994 55.994" enable-background="new 4 3.987 55.994 55.994"
	 xml:space="preserve">
<path d="M58.544,21.413c-0.8,0-1.45-0.65-1.45-1.45V7.1c0-0.113-0.094-0.207-0.206-0.207H44.025c-0.801,0-1.45-0.65-1.45-1.45
	c0-0.8,0.649-1.45,1.45-1.45h12.855c1.713,0,3.113,1.394,3.113,3.113v12.856C59.994,20.763,59.344,21.413,58.544,21.413z
	 M5.456,21.413c-0.8,0-1.45-0.65-1.45-1.45V7.1c0-1.712,1.394-3.113,3.112-3.113h12.669c0.8,0,1.45,0.65,1.45,1.45
	s-0.65,1.45-1.45,1.45H7.112C7,6.888,6.906,6.981,6.906,7.094V19.95C6.906,20.763,6.256,21.413,5.456,21.413z M19.788,59.981H7.112
	C5.4,59.981,4,58.588,4,56.869V44.013c0-0.8,0.65-1.45,1.45-1.45c0.8,0,1.45,0.65,1.45,1.45v12.862c0,0.112,0.094,0.206,0.207,0.206
	h12.668c0.8,0,1.45,0.65,1.45,1.45S20.587,59.981,19.788,59.981z M56.888,59.981H44.025c-0.801,0-1.45-0.65-1.45-1.45
	s0.649-1.45,1.45-1.45h12.855c0.113,0,0.207-0.094,0.207-0.206V44.013c0-0.8,0.649-1.45,1.449-1.45c0.801,0,1.45,0.65,1.45,1.45
	v12.862C59.994,58.588,58.6,59.981,56.888,59.981L56.888,59.981z"/>
<path d="M25.506,26.944c-0.369,0-0.744-0.144-1.025-0.425L5.675,7.712c-0.568-0.569-0.568-1.487,0-2.05
	c0.569-0.569,1.488-0.569,2.05,0l18.806,18.806c0.569,0.569,0.569,1.487,0,2.05C26.25,26.806,25.875,26.944,25.506,26.944z
	 M57.3,58.737c-0.368,0-0.743-0.144-1.024-0.425L38.438,40.481c-0.568-0.569-0.568-1.487,0-2.05c0.568-0.569,1.487-0.569,2.05,0
	l17.831,17.831c0.569,0.568,0.569,1.487,0,2.05C58.044,58.6,57.669,58.737,57.3,58.737z M6.7,58.737
	c-0.369,0-0.744-0.144-1.025-0.425c-0.568-0.568-0.568-1.487,0-2.05l18.807-18.807c0.568-0.568,1.487-0.568,2.05,0
	c0.569,0.569,0.569,1.487,0,2.05L7.725,58.313C7.444,58.6,7.069,58.737,6.7,58.737z M38.494,26.944
	c-0.369,0-0.744-0.144-1.025-0.425c-0.568-0.568-0.568-1.487,0-2.05L56.275,5.663c0.568-0.569,1.487-0.569,2.05,0
	c0.568,0.569,0.568,1.487,0,2.05L39.519,26.519C39.237,26.806,38.862,26.944,38.494,26.944z"/>
</svg>
