<?xml version="1.0" encoding="utf-8"?>
<!-- Generator: Adobe Illustrator 15.0.0, SVG Export Plug-In . SVG Version: 6.00 Build 0)  -->
<!DOCTYPE svg PUBLIC "-//W3C//DTD SVG 1.1//EN" "http://www.w3.org/Graphics/SVG/1.1/DTD/svg11.dtd">
<svg version="1.1" id="图层_1" xmlns="http://www.w3.org/2000/svg" xmlns:xlink="http://www.w3.org/1999/xlink" x="0px" y="0px"
	 width="51.881px" height="51.887px" viewBox="6.125 6.131 51.881 51.887" enable-background="new 6.125 6.131 51.881 51.887"
	 xml:space="preserve">
<path d="M50.438,43.969h-9.731c-0.6,0-1.081-0.481-1.081-1.081c0-0.594,0.481-1.081,1.081-1.081h9.731c0.6,0,1.081,0.48,1.081,1.081
	C51.513,43.487,51.031,43.969,50.438,43.969z M50.438,35.862h-9.731c-0.6,0-1.081-0.481-1.081-1.081s0.481-1.081,1.081-1.081h9.731
	c0.6,0,1.081,0.481,1.081,1.081S51.031,35.862,50.438,35.862z M50.438,27.756h-9.731c-0.6,0-1.081-0.481-1.081-1.082
	c0-0.6,0.481-1.081,1.081-1.081h9.731c0.6,0,1.081,0.481,1.081,1.081C51.519,27.275,51.031,27.756,50.438,27.756z M26.656,29.919
	H15.85c-0.6,0-1.082-0.481-1.082-1.082c0-0.594,0.481-1.081,1.082-1.081h10.806c0.6,0,1.081,0.481,1.081,1.081
	S27.256,29.919,26.656,29.919z M26.656,20.194H15.85c-0.6,0-1.082-0.481-1.082-1.082c0-0.594,0.481-1.081,1.082-1.081h10.806
	c0.6,0,1.081,0.481,1.081,1.081C27.737,19.712,27.256,20.194,26.656,20.194z M27.737,56.938h-2.162v-14.05
	c0-0.594-0.488-1.081-1.082-1.081h-6.481c-0.594,0-1.082,0.487-1.082,1.081v14.05h-2.163v-14.05c0-1.788,1.457-3.244,3.244-3.244
	H24.5c1.788,0,3.244,1.456,3.244,3.244v14.05H27.737z"/>
<path d="M56.919,58.019H35.307v-2.162h20.531V22.894c0-1.787-1.457-3.244-3.244-3.244H35.307v-2.163H52.6
	c2.981,0,5.406,2.425,5.406,5.406v34.044C58,57.537,57.519,58.019,56.919,58.019z"/>
<path d="M35.307,58.019H7.206c-0.6,0-1.081-0.481-1.081-1.081v-45.4c0-2.981,2.425-5.406,5.406-5.406h19.45
	c2.981,0,5.406,2.425,5.406,5.406v45.4C36.388,57.537,35.9,58.019,35.307,58.019z M8.288,55.856h25.937V11.538
	c0-1.788-1.456-3.244-3.243-3.244h-19.45c-1.788,0-3.244,1.456-3.244,3.244V55.856z"/>
</svg>
