<?xml version="1.0" standalone="no"?><!DOCTYPE svg PUBLIC "-//W3C//DTD SVG 1.1//EN" "http://www.w3.org/Graphics/SVG/1.1/DTD/svg11.dtd"><svg t="1602668256853" class="icon" viewBox="0 0 1024 1024" version="1.1" xmlns="http://www.w3.org/2000/svg" p-id="1280" width="64" height="64" xmlns:xlink="http://www.w3.org/1999/xlink"><defs><style type="text/css"></style></defs><path d="M896 928c-8.2 0-16.4-3.1-22.6-9.4l-768-768c-12.5-12.5-12.5-32.8 0-45.3s32.8-12.5 45.3 0l768 768c12.5 12.5 12.5 32.8 0 45.3-6.3 6.3-14.5 9.4-22.7 9.4z" fill="#000000" p-id="1281"></path><path d="M128 928c-8.2 0-16.4-3.1-22.6-9.4-12.5-12.5-12.5-32.8 0-45.3l768-768c12.5-12.5 32.8-12.5 45.3 0s12.5 32.8 0 45.3l-768 768c-6.3 6.3-14.5 9.4-22.7 9.4z" fill="#000000" p-id="1282"></path></svg>