<?xml version="1.0" encoding="utf-8"?>
<!-- Generator: Adobe Illustrator 15.0.0, SVG Export Plug-In . SVG Version: 6.00 Build 0)  -->
<!DOCTYPE svg PUBLIC "-//W3C//DTD SVG 1.1//EN" "http://www.w3.org/Graphics/SVG/1.1/DTD/svg11.dtd">
<svg version="1.1" id="图层_1" xmlns="http://www.w3.org/2000/svg" xmlns:xlink="http://www.w3.org/1999/xlink" x="0px" y="0px"
	 width="52.003px" height="52.005px" viewBox="6.001 5.995 52.003 52.005" enable-background="new 6.001 5.995 52.003 52.005"
	 xml:space="preserve">
<path d="M56,58c-0.513,0-1.025-0.193-1.412-0.588l-48-48c-0.781-0.781-0.781-2.05,0-2.832s2.05-0.781,2.832,0l48,48
	c0.781,0.781,0.781,2.05,0,2.831C57.025,57.807,56.513,58,56,58z"/>
<path d="M8,58c-0.513,0-1.025-0.193-1.413-0.588c-0.781-0.781-0.781-2.05,0-2.831l48-48c0.781-0.781,2.05-0.781,2.831,0
	s0.781,2.05,0,2.832l-48,48C9.025,57.807,8.513,58,8,58z"/>
</svg>
