<?xml version="1.0" encoding="utf-8"?>
<!-- Generator: Adobe Illustrator 15.0.0, SVG Export Plug-In . SVG Version: 6.00 Build 0)  -->
<!DOCTYPE svg PUBLIC "-//W3C//DTD SVG 1.1//EN" "http://www.w3.org/Graphics/SVG/1.1/DTD/svg11.dtd">
<svg version="1.1" id="图层_1" xmlns="http://www.w3.org/2000/svg" xmlns:xlink="http://www.w3.org/1999/xlink" x="0px" y="0px"
	 width="56.889px" height="56.889px" viewBox="3.556 3.556 56.889 56.889" enable-background="new 3.556 3.556 56.889 56.889"
	 xml:space="preserve">
<path d="M17.778,17.778c-7.822,0-14.222,6.4-14.222,14.222s6.4,14.223,14.222,14.223S32,39.822,32,32S25.6,17.778,17.778,17.778
	 M17.778,42.666c-6.044,0-10.667-4.621-10.667-10.666c0-6.044,4.622-10.667,10.667-10.667S28.444,25.956,28.444,32
	C28.444,38.045,23.822,42.666,17.778,42.666 M51.556,3.556c-4.978,0-8.89,3.911-8.89,8.889c0,4.978,3.912,8.889,8.89,8.889
	s8.889-3.911,8.889-8.889C60.444,7.467,56.533,3.556,51.556,3.556 M51.556,17.778c-2.845,0-5.333-2.489-5.333-5.333
	c0-2.844,2.488-5.333,5.333-5.333s5.333,2.489,5.333,5.333C56.889,15.289,54.4,17.778,51.556,17.778 M51.556,42.666
	c-4.978,0-8.89,3.912-8.89,8.89s3.912,8.889,8.89,8.889s8.889-3.911,8.889-8.889S56.533,42.666,51.556,42.666 M51.556,56.889
	c-2.845,0-5.333-2.488-5.333-5.333s2.488-5.333,5.333-5.333s5.333,2.488,5.333,5.333S54.4,56.889,51.556,56.889"/>
<path d="M28.274,36.139l18.474,10.666l-1.777,3.08L26.496,39.218L28.274,36.139z M46.844,17.394L28.37,28.061l-1.778-3.079
	l18.475-10.667L46.844,17.394z"/>
</svg>
