<?xml version="1.0" encoding="utf-8"?>
<!-- Generator: Adobe Illustrator 15.0.0, SVG Export Plug-In . SVG Version: 6.00 Build 0)  -->
<!DOCTYPE svg PUBLIC "-//W3C//DTD SVG 1.1//EN" "http://www.w3.org/Graphics/SVG/1.1/DTD/svg11.dtd">
<svg version="1.1" id="图层_1" xmlns="http://www.w3.org/2000/svg" xmlns:xlink="http://www.w3.org/1999/xlink" x="0px" y="0px"
	 width="54.08px" height="51.84px" viewBox="5.12 6.08 54.08 51.84" enable-background="new 5.12 6.08 54.08 51.84"
	 xml:space="preserve">
<path d="M53.367,36.209h-3.038v-0.941c0-2.641-2.316-4.79-5.163-4.79H33.85v-3.253c0-0.916-0.742-1.657-1.657-1.657
	c-0.915,0-1.657,0.742-1.657,1.657v3.253h-11.07c-2.848,0-5.164,2.149-5.164,4.79v0.941h-3.349c-3.22,0.004-5.83,2.613-5.833,5.834
	v10.042c0.003,3.221,2.612,5.831,5.833,5.835h10.039c3.22-0.004,5.829-2.613,5.833-5.834V42.043c-0.003-3.22-2.613-5.83-5.833-5.834
	h-3.376v-0.941c0-0.8,0.847-1.475,1.85-1.475h25.7c1.002,0,1.85,0.676,1.85,1.475v0.941h-3.688c-3.221,0.004-5.83,2.614-5.832,5.834
	v10.042c0.002,3.221,2.611,5.831,5.832,5.835h10.039c3.221-0.004,5.83-2.614,5.833-5.835V42.043
	C59.197,38.823,56.588,36.213,53.367,36.209z M23.511,42.043v10.042c-0.001,1.391-1.128,2.518-2.518,2.519h-10.04
	c-1.39-0.001-2.517-1.128-2.518-2.519V42.043c0.001-1.391,1.128-2.518,2.518-2.519h10.039
	C22.382,39.525,23.509,40.652,23.511,42.043L23.511,42.043z M55.887,52.085c-0.002,1.391-1.129,2.517-2.519,2.519h-10.04
	c-1.391-0.001-2.518-1.128-2.519-2.519V42.043c0.001-1.391,1.128-2.518,2.519-2.519h10.039c1.391,0.001,2.517,1.128,2.518,2.519
	v10.042H55.887z"/>
<path d="M37.18,27.772H27.141c-3.219-0.003-5.828-2.61-5.833-5.829V11.91c0.004-3.219,2.614-5.827,5.833-5.83H37.18
	c3.219,0.002,5.828,2.61,5.833,5.829v10.034C43.008,25.162,40.398,27.769,37.18,27.772z M27.141,9.393
	c-1.39,0.001-2.517,1.127-2.519,2.517v10.033c0.002,1.39,1.129,2.516,2.519,2.517H37.18c1.391-0.001,2.517-1.127,2.519-2.517V11.91
	c-0.002-1.39-1.128-2.516-2.519-2.517H27.141z"/>
</svg>
