<?xml version="1.0" encoding="utf-8"?>
<!-- Generator: Adobe Illustrator 15.0.0, SVG Export Plug-In . SVG Version: 6.00 Build 0)  -->
<!DOCTYPE svg PUBLIC "-//W3C//DTD SVG 1.1//EN" "http://www.w3.org/Graphics/SVG/1.1/DTD/svg11.dtd">
<svg version="1.1" id="图层_1" xmlns="http://www.w3.org/2000/svg" xmlns:xlink="http://www.w3.org/1999/xlink" x="0px" y="0px"
	 width="60px" height="60px" viewBox="2 2 60 60" enable-background="new 2 2 60 60" xml:space="preserve">
<path d="M48.807,56.4c-0.606,0-1.207-0.275-1.601-0.801c-0.662-0.881-0.487-2.137,0.4-2.8C54.213,47.838,58,40.256,58,32
	C58,17.663,46.338,6,32,6c-1.106,0-2-0.894-2-2s0.894-2,2-2c16.544,0,30,13.456,30,30c0,9.525-4.375,18.275-12,24
	C49.644,56.269,49.219,56.4,48.807,56.4z M32,62C15.456,62,2,48.544,2,32c0-8.125,3.194-15.731,9-21.425
	c0.788-0.775,2.056-0.763,2.831,0.025c0.775,0.788,0.763,2.056-0.025,2.831C8.769,18.362,6,24.956,6,32c0,14.338,11.663,26,26,26
	c1.106,0,2,0.894,2,2S33.106,62,32,62z"/>
<path d="M37.6,14.4c-0.644,0-1.281-0.313-1.668-0.894l-5.594-8.394c-0.612-0.918-0.362-2.162,0.556-2.775
	c0.919-0.612,2.163-0.362,2.775,0.556l5.6,8.4c0.612,0.918,0.362,2.162-0.556,2.775C38.369,14.294,37.981,14.4,37.6,14.4z M32,62
	c-0.644,0-1.281-0.313-1.669-0.894l-5.6-8.4c-0.613-0.919-0.363-2.162,0.556-2.774c0.918-0.613,2.156-0.363,2.775,0.556l5.6,8.4
	c0.613,0.919,0.363,2.162-0.556,2.774C32.769,61.894,32.381,62,32,62z"/>
</svg>
