<?xml version="1.0" encoding="utf-8"?>
<!-- Generator: Adobe Illustrator 15.0.0, SVG Export Plug-In . SVG Version: 6.00 Build 0)  -->
<!DOCTYPE svg PUBLIC "-//W3C//DTD SVG 1.1//EN" "http://www.w3.org/Graphics/SVG/1.1/DTD/svg11.dtd">
<svg version="1.1" id="图层_1" xmlns="http://www.w3.org/2000/svg" xmlns:xlink="http://www.w3.org/1999/xlink" x="0px" y="0px"
	 width="48.799px" height="51.741px" viewBox="7.66 6.131 48.799 51.741" enable-background="new 7.66 6.131 48.799 51.741"
	 xml:space="preserve">
<path d="M8.1,32.969l24.462,24.463c0.588,0.587,1.537,0.587,2.119,0c0.587-0.588,0.587-1.538,0-2.119l-23.4-23.406L34.5,8.688
	c0.588-0.587,0.588-1.538,0-2.119c-0.294-0.294-0.675-0.438-1.063-0.438s-0.769,0.144-1.063,0.438L8.1,30.85
	C7.513,31.431,7.513,32.381,8.1,32.969z"/>
<path d="M29,31.906c0,0.4,0.156,0.781,0.438,1.063L53.9,57.432c0.587,0.587,1.537,0.587,2.118,0c0.588-0.588,0.588-1.538,0-2.119
	L32.625,31.906L55.844,8.688c0.588-0.587,0.588-1.538,0-2.119c-0.294-0.294-0.675-0.438-1.063-0.438s-0.769,0.144-1.063,0.438
	L29.444,30.85C29.163,31.131,29,31.513,29,31.906z"/>
</svg>
