<?xml version="1.0" encoding="utf-8"?>
<!-- Generator: Adobe Illustrator 15.0.0, SVG Export Plug-In . SVG Version: 6.00 Build 0)  -->
<!DOCTYPE svg PUBLIC "-//W3C//DTD SVG 1.1//EN" "http://www.w3.org/Graphics/SVG/1.1/DTD/svg11.dtd">
<svg version="1.1" id="图层_1" xmlns="http://www.w3.org/2000/svg" xmlns:xlink="http://www.w3.org/1999/xlink" x="0px" y="0px"
	 width="60.004px" height="60.002px" viewBox="2 1.998 60.004 60.002" enable-background="new 2 1.998 60.004 60.002"
	 xml:space="preserve">
<path d="M32.038,62c-1.125,0-2.263-0.063-3.406-0.188C15.925,60.432,3.837,48.557,2.244,35.888
	c-1.175-9.344,1.938-18.494,8.544-25.1c6.6-6.606,15.756-9.725,25.1-8.544c12.649,1.594,24.519,13.663,25.925,26.35
	c0.756,6.844-0.737,13.475-4.318,19.231c0.756,2.756,2.875,10.063,2.875,10.063c0.199,0.7,0.006,1.456-0.507,1.969
	s-1.269,0.712-1.969,0.506c0,0-7.325-2.118-10.031-2.894C43.068,60.463,37.662,62,32.038,62z M32.019,6
	c-6.906,0-13.475,2.688-18.406,7.612c-5.725,5.725-8.425,13.663-7.4,21.775c1.356,10.781,12.038,21.274,22.856,22.45
	c6.113,0.668,12.019-0.731,17.093-4.031c0.663-0.432,1.494-0.551,2.275-0.332c1.206,0.344,4.494,1.294,7.081,2.044
	c-0.75-2.606-1.7-5.931-2.037-7.188c-0.2-0.756-0.069-1.563,0.362-2.219c3.281-5.063,4.662-10.969,3.987-17.075
	C56.644,18.231,46.15,7.569,35.388,6.212C34.263,6.069,33.131,6,32.019,6L32.019,6z M57.2,48.275c0,0.006-0.007,0.006-0.007,0.012
	C57.2,48.287,57.2,48.281,57.2,48.275z"/>
<path d="M21,34c-1.656,0-3-1.344-3-3s1.344-3,3-3s3,1.344,3,3S22.65,34,21,34z M33,34c-1.656,0-3-1.344-3-3
	s1.344-3,3-3s3,1.344,3,3S34.65,34,33,34z M45,34c-1.656,0-3-1.344-3-3s1.344-3,3-3s3,1.344,3,3S46.65,34,45,34z"/>
</svg>
