<?xml version="1.0" encoding="utf-8"?>
<!-- Generator: Adobe Illustrator 15.0.0, SVG Export Plug-In . SVG Version: 6.00 Build 0)  -->
<!DOCTYPE svg PUBLIC "-//W3C//DTD SVG 1.1//EN" "http://www.w3.org/Graphics/SVG/1.1/DTD/svg11.dtd">
<svg version="1.1" id="图层_1" xmlns="http://www.w3.org/2000/svg" xmlns:xlink="http://www.w3.org/1999/xlink" x="0px" y="0px"
	 width="48px" height="48px" viewBox="8 8 48 48" enable-background="new 8 8 48 48" xml:space="preserve">
<path d="M32,10.667c11.782,0,21.334,9.551,21.334,21.333S43.782,53.334,32,53.334S10.667,43.782,10.667,32l0,0
	C10.667,20.218,20.218,10.667,32,10.667 M32,8C18.745,8,8,18.745,8,32s10.745,24,24,24s24-10.745,24-24S45.255,8,32,8z"/>
<path d="M44.106,33.334h-23.08c-0.736,0-1.334-0.597-1.334-1.333s0.596-1.334,1.333-1.334c0,0,0.001,0,0.002,0h23.08
	c0.737,0,1.333,0.598,1.333,1.334C45.439,32.736,44.842,33.333,44.106,33.334z"/>
<path d="M32.307,44.2c-0.322,0.003-0.635-0.11-0.88-0.32L19.013,33c-0.552-0.487-0.605-1.33-0.118-1.882
	c0.037-0.042,0.077-0.081,0.118-0.118l12.414-10.88c0.556-0.486,1.4-0.429,1.887,0.126c0.485,0.556,0.429,1.401-0.127,1.887
	L21.92,32l11.267,9.867c0.56,0.479,0.626,1.32,0.147,1.879l0,0C33.074,44.041,32.699,44.207,32.307,44.2z"/>
</svg>
