<?xml version="1.0" encoding="utf-8"?>
<!-- Generator: Adobe Illustrator 15.0.0, SVG Export Plug-In . SVG Version: 6.00 Build 0)  -->
<!DOCTYPE svg PUBLIC "-//W3C//DTD SVG 1.1//EN" "http://www.w3.org/Graphics/SVG/1.1/DTD/svg11.dtd">
<svg version="1.1" id="图层_1" xmlns="http://www.w3.org/2000/svg" xmlns:xlink="http://www.w3.org/1999/xlink" x="0px" y="0px"
	 width="46.014px" height="46.013px" viewBox="8.993 8.452 46.014 46.013" enable-background="new 8.993 8.452 46.014 46.013"
	 xml:space="preserve">
<path d="M32,54.465c-12.692,0-23.007-10.314-23.007-23.006C8.993,18.767,19.308,8.452,32,8.452
	c12.691,0,23.007,10.315,23.007,23.007C55.007,44.15,44.691,54.465,32,54.465z M32,11.078c-11.231,0-20.381,9.15-20.381,20.381
	S20.769,51.84,32,51.84s20.381-9.149,20.381-20.381S43.231,11.078,32,11.078z M46.432,48.951c-0.171,0-0.342-0.031-0.497-0.109
	c-9.709-4.039-10.222-5.67-10.47-6.447c-0.031-0.123-0.063-0.264-0.063-0.388v-1.896c0-0.342,0.14-0.668,0.373-0.916
	c1.118-1.15,1.988-2.734,2.516-4.614c0.078-0.295,0.265-0.544,0.514-0.714c0.389-0.28,0.652-0.715,0.715-1.197
	c0.062-0.497-0.078-0.978-0.389-1.366c-0.187-0.233-0.295-0.528-0.295-0.824v-4.256c0-4.039-2.269-6.089-6.727-6.089
	c-4.412,0-6.726,2.113-6.726,6.089v4.256c0,0.295-0.109,0.59-0.295,0.824c-0.326,0.388-0.45,0.885-0.388,1.366
	c0.062,0.482,0.326,0.917,0.715,1.197c0.249,0.17,0.419,0.435,0.513,0.714c0.528,1.88,1.398,3.479,2.517,4.614
	c0.233,0.248,0.373,0.574,0.373,0.916v1.896c0,0.124-0.016,0.265-0.062,0.388c-0.388,1.243-1.895,2.875-10.237,6.339
	c-0.667,0.279-1.444-0.047-1.708-0.715c-0.28-0.668,0.046-1.444,0.714-1.709c6.897-2.858,8.373-4.194,8.684-4.614v-1.087
	c-1.165-1.32-2.082-3.014-2.672-4.925c-0.761-0.684-1.274-1.631-1.414-2.672c-0.14-1.056,0.093-2.097,0.653-2.982v-3.837
	c0-5.452,3.495-8.715,9.352-8.715c5.949,0,9.352,3.169,9.352,8.715v3.837c0.575,0.885,0.809,1.926,0.652,2.982
	c-0.139,1.034-0.646,1.982-1.429,2.672c-0.591,1.927-1.507,3.604-2.673,4.925v1.072c0.28,0.342,1.803,1.771,8.918,4.737
	c0.668,0.28,0.979,1.041,0.715,1.709C47.441,48.641,46.945,48.951,46.432,48.951L46.432,48.951z"/>
</svg>
