<?xml version="1.0" encoding="utf-8"?>
<!-- Generator: Adobe Illustrator 15.0.0, SVG Export Plug-In . SVG Version: 6.00 Build 0)  -->
<!DOCTYPE svg PUBLIC "-//W3C//DTD SVG 1.1//EN" "http://www.w3.org/Graphics/SVG/1.1/DTD/svg11.dtd">
<svg version="1.1" id="图层_1" xmlns="http://www.w3.org/2000/svg" xmlns:xlink="http://www.w3.org/1999/xlink" x="0px" y="0px"
	 width="51.625px" height="59.188px" viewBox="6.188 2.191 51.625 59.188" enable-background="new 6.188 2.191 51.625 59.188"
	 xml:space="preserve">
<path d="M9.938,36.742c0,7.05,4.184,13.428,10.65,16.234l10.239,4.446c0.676,0.294,1.448,0.273,2.109-0.055l10.303-5.118
	c6.631-3.295,10.824-10.062,10.824-17.467V12.237c-3.284-0.285-6.512-0.651-9.682-1.099c-4.109-0.581-8.227-2.241-12.347-4.938
	c-3.998,2.676-8.143,4.334-12.415,4.938c-3.282,0.464-6.509,0.833-9.681,1.106V36.742z M7.921,8.645
	c3.646-0.276,7.37-0.683,11.173-1.22c3.915-0.553,7.746-2.146,11.494-4.78c0.853-0.599,1.987-0.606,2.848-0.019
	c3.907,2.67,7.73,4.27,11.471,4.798c3.646,0.515,7.371,0.92,11.176,1.215c0.977,0.076,1.73,0.89,1.73,1.869v24.273
	c0,8.829-5,16.896-12.906,20.824l-10.303,5.119c-1.65,0.82-3.58,0.87-5.27,0.136l-10.24-4.446
	C11.257,53.014,6.188,45.285,6.188,36.742V10.515C6.188,9.534,6.943,8.719,7.921,8.645z"/>
<path d="M27.587,37.094l14.867-14.83c0.854-0.853,2.239-0.852,3.093,0.001c0.854,0.854,0.854,2.237-0.001,3.09L29.125,41.736
	c-0.857,0.855-2.248,0.852-3.101-0.009l-7.579-7.644c-0.851-0.857-0.843-2.241,0.016-3.09c0.858-0.849,2.243-0.841,3.093,0.016
	L27.587,37.094L27.587,37.094z"/>
</svg>
