<?xml version="1.0" standalone="no"?><!DOCTYPE svg PUBLIC "-//W3C//DTD SVG 1.1//EN" "http://www.w3.org/Graphics/SVG/1.1/DTD/svg11.dtd"><svg t="1602669678136" class="icon" viewBox="0 0 1024 1024" version="1.1" xmlns="http://www.w3.org/2000/svg" p-id="8398" width="64" height="64" xmlns:xlink="http://www.w3.org/1999/xlink"><defs><style type="text/css"></style></defs><path d="M731.818667 500.280889L386.844444 239.729778a14.677333 14.677333 0 0 0-23.495111 11.719111v521.159111a14.677333 14.677333 0 0 0 23.495111 11.662222l344.860445-260.608a14.677333 14.677333 0 0 0 0.113778-23.381333z" fill="#000000" p-id="8399"></path><path d="M512 1024a512 512 0 1 1 512-512 512.568889 512.568889 0 0 1-512 512z m0-946.915556A434.915556 434.915556 0 1 0 946.915556 512 435.427556 435.427556 0 0 0 512 77.084444z" fill="#000000" p-id="8400"></path></svg>