<?xml version="1.0" encoding="utf-8"?>
<!-- Generator: Adobe Illustrator 15.0.0, SVG Export Plug-In . SVG Version: 6.00 Build 0)  -->
<!DOCTYPE svg PUBLIC "-//W3C//DTD SVG 1.1//EN" "http://www.w3.org/Graphics/SVG/1.1/DTD/svg11.dtd">
<svg version="1.1" id="图层_1" xmlns="http://www.w3.org/2000/svg" xmlns:xlink="http://www.w3.org/1999/xlink" x="0px" y="0px"
	 width="64.419px" height="59.813px" viewBox="0.012 2.092 64.419 59.813" enable-background="new 0.012 2.092 64.419 59.813"
	 xml:space="preserve">
<path d="M31.824,10.34c0.252-1.112,0.824-1.484,2.092-1.596c1.596-0.14,2.204-1.316,2.572-2.02c0.439-0.86,0.82-1.596,3.287-1.684
	l0.668-0.012c2.429,0,6.688,0.496,7.828,3.76c0,0.128-0.151,0.52-0.26,0.808c-0.424,1.096-1.072,2.756-0.748,5.436
	c0.072,0.552-0.02,1.244-0.115,1.98l-0.26,2.36l1.291-0.14c0.021,0.472-0.054,0.942-0.22,1.384
	c-0.284,0.848-0.712,1.284-0.696,1.332h-1.056l-0.336,1.004c-0.832,2.5-1.908,4.392-2.96,5.188l-0.584,0.44v7.996l1.283,0.164
	c9.421,1.176,16.557,6.232,17.697,12.3H46.544c0.849,0.928,1.593,1.899,2.177,2.928h15.711l-0.035-1.5
	c-0.181-7.888-8.148-14.668-19.133-16.46v-4.024c1.444-1.388,2.469-3.54,3.145-5.38c0.972-0.488,1.832-1.576,2.328-3.032
	c0.699-2.02,0.428-3.884-0.604-4.78c0.103-0.704,0.118-1.417,0.048-2.124c-0.192-1.364,0.006-2.756,0.572-4.012
	c0.313-0.816,0.672-1.736,0.313-2.772c-1.301-3.736-5.072-5.792-10.617-5.792l-0.783,0.016c-3.855,0.136-5.008,1.76-5.784,3.272
	c-0.092,0.18-0.228,0.424-0.228,0.444c-3.028,0.268-4.2,1.9-4.656,3.872C30.02,9.832,30.976,10.04,31.824,10.34z"/>
<path d="M49.928,60.408c-0.18-7.885-8.148-14.668-19.132-16.456v-4.036c1.444-1.384,2.468-3.54,3.144-5.376
	c0.973-0.488,1.832-1.576,2.328-3.032c0.7-2.02,0.428-3.884-0.604-4.78c0.102-0.704,0.118-1.417,0.048-2.124
	c-0.196-1.364,0.001-2.756,0.567-4.012c0.313-0.816,0.673-1.736,0.313-2.772c-1.3-3.736-5.072-5.792-10.62-5.792l-0.776,0.016
	c-3.852,0.136-5.008,1.76-5.784,3.272c-0.08,0.144-0.155,0.291-0.224,0.44c-5.024,0.452-4.98,4.604-4.94,7.94l0.008,1.084
	c0,0.6,0.028,1.228,0.076,1.876c-1.248,0.88-1.48,2.948-0.524,5.096c0.544,1.221,1.328,2.141,2.2,2.616
	c0.712,1.979,1.832,4.312,3.456,5.764v3.765C8.32,45.624,0.232,52.428,0.048,60.4l-0.036,1.504H49.96L49.928,60.408L49.928,60.408z
	 M3.14,58.973c1.152-6.141,8.388-11.213,17.96-12.332l1.296-0.152v-7.824l-0.632-0.436c-1.152-0.801-2.32-2.78-3.196-5.433
	l-0.244-0.828L17.46,31.82c-0.156-0.056-0.612-0.452-0.972-1.256c-0.177-0.385-0.286-0.798-0.324-1.22l1.496,0.42l-0.28-2.2
	c-0.121-0.923-0.184-1.853-0.188-2.784l-0.012-1.116c-0.044-3.936,0.152-4.796,2.272-4.984c1.596-0.14,2.204-1.316,2.572-2.02
	c0.44-0.856,0.82-1.592,3.284-1.684l0.668-0.012c2.432,0,6.688,0.496,7.833,3.76c0,0.128-0.152,0.52-0.261,0.808
	c-0.743,1.708-1.004,3.589-0.752,5.436c0.038,0.663-0.001,1.327-0.12,1.98l-0.26,2.36l1.292-0.14
	c0.021,0.472-0.054,0.942-0.22,1.384c-0.284,0.852-0.709,1.284-0.692,1.332H31.74l-0.336,1.005c-0.832,2.504-1.908,4.391-2.96,5.191
	l-0.584,0.436v8l1.288,0.16c9.42,1.18,16.552,6.232,17.692,12.305H3.14V58.973L3.14,58.973z"/>
</svg>
