<?xml version="1.0" encoding="utf-8"?>
<!-- Generator: Adobe Illustrator 15.0.0, SVG Export Plug-In . SVG Version: 6.00 Build 0)  -->
<!DOCTYPE svg PUBLIC "-//W3C//DTD SVG 1.1//EN" "http://www.w3.org/Graphics/SVG/1.1/DTD/svg11.dtd">
<svg version="1.1" id="图层_1" xmlns="http://www.w3.org/2000/svg" xmlns:xlink="http://www.w3.org/1999/xlink" x="0px" y="0px"
	 width="63.944px" height="64px" viewBox="0 0 63.944 64" enable-background="new 0 0 63.944 64" xml:space="preserve">
<path d="M23.981,61.965c0.001,1.104-0.893,1.998-1.997,1.999c-1.103,0.001-1.998-0.894-1.999-1.997c0,0,0-0.001,0-0.002V2.035
	c0-1.104,0.896-1.998,1.999-1.997c1.103,0,1.996,0.894,1.997,1.997V61.965z"/>
<path d="M23.518,60.688c0.727,0.83,0.643,2.092-0.188,2.818s-2.092,0.643-2.819-0.188c-0.021-0.024-0.042-0.048-0.062-0.073
	L0.433,39.231c-0.686-0.864-0.541-2.12,0.323-2.807c0.835-0.662,2.043-0.553,2.746,0.25L23.518,60.688z"/>
<path d="M39.963,2.035c0-1.104,0.895-1.998,1.998-1.998s1.998,0.894,1.998,1.998v59.93c0,1.104-0.895,1.998-1.998,1.998
	s-1.998-0.895-1.998-1.998V2.035z"/>
<path d="M40.427,3.313c-0.727-0.83-0.642-2.092,0.188-2.819s2.092-0.642,2.818,0.188c0.021,0.024,0.041,0.049,0.062,0.074
	l20.017,24.013c0.686,0.864,0.541,2.121-0.322,2.807c-0.836,0.662-2.044,0.553-2.746-0.25L40.427,3.313z"/>
</svg>
