<?xml version="1.0" encoding="utf-8"?>
<!-- Generator: Adobe Illustrator 15.0.0, SVG Export Plug-In . SVG Version: 6.00 Build 0)  -->
<!DOCTYPE svg PUBLIC "-//W3C//DTD SVG 1.1//EN" "http://www.w3.org/Graphics/SVG/1.1/DTD/svg11.dtd">
<svg version="1.1" id="图层_1" xmlns="http://www.w3.org/2000/svg" xmlns:xlink="http://www.w3.org/1999/xlink" x="0px" y="0px"
	 width="56.025px" height="56.025px" viewBox="4 3.987 56.025 56.025" enable-background="new 4 3.987 56.025 56.025"
	 xml:space="preserve">
<path d="M28.125,44.894c-1.044,0-2.013-0.219-2.875-0.725c-2.65-1.544-3.831-5.325-3.831-12.263c0-6.688,1.237-10.531,3.9-12.081
	c2.694-1.569,6.456-0.763,12.582,2.712c5.274,2.938,7.949,5.862,8.175,8.925c0.188,2.538-1.269,4.95-4.444,7.381
	c-0.769,0.588-1.644,1.182-2.6,1.763c-0.362,0.219-0.737,0.443-1.131,0.662C34.487,43.213,31.019,44.894,28.125,44.894z
	 M28.325,21.406c-0.725,0-1.332,0.15-1.832,0.438c-1.819,1.063-2.744,4.45-2.744,10.069c0,5.843,0.875,9.2,2.675,10.25
	c1.769,1.025,4.95,0.132,10.325-2.912c0.369-0.206,0.725-0.419,1.063-0.625c0.888-0.544,1.693-1.088,2.394-1.625
	c2.469-1.894,3.656-3.693,3.538-5.362c-0.163-2.188-2.513-4.563-6.994-7.063C33,22.444,30.25,21.406,28.325,21.406z"/>
<path d="M32.013,60.013C16.569,60.013,4,47.45,4,32S16.563,3.987,32.013,3.987S60.025,16.55,60.025,32S47.456,60.013,32.013,60.013z
	 M32.013,6.325c-14.163,0-25.682,11.519-25.682,25.681S17.85,57.688,32.013,57.688c14.162,0,25.675-11.525,25.675-25.688
	C57.688,17.837,46.169,6.325,32.013,6.325z"/>
</svg>
