<?xml version="1.0" encoding="utf-8"?>
<!-- Generator: Adobe Illustrator 15.0.0, SVG Export Plug-In . SVG Version: 6.00 Build 0)  -->
<!DOCTYPE svg PUBLIC "-//W3C//DTD SVG 1.1//EN" "http://www.w3.org/Graphics/SVG/1.1/DTD/svg11.dtd">
<svg version="1.1" id="图层_1" xmlns="http://www.w3.org/2000/svg" xmlns:xlink="http://www.w3.org/1999/xlink" x="0px" y="0px"
	 width="64.089px" height="61.557px" viewBox="0.003 0 64.089 61.557" enable-background="new 0.003 0 64.089 61.557"
	 xml:space="preserve">
<path d="M48.043,61.557c-0.996,0-1.961-0.24-2.872-0.717L33.494,54.7c-0.906-0.469-1.984-0.469-2.892,0l-11.68,6.14
	c-2.574,1.326-5.723,0.705-7.6-1.5c-1.175-1.379-1.667-3.214-1.34-4.996l2.232-13.004c0.172-1.01-0.165-2.039-0.9-2.752
	l-9.448-9.212c-1.686-1.635-2.291-4.089-1.556-6.32c0.717-2.235,2.648-3.864,4.972-4.192l13.06-1.896
	c1.012-0.148,1.886-0.786,2.336-1.704l5.84-11.832C27.567,1.316,29.683,0,32.047,0c2.363,0,4.48,1.316,5.527,3.432l5.84,11.832
	c0.452,0.917,1.325,1.554,2.337,1.704l13.063,1.896c2.324,0.329,4.256,1.957,4.973,4.192c0.73,2.231,0.125,4.685-1.561,6.32
	l-9.443,9.212c-0.738,0.711-1.075,1.742-0.9,2.752l2.232,13.004c0.312,1.824-0.16,3.596-1.344,4.996
	C51.6,60.742,49.869,61.553,48.043,61.557z M32.047,51.288c1,0,1.992,0.248,2.863,0.708l11.681,6.145
	c1.304,0.672,2.898,0.353,3.844-0.769c0.587-0.695,0.832-1.617,0.668-2.513l-2.231-13.008c-0.343-1.998,0.32-4.037,1.771-5.451
	l9.444-9.212c0.864-0.816,1.175-2.061,0.796-3.188c-0.354-1.132-1.332-1.958-2.508-2.116l-13.064-1.896
	c-2.005-0.292-3.738-1.551-4.636-3.368l-5.84-11.836c-0.536-1.088-1.58-1.732-2.788-1.732s-2.256,0.644-2.792,1.732l-5.84,11.832
	c-0.898,1.818-2.633,3.079-4.64,3.372l-13.056,1.9C4.542,22.042,3.563,22.867,3.211,24c-0.383,1.124-0.077,2.367,0.784,3.184
	l9.448,9.216c1.452,1.416,2.116,3.455,1.772,5.451l-2.232,13.008c-0.16,0.92,0.08,1.816,0.668,2.513
	c0.946,1.12,2.54,1.438,3.844,0.769l11.68-6.145C30.063,51.536,31.047,51.288,32.047,51.288z"/>
</svg>
