<?xml version="1.0" encoding="utf-8"?>
<!-- Generator: Adobe Illustrator 15.0.0, SVG Export Plug-In . SVG Version: 6.00 Build 0)  -->
<!DOCTYPE svg PUBLIC "-//W3C//DTD SVG 1.1//EN" "http://www.w3.org/Graphics/SVG/1.1/DTD/svg11.dtd">
<svg version="1.1" id="图层_1" xmlns="http://www.w3.org/2000/svg" xmlns:xlink="http://www.w3.org/1999/xlink" x="0px" y="0px"
	 width="64px" height="64px" viewBox="0 0 64 64" enable-background="new 0 0 64 64" xml:space="preserve">
<path d="M46.922,49.009c-0.619-0.629-0.605-1.634,0.031-2.246c0.637-0.608,1.654-0.594,2.272,0.034l14.161,14.404
	c0.62,0.629,0.605,1.635-0.034,2.246c-0.635,0.61-1.651,0.596-2.269-0.032L46.922,49.009z"/>
<path d="M28.773,56.663c-15.796,0-28.602-12.656-28.602-28.267c0-15.612,12.805-28.267,28.602-28.267
	c15.796,0,28.602,12.655,28.602,28.267C57.375,44.007,44.569,56.663,28.773,56.663z M28.773,53.488
	c14.021,0,25.389-11.232,25.389-25.092c0-13.857-11.367-25.092-25.389-25.092S3.385,14.539,3.385,28.396
	C3.385,42.256,14.752,53.488,28.773,53.488z"/>
<path d="M19.983,30.249c-0.887,0-1.606-0.711-1.606-1.587c0-0.876,0.719-1.588,1.606-1.588h18.651c0.888,0,1.607,0.712,1.607,1.588
	c0,0.876-0.72,1.587-1.607,1.587H19.983z"/>
<path d="M27.703,19.445c0-0.876,0.719-1.587,1.605-1.587c0.887,0,1.607,0.711,1.607,1.587v18.432c0,0.877-0.72,1.589-1.607,1.589
	c-0.887,0-1.605-0.712-1.605-1.589V19.445z"/>
</svg>
