<?xml version="1.0" encoding="utf-8"?>
<!-- Generator: Adobe Illustrator 15.0.0, SVG Export Plug-In . SVG Version: 6.00 Build 0)  -->
<!DOCTYPE svg PUBLIC "-//W3C//DTD SVG 1.1//EN" "http://www.w3.org/Graphics/SVG/1.1/DTD/svg11.dtd">
<svg version="1.1" id="图层_1" xmlns="http://www.w3.org/2000/svg" xmlns:xlink="http://www.w3.org/1999/xlink" x="0px" y="0px"
	 width="63.995px" height="63.997px" viewBox="0 0.004 63.995 63.997" enable-background="new 0 0.004 63.995 63.997"
	 xml:space="preserve">
<path d="M31.998,3.773c15.566,0,28.228,12.664,28.228,28.229c0,15.567-12.661,28.23-28.228,28.23
	c-15.565,0-28.229-12.663-28.229-28.23C3.769,16.437,16.433,3.773,31.998,3.773 M31.998,0.004C14.324,0.004,0,14.328,0,32.002
	s14.324,31.999,31.998,31.999c17.671,0,31.997-14.325,31.997-31.999S49.669,0.004,31.998,0.004z"/>
<path d="M40.238,42.151c-0.5,0.002-0.979-0.196-1.332-0.549l-8.241-8.211c-0.354-0.354-0.554-0.834-0.554-1.334V14.389
	c0-1.041,0.843-1.885,1.885-1.885c1.042,0,1.884,0.843,1.884,1.885v16.886l7.688,7.659c0.736,0.735,0.736,1.928,0.002,2.664
	C41.217,41.951,40.738,42.15,40.238,42.151z"/>
</svg>
