<?xml version="1.0" encoding="utf-8"?>
<!-- Generator: Adobe Illustrator 15.0.0, SVG Export Plug-In . SVG Version: 6.00 Build 0)  -->
<!DOCTYPE svg PUBLIC "-//W3C//DTD SVG 1.1//EN" "http://www.w3.org/Graphics/SVG/1.1/DTD/svg11.dtd">
<svg version="1.1" id="图层_1" xmlns="http://www.w3.org/2000/svg" xmlns:xlink="http://www.w3.org/1999/xlink" x="0px" y="0px"
	 width="41.038px" height="47.613px" viewBox="11.494 8.4 41.038 47.613" enable-background="new 11.494 8.4 41.038 47.613"
	 xml:space="preserve">
<path d="M50.856,14.856c-8.726-0.425-15.15-4.432-17.507-6.125C33.044,8.513,32.688,8.4,32.331,8.4
	c-0.443,0-0.881,0.169-1.219,0.494c-4.881,4.756-14.181,5.688-17.956,5.863c-0.931,0.043-1.663,0.813-1.663,1.744v16.919
	c0,2.362,1.231,5.575,3.194,8.837c0.144,0.301,0.444,0.507,0.8,0.507c0.494,0,0.894-0.4,0.894-0.894
	c0-0.226-0.087-0.426-0.225-0.582l0.006-0.006c-1.788-2.956-2.919-5.825-2.919-7.862V16.5c3.962-0.188,13.775-1.169,19.094-6.356
	c2.65,1.913,9.337,6.006,18.444,6.457V34c0,5.568-10.35,20.269-18.631,20.269c-3.5,0-7.813-3.068-11.293-6.774
	c-0.006-0.007-0.019-0.007-0.025-0.013c-0.162-0.2-0.4-0.338-0.681-0.338c-0.494,0-0.894,0.4-0.894,0.894
	c0,0.25,0.106,0.476,0.275,0.638c0,0,0,0.007,0.006,0.007c3.825,4.112,8.5,7.331,12.612,7.331c9.494,0,20.375-15.625,20.381-22.013
	V16.6C52.513,15.669,51.787,14.9,50.856,14.856z"/>
<path d="M32,42.206c-0.475,0-0.856-0.381-0.856-0.856V32.3c0-0.475,0.381-0.856,0.856-0.856s0.856,0.381,0.856,0.856v9.05
	C32.856,41.825,32.475,42.206,32,42.206z"/>
<path d="M32,32.9c-3.431,0-6.225-2.794-6.225-6.226c0-3.431,2.794-6.225,6.225-6.225c3.432,0,6.225,2.793,6.225,6.225
	C38.225,30.106,35.432,32.9,32,32.9z M32,22.175c-2.487,0-4.506,2.019-4.506,4.506c0,2.488,2.019,4.506,4.506,4.506
	s4.506-2.019,4.506-4.506C36.506,24.194,34.487,22.175,32,22.175z"/>
</svg>
