<?xml version="1.0" standalone="no"?><!DOCTYPE svg PUBLIC "-//W3C//DTD SVG 1.1//EN" "http://www.w3.org/Graphics/SVG/1.1/DTD/svg11.dtd"><svg t="1602753306171" class="icon" viewBox="0 0 1024 1024" version="1.1" xmlns="http://www.w3.org/2000/svg" p-id="2306" width="64" height="64" xmlns:xlink="http://www.w3.org/1999/xlink"><defs><style type="text/css"></style></defs><path d="M512 1024C229.696 1024 0.064 794.24 0.064 512 0.064 229.696 229.696 0 512 0c282.24 0 512 229.696 512 512 0 282.24-229.76 512-512 512zM512 48.768C256.64 48.768 48.832 256.576 48.832 512c0 255.36 207.808 463.232 463.168 463.232S975.104 767.36 975.104 512C975.104 256.576 767.36 48.768 512 48.768z" fill="#000000" p-id="2307"></path><path d="M438.848 741.504L202.176 504.896a24.384 24.384 0 0 1 34.432-34.496l202.24 202.112 348.416-348.416a24.512 24.512 0 0 1 34.496 0 24.704 24.704 0 0 1 0 34.56l-382.912 382.848z" fill="#000000" p-id="2308"></path></svg>