<?xml version="1.0" encoding="utf-8"?>
<!-- Generator: Adobe Illustrator 15.0.0, SVG Export Plug-In . SVG Version: 6.00 Build 0)  -->
<!DOCTYPE svg PUBLIC "-//W3C//DTD SVG 1.1//EN" "http://www.w3.org/Graphics/SVG/1.1/DTD/svg11.dtd">
<svg version="1.1" id="图层_1" xmlns="http://www.w3.org/2000/svg" xmlns:xlink="http://www.w3.org/1999/xlink" x="0px" y="0px"
	 width="62.486px" height="62.974px" viewBox="0.75 0.499 62.486 62.974" enable-background="new 0.75 0.499 62.486 62.974"
	 xml:space="preserve">
<path d="M18.041,8.571c-1.333,0.663-2.568,1.505-3.672,2.503c-2.961,2.674-4.887,6.346-5.274,11.123
	c-0.045,0.555,0.487,1.216,1.041,1.261c0.555,0.045,1.373-0.547,1.417-1.103c0.683-4.262,1.936-7.233,4.528-9.574
	c1.341-1.197,3.042-1.869,4.354-2.488c0.976-0.325,1.364-1.177,1.207-1.711c-0.168-0.809-1.336-0.885-1.87-0.728
	C19.404,7.963,18.801,8.193,18.041,8.571z M46.59,50.403c9.23,0,16.646-8.634,16.646-19.214S55.82,11.976,46.59,11.976
	c-2.477,0-4.875,0.624-7.066,1.81l1.372,2.672c1.68-1.176,3.533-1.792,5.669-1.806c6.299-0.042,13.752,8.567,13.773,16.461
	c0.025,8.397-6.76,16.294-13.438,16.294c-4.661,0-8.926-2.459-11.632-7.225l-2.337,1.999C36.164,47.154,40.893,50.403,46.59,50.403z
	"/>
<path d="M39.983,24.289c0-11.537-8.231-20.803-18.263-20.803S3.458,12.752,3.458,24.289s8.23,20.803,18.262,20.803
	S39.983,35.825,39.983,24.289z M0.75,24.184c0-13.081,9.419-23.685,21.038-23.685s21.038,10.604,21.038,23.684
	c0,13.081-9.419,23.684-21.038,23.684S0.75,37.264,0.75,24.184z"/>
<path d="M19.429,47.578c-1.582,2.12-1.884,4.466-0.042,6.756c2.581,3.209,3.031,3.901,3.029,4.979
	c-0.002,0.775-0.455,1.557-1.542,2.505c-0.489,0.427-0.413,1.062,0.17,1.42c0.583,0.357,1.451,0.302,1.94-0.125
	c1.476-1.287,2.183-2.507,2.187-3.796c0.004-1.613-0.496-2.383-3.409-6.004c-1.282-1.595-1.073-3.215,0.086-4.769
	c0.362-0.485,0.718-0.836,0.93-1.006c0.512-0.411,0.472-1.048-0.091-1.423c-0.562-0.375-1.434-0.346-1.946,0.066
	C20.392,46.461,19.907,46.938,19.429,47.578z M44.744,49.956c-1.211,1.299-1.453,2.806-0.014,4.238
	c1.586,1.577,1.879,1.938,1.877,2.329c0,0.241-0.211,0.531-0.815,0.953c-0.551,0.385-0.571,1.022-0.046,1.425
	c0.525,0.403,1.396,0.418,1.947,0.034c1.104-0.771,1.666-1.547,1.67-2.408c0.003-1.043-0.338-1.462-2.414-3.527
	c-0.643-0.639-0.545-1.248,0.071-1.908c0.207-0.223,0.411-0.383,0.518-0.451c0.571-0.367,0.628-1.004,0.126-1.422
	s-1.372-0.46-1.943-0.093C45.453,49.298,45.098,49.577,44.744,49.956z"/>
</svg>
