<?xml version="1.0" encoding="utf-8"?>
<!-- Generator: Adobe Illustrator 15.0.0, SVG Export Plug-In . SVG Version: 6.00 Build 0)  -->
<!DOCTYPE svg PUBLIC "-//W3C//DTD SVG 1.1//EN" "http://www.w3.org/Graphics/SVG/1.1/DTD/svg11.dtd">
<svg version="1.1" id="图层_1" xmlns="http://www.w3.org/2000/svg" xmlns:xlink="http://www.w3.org/1999/xlink" x="0px" y="0px"
	 width="57.423px" height="64px" viewBox="3.29 0 57.423 64" enable-background="new 3.29 0 57.423 64" xml:space="preserve">
<path d="M32,64c-5.083,0-9.686-3-11.804-7.577H8.762c-3.027-0.005-5.478-2.464-5.473-5.491c0.002-1.078,0.321-2.131,0.918-3.027
	l3.37-5.049V28.211C7.564,17.933,14,8.752,23.667,5.261C25.203,2.083,28.456,0,32,0c3.545,0,6.797,2.085,8.332,5.26
	C50,8.751,56.438,17.933,56.423,28.211v14.643l3.369,5.051c1.679,2.518,0.999,5.921-1.521,7.6c-0.899,0.601-1.957,0.921-3.038,0.921
	H43.8C41.684,61,37.082,64,32,64z M32,3.38c-2.461,0-4.618,1.504-5.498,3.833l-0.288,0.757l-0.768,0.251
	c-8.652,2.819-14.503,10.891-14.492,19.991v15.665l-3.938,5.896c-0.643,0.967-0.379,2.271,0.588,2.914
	c0.344,0.229,0.747,0.352,1.159,0.352h13.757l0.399,1.125c1.367,3.859,5.018,6.451,9.078,6.451s7.707-2.592,9.078-6.451l0.398-1.125
	h13.757c1.16,0,2.101-0.941,2.101-2.102c0-0.414-0.123-0.819-0.353-1.164l-3.937-5.896V28.211c0.012-9.1-5.84-17.172-14.492-19.991
	l-0.77-0.252l-0.287-0.757C36.631,4.918,34.423,3.379,32,3.38L32,3.38z"/>
<path d="M20.848,53.049h22.733v3.379H20.848V53.049z"/>
</svg>
