<?xml version="1.0" encoding="utf-8"?>
<!-- Generator: Adobe Illustrator 15.0.0, SVG Export Plug-In . SVG Version: 6.00 Build 0)  -->
<!DOCTYPE svg PUBLIC "-//W3C//DTD SVG 1.1//EN" "http://www.w3.org/Graphics/SVG/1.1/DTD/svg11.dtd">
<svg version="1.1" id="图层_1" xmlns="http://www.w3.org/2000/svg" xmlns:xlink="http://www.w3.org/1999/xlink" x="0px" y="0px"
	 width="64px" height="63.998px" viewBox="0 0.002 64 63.998" enable-background="new 0 0.002 64 63.998" xml:space="preserve">
<path d="M62.316,33.684H1.684C0.754,33.684,0,32.93,0,32c0-0.93,0.754-1.684,1.684-1.684h60.632C63.246,30.316,64,31.07,64,32
	C64,32.93,63.246,33.684,62.316,33.684L62.316,33.684z"/>
<path d="M32,64c-0.93,0-1.684-0.754-1.684-1.684V1.684c0.001-0.93,0.756-1.683,1.686-1.682c0.929,0.001,1.682,0.753,1.682,1.682
	v60.632C33.684,63.246,32.93,64,32,64z"/>
</svg>
