<?xml version="1.0" encoding="utf-8"?>
<!-- Generator: Adobe Illustrator 15.0.0, SVG Export Plug-In . SVG Version: 6.00 Build 0)  -->
<!DOCTYPE svg PUBLIC "-//W3C//DTD SVG 1.1//EN" "http://www.w3.org/Graphics/SVG/1.1/DTD/svg11.dtd">
<svg version="1.1" id="图层_1" xmlns="http://www.w3.org/2000/svg" xmlns:xlink="http://www.w3.org/1999/xlink" x="0px" y="0px"
	 width="49.125px" height="45.813px" viewBox="7.75 9.125 49.125 45.813" enable-background="new 7.75 9.125 49.125 45.813"
	 xml:space="preserve">
<path d="M15.182,35.025v8.58c0,0.621-0.503,1.125-1.125,1.125c-0.621,0-1.125-0.504-1.125-1.125V33.9
	c0-0.621,0.504-1.125,1.125-1.125H50.6c0.621,0,1.125,0.504,1.125,1.125v9.705c0,0.621-0.504,1.125-1.125,1.125
	s-1.125-0.504-1.125-1.125v-8.58H15.182z"/>
<path d="M33.418,43.605c0,0.621-0.504,1.125-1.125,1.125s-1.125-0.504-1.125-1.125v-17.9c0-0.621,0.503-1.125,1.125-1.125
	s1.125,0.504,1.125,1.125V43.605z M10,44.73v7.957h7.959V44.73H10z M8.875,42.48h10.209c0.621,0,1.125,0.503,1.125,1.125v10.207
	c0,0.621-0.504,1.125-1.125,1.125H8.875c-0.621,0-1.125-0.504-1.125-1.125V43.605C7.75,42.983,8.254,42.48,8.875,42.48z"/>
<path d="M28.271,52.688h7.959V44.73h-7.959V52.688z M27.146,42.48h10.209c0.621,0,1.125,0.503,1.125,1.125v10.207
	c0,0.621-0.504,1.125-1.125,1.125H27.146c-0.621,0-1.125-0.504-1.125-1.125V43.605C26.021,42.983,26.524,42.48,27.146,42.48z
	 M46.666,52.688h7.959V44.73h-7.959V52.688z M45.541,42.48H55.75c0.621,0,1.125,0.503,1.125,1.125v10.207
	c0,0.621-0.504,1.125-1.125,1.125H45.541c-0.621,0-1.125-0.504-1.125-1.125V43.605C44.416,42.983,44.92,42.48,45.541,42.48z"/>
<path d="M23.066,11.375V24.58h18.24V11.375H23.066z M21.941,9.125h20.49c0.622,0,1.125,0.504,1.125,1.125v15.455
	c0,0.622-0.503,1.125-1.125,1.125h-20.49c-0.621,0-1.125-0.503-1.125-1.125V10.25C20.816,9.629,21.32,9.125,21.941,9.125z"/>
</svg>
