<?xml version="1.0" encoding="utf-8"?>
<!-- Generator: Adobe Illustrator 15.0.0, SVG Export Plug-In . SVG Version: 6.00 Build 0)  -->
<!DOCTYPE svg PUBLIC "-//W3C//DTD SVG 1.1//EN" "http://www.w3.org/Graphics/SVG/1.1/DTD/svg11.dtd">
<svg version="1.1" id="图层_1" xmlns="http://www.w3.org/2000/svg" xmlns:xlink="http://www.w3.org/1999/xlink" x="0px" y="0px"
	 width="13.938px" height="19.98px" viewBox="2.903 0 13.938 19.98" enable-background="new 2.903 0 13.938 19.98"
	 xml:space="preserve">
<path d="M4.906,5.142v10.967c0,1.069,0.867,1.936,1.936,1.936h5.162c0.355,0,0.645-0.289,0.645-0.645
	c0-0.356-0.289-0.646-0.645-0.646H6.842c-0.356,0-0.645-0.289-0.645-0.646l0,0V5.142c0-0.356-0.289-0.646-0.645-0.646
	C5.195,4.497,4.906,4.786,4.906,5.142z"/>
<path d="M5.552,10.948h6.452v-1.29H5.552V10.948z M4.193,0h2.581c0.712,0,1.29,0.578,1.29,1.291l0,0v2.581
	c0,0.712-0.578,1.29-1.29,1.29H4.193c-0.712,0-1.29-0.578-1.29-1.29V1.291C2.903,0.578,3.481,0,4.193,0z M4.193,1.291v2.581h2.581
	V1.291H4.193z"/>
<path d="M12.97,7.723h2.581c0.713,0,1.29,0.578,1.29,1.29v2.581c0,0.713-0.577,1.29-1.29,1.29H12.97c-0.713,0-1.29-0.577-1.29-1.29
	V9.013C11.68,8.3,12.257,7.723,12.97,7.723z M12.97,9.013v2.581h2.581V9.013H12.97z M12.97,14.819h2.581
	c0.713,0,1.29,0.577,1.29,1.29v2.581c0,0.712-0.577,1.29-1.29,1.29H12.97c-0.713,0-1.29-0.578-1.29-1.29v-2.581
	C11.68,15.396,12.257,14.819,12.97,14.819L12.97,14.819z M12.97,16.109v2.581h2.581v-2.581H12.97z"/>
</svg>
