<?xml version="1.0" encoding="utf-8"?>
<!-- Generator: Adobe Illustrator 15.0.0, SVG Export Plug-In . SVG Version: 6.00 Build 0)  -->
<!DOCTYPE svg PUBLIC "-//W3C//DTD SVG 1.1//EN" "http://www.w3.org/Graphics/SVG/1.1/DTD/svg11.dtd">
<svg version="1.1" id="图层_1" xmlns="http://www.w3.org/2000/svg" xmlns:xlink="http://www.w3.org/1999/xlink" x="0px" y="0px"
	 width="64px" height="64px" viewBox="0 0 64 64" enable-background="new 0 0 64 64" xml:space="preserve">
<path d="M40.76,4.069l10.238,9.637L14.487,48.075H4.25v-8.95c0-0.27-0.006-0.494,0-0.688L40.76,4.069 M40.76,0
	c-1.049,0-2.098,0.375-2.895,1.131L1.202,35.639C-0.053,36.818,0,36.861,0,39.395c0,12.638,0.006,12.674,0.006,12.674
	s0.04,0.008,12.17,0.008h1.833c2.171,0,2.297-0.038,3.459-1.139l36.65-34.5c1.601-1.506,1.601-3.95,0-5.456l-10.464-9.85
	C42.857,0.375,41.811,0,40.76,0z"/>
<polygon points="32.819,11.303 35.946,8.506 46.58,18.016 43.453,20.813 "/>
<path d="M61.755,51.675H43.126c-1.245,0-2.257-0.899-2.257-2.006s1.012-2.007,2.257-2.007h18.629c1.245,0,2.257,0.9,2.257,2.007
	S63,51.675,61.755,51.675z"/>
<path d="M61.755,64H2.262c-1.244,0-2.256-0.9-2.256-2.006s1.012-2.008,2.256-2.008h59.493c1.245,0,2.257,0.9,2.257,2.008
	C64.012,63.1,63,64,61.755,64z"/>
</svg>
