<?xml version="1.0" encoding="utf-8"?>
<!-- Generator: Adobe Illustrator 15.0.0, SVG Export Plug-In . SVG Version: 6.00 Build 0)  -->
<!DOCTYPE svg PUBLIC "-//W3C//DTD SVG 1.1//EN" "http://www.w3.org/Graphics/SVG/1.1/DTD/svg11.dtd">
<svg version="1.1" id="图层_1" xmlns="http://www.w3.org/2000/svg" xmlns:xlink="http://www.w3.org/1999/xlink" x="0px" y="0px"
	 width="64px" height="64px" viewBox="0 0 64 64" enable-background="new 0 0 64 64" xml:space="preserve">
<path d="M47.001,48.984c-0.618-0.629-0.604-1.632,0.033-2.245c0.639-0.611,1.655-0.595,2.276,0.033L63.491,61.18
	c0.62,0.63,0.604,1.635-0.033,2.246s-1.654,0.596-2.273-0.031L47.001,48.984z"/>
<path d="M28.829,56.643c-15.818,0-28.642-12.66-28.642-28.274S13.011,0.096,28.829,0.096c15.817,0,28.642,12.658,28.642,28.272
	S44.646,56.643,28.829,56.643z M28.829,53.466c14.041,0,25.424-11.237,25.424-25.098S42.87,3.271,28.829,3.271
	c-14.042,0-25.424,11.236-25.424,25.097S14.788,53.466,28.829,53.466z"/>
<path d="M20.026,30.221c-0.888,0-1.608-0.711-1.608-1.587c0-0.877,0.721-1.588,1.608-1.588h18.677c0.889,0,1.608,0.711,1.608,1.588
	c0,0.876-0.72,1.587-1.608,1.587H20.026z"/>
</svg>
