<?xml version="1.0" encoding="utf-8"?>
<!-- Generator: Adobe Illustrator 15.0.0, SVG Export Plug-In . SVG Version: 6.00 Build 0)  -->
<!DOCTYPE svg PUBLIC "-//W3C//DTD SVG 1.1//EN" "http://www.w3.org/Graphics/SVG/1.1/DTD/svg11.dtd">
<svg version="1.1" id="图层_1" xmlns="http://www.w3.org/2000/svg" xmlns:xlink="http://www.w3.org/1999/xlink" x="0px" y="0px"
	 width="51.906px" height="52.212px" viewBox="6.094 5.95 51.906 52.212" enable-background="new 6.094 5.95 51.906 52.212"
	 xml:space="preserve">
<path d="M56.7,8.544H7.388c-0.719,0-1.294-0.582-1.294-1.294s0.581-1.294,1.294-1.294h49.318C57.425,5.956,58,6.538,58,7.25
	S57.419,8.544,56.7,8.544z"/>
<path d="M55.544,32.038c-0.331,0-0.663-0.125-0.919-0.381L32.044,9.081L9.462,31.663c-0.506,0.506-1.325,0.506-1.831,0
	s-0.506-1.325,0-1.832l23.5-23.5c0.244-0.244,0.575-0.381,0.918-0.381s0.675,0.137,0.919,0.381l23.5,23.5
	c0.506,0.506,0.506,1.325,0,1.832C56.206,31.913,55.875,32.038,55.544,32.038z"/>
<path d="M32.138,58.162c-0.713,0-1.294-0.574-1.294-1.293L30.663,7.594c0-0.719,0.575-1.3,1.293-1.3h0.006
	c0.712,0,1.293,0.575,1.293,1.293l0.182,49.275C33.438,57.581,32.856,58.162,32.138,58.162
	C32.144,58.162,32.138,58.162,32.138,58.162L32.138,58.162z"/>
</svg>
