<?xml version="1.0" standalone="no"?><!DOCTYPE svg PUBLIC "-//W3C//DTD SVG 1.1//EN" "http://www.w3.org/Graphics/SVG/1.1/DTD/svg11.dtd"><svg t="1602752058606" class="icon" viewBox="0 0 1024 1024" version="1.1" xmlns="http://www.w3.org/2000/svg" p-id="32467" width="64" height="64" xmlns:xlink="http://www.w3.org/1999/xlink"><defs><style type="text/css"></style></defs><path d="M702.6 1022.8c-73.7 0-144.4-24.3-201.5-69.8-65.3-51.9-105.2-125.3-112.5-206.5-15-167.2 115.1-316.1 290-331.7 174.7-15.6 329.3 107.7 344.3 274.9 5.7 64.2-9.4 127.1-43.8 182.4 2.4 12.9 13.5 47 23.7 74.5l12.6 33.9c1.1 3-1.7 6-4.8 5l-34.5-10.7c-26.9-8.4-59.8-17.3-72.9-19.3-49 37.5-107.7 60.2-170.3 65.8-10.1 1.1-20.3 1.5-30.3 1.5z m-270.9-280c6.2 69.3 40.4 132 96.3 176.5 56.2 44.7 127.6 65.8 201 59.2 56.6-5 109.4-26.1 152.8-61 6.5-5.2 12.3-9.9 59.4 2.3 3 0.8 5.6-2 4.7-4.9-15.1-47.6-10.7-54.3-6.5-60.9 31.5-48.3 45.4-103.8 40.3-160.3C967 550.1 833.3 444.4 682.4 457.9c-151.1 13.6-263.6 141.3-250.7 284.9z m0 0" p-id="32468"></path><path d="M216 246.8c0 20.9 16.9 37.8 37.8 37.8s37.8-16.9 37.8-37.8-16.9-37.8-37.8-37.8-37.8 16.9-37.8 37.8z m0 0M432.2 246.8c0 20.9 16.9 37.8 37.8 37.8s37.8-16.9 37.8-37.8S490.9 209 470 209c-20.8 0-37.8 16.9-37.8 37.8z m0 0" p-id="32469"></path><path d="M567.3 629.7c0 17.9 14.5 32.4 32.4 32.4s32.4-14.5 32.4-32.4-14.5-32.4-32.4-32.4c-17.8 0-32.4 14.5-32.4 32.4z m0 0M761.9 629.7c0 17.9 14.5 32.4 32.4 32.4s32.4-14.5 32.4-32.4-14.5-32.4-32.4-32.4-32.4 14.5-32.4 32.4z m0 0" p-id="32470"></path><path d="M801.5 319c-3.4-14.6-7.7-29.1-13-43.3-36-97.3-115-184.5-224.7-234.2C489 7.5 410.4-4.2 337.3 3.4v-0.3c-2.3 0.3-4.6 0.7-6.9 1-63.5 7.7-122.7 30.2-171.5 65.5-95.4 63.2-157 162.9-157 274.9 0 73.9 26.2 144 76 203.3-1.4 14.7-11.6 55.2-21.6 88.2l-8.8 29c-1.6 5.2 3.5 10 8.6 8.1l28.4-10.6c35.7-13.3 79.4-27.8 94.3-30.4 46.8 27.2 89.9 44.1 139.6 51.6 0.7 0.1 1.4 0.1 2.2 0.1h0.8c12.2 0 22-9.8 22-22 0-10.1-6.8-18.6-16.2-21.2-0.1 0-0.2-0.1-0.3-0.1-0.1 0-0.2 0-0.3-0.1l-1.2-0.3c-46.3-8.4-90.2-24.6-129.5-48.2-2.9-1.8-5.9-3.6-12.9-3.6-9.8 0-27.3 3.6-63.6 15.7-4.3 1.5-8.6-2.5-7.4-6.9 14.8-58.9 8.5-66.2 2.7-72.8C69.2 472 45.1 409.7 45.1 344.4 45.2 196 171.4 72.2 337.3 46.8v-0.1c66.9-7.8 139.5 2.7 208.6 34 100.1 45.5 171.7 125 203.3 213 4.1 11.4 7.5 23 10.2 34.6 1.4 5.9 5.3 10.9 10.6 13.8 0.2 0.1 0.3 0.2 0.5 0.3 16.2 8.7 35.2-5.6 31-23.4z" p-id="32471"></path></svg>
