<?xml version="1.0" encoding="utf-8"?>
<!-- Generator: Adobe Illustrator 15.0.0, SVG Export Plug-In . SVG Version: 6.00 Build 0)  -->
<!DOCTYPE svg PUBLIC "-//W3C//DTD SVG 1.1//EN" "http://www.w3.org/Graphics/SVG/1.1/DTD/svg11.dtd">
<svg version="1.1" id="图层_1" xmlns="http://www.w3.org/2000/svg" xmlns:xlink="http://www.w3.org/1999/xlink" x="0px" y="0px"
	 width="42.667px" height="34.666px" viewBox="10.667 16 42.667 34.666" enable-background="new 10.667 16 42.667 34.666"
	 xml:space="preserve">
<path d="M22.667,16H52c0.889,0,1.334,0.444,1.334,1.333l0,0c0,0.889-0.445,1.333-1.334,1.333H22.667
	c-0.889,0-1.333-0.444-1.333-1.333l0,0C21.333,16.444,21.778,16,22.667,16z"/>
<path d="M12,16h2.667C15.556,16,16,16.444,16,17.333l0,0c0,0.889-0.444,1.333-1.333,1.333H12c-0.889,0-1.333-0.444-1.333-1.333l0,0
	C10.667,16.444,11.111,16,12,16z"/>
<path d="M12,32h2.667C15.556,32,16,32.444,16,33.334l0,0c0,0.889-0.444,1.332-1.333,1.332H12c-0.889,0-1.333-0.443-1.333-1.332l0,0
	C10.667,32.444,11.111,32,12,32z"/>
<path d="M12,48h2.667C15.556,48,16,48.444,16,49.334l0,0c0,0.889-0.444,1.332-1.333,1.332H12c-0.889,0-1.333-0.443-1.333-1.332l0,0
	C10.667,48.444,11.111,48,12,48z"/>
<path d="M22.667,32H52c0.889,0,1.334,0.444,1.334,1.334l0,0c0,0.889-0.445,1.332-1.334,1.332H22.667
	c-0.889,0-1.333-0.443-1.333-1.332l0,0C21.333,32.444,21.778,32,22.667,32z"/>
<path d="M22.667,48H52c0.889,0,1.334,0.444,1.334,1.334l0,0c0,0.889-0.445,1.332-1.334,1.332H22.667
	c-0.889,0-1.333-0.443-1.333-1.332l0,0C21.333,48.444,21.778,48,22.667,48z"/>
</svg>
