<?xml version="1.0" encoding="utf-8"?>
<!-- Generator: Adobe Illustrator 15.0.0, SVG Export Plug-In . SVG Version: 6.00 Build 0)  -->
<!DOCTYPE svg PUBLIC "-//W3C//DTD SVG 1.1//EN" "http://www.w3.org/Graphics/SVG/1.1/DTD/svg11.dtd">
<svg version="1.1" id="图层_1" xmlns="http://www.w3.org/2000/svg" xmlns:xlink="http://www.w3.org/1999/xlink" x="0px" y="0px"
	 width="57.6px" height="60.4px" viewBox="3.2 1.6 57.6 60.4" enable-background="new 3.2 1.6 57.6 60.4" xml:space="preserve">
<path d="M44,39.6L31.2,50.4L18.8,39.6c-6,0-12,10.801-12,17.601c0,1.6,0,1.6,1.6,1.6h46.4c1.601,0,1.601,0,1.601-1.6
	C56.8,48.4,48.4,39.6,44,39.6z M42.8,35.6c9.2,0,18,12,18,24.4c0,1.2-0.399,2-2,2H5.2c-2,0-2,0-2-1.6C3.2,46.8,10.4,35.6,20,35.6
	c7.2,6.4,11.2,9.601,11.6,10C32,44.8,41.2,35.6,42.8,35.6z M32,23.6c7.6,0,14.8-0.4,22.4-1.2c0.399,0,0.8-0.4,0.8-0.4
	s0-0.4,0.399-0.4l-0.8-2.8c0-0.8-0.8-1.2-1.2-0.8L45.2,18.8l-0.4-3.6l-1.2-8.8C36,6.8,28.4,6.8,20.8,6l-1.6,12.4L15.6,18l-5.2-0.4
	c-0.4,0-1.2,0.4-1.2,0.8V22c0,0.4,0.4,0.4,0.8,0.4C17.2,23.2,24.8,23.6,32,23.6z M6,24.4c-0.8-1.2-1.2-2.4-0.8-4L5.6,18
	c0.4-2.8,2.8-4.4,5.2-4.4L16,14l1.2-10c0.4-1.6,1.6-2.4,3.2-2.4c8,0.8,16,0.8,24,0c1.6,0,2.8,0.8,2.8,2.4l1.2,10l4.8-0.4
	c2.8-0.4,5.2,1.6,5.6,4.4l0.4,2.4c0,1.2,0,2.4-0.8,3.6c-0.801,1.2-2,2-3.601,2C47.6,27.2,40,27.6,32,27.6c-7.6,0-15.2-0.4-22.8-1.2
	C8,26,6.8,25.2,6,24.4z"/>
</svg>
