<?xml version="1.0" encoding="utf-8"?>
<!-- Generator: Adobe Illustrator 15.0.0, SVG Export Plug-In . SVG Version: 6.00 Build 0)  -->
<!DOCTYPE svg PUBLIC "-//W3C//DTD SVG 1.1//EN" "http://www.w3.org/Graphics/SVG/1.1/DTD/svg11.dtd">
<svg version="1.1" id="图层_1" xmlns="http://www.w3.org/2000/svg" xmlns:xlink="http://www.w3.org/1999/xlink" x="0px" y="0px"
	 width="59.839px" height="63.919px" viewBox="2.082 0.001 59.839 63.919" enable-background="new 2.082 0.001 59.839 63.919"
	 xml:space="preserve">
<path d="M32,63.92c-1.456,0-2.924-0.1-4.372-0.3c-1.762-0.247-3.218-1.499-3.728-3.204c-1.635-5.291-7.064-8.436-12.468-7.221
	C9.708,53.59,7.91,52.96,6.808,51.576C5,49.266,3.52,46.717,2.412,44c-0.662-1.648-0.311-3.531,0.9-4.832
	c3.754-4.068,3.754-10.339,0-14.408c-1.21-1.305-1.561-3.191-0.9-4.844C3.521,17.201,5,14.653,6.808,12.344
	c1.103-1.381,2.899-2.011,4.624-1.62c2.601,0.571,5.321,0.155,7.632-1.168c2.317-1.333,4.044-3.494,4.832-6.048
	c0.544-1.732,1.968-2.964,3.728-3.204c2.903-0.404,5.849-0.404,8.752,0c1.756,0.24,3.188,1.472,3.728,3.204
	c0.791,2.553,2.518,4.713,4.832,6.048c2.312,1.33,5.037,1.747,7.641,1.168c1.716-0.384,3.544,0.252,4.615,1.624
	c1.809,2.308,3.289,4.854,4.4,7.568c0.66,1.62,0.313,3.52-0.908,4.84c-3.752,4.07-3.752,10.338,0,14.408
	c1.221,1.32,1.568,3.22,0.908,4.848c-1.109,2.715-2.59,5.262-4.4,7.568c-1.101,1.381-2.893,2.011-4.615,1.624
	c-2.604-0.578-5.328-0.163-7.641,1.164c-2.316,1.335-4.042,3.497-4.832,6.052c-0.539,1.732-1.967,2.96-3.728,3.204
	C34.924,63.82,33.456,63.92,32,63.92L32,63.92z M13.756,49.904c5.982,0,11.27,3.892,13.048,9.604
	c0.161,0.578,0.646,1.008,1.24,1.096c2.626,0.364,5.29,0.364,7.916,0c0.591-0.091,1.072-0.52,1.231-1.096
	c2.129-6.787,9.097-10.816,16.041-9.275c0.588,0.119,1.211-0.08,1.563-0.528c1.636-2.087,2.973-4.392,3.972-6.849
	c0.228-0.557,0.105-1.194-0.312-1.627c-2.34-2.533-3.624-5.824-3.624-9.265c0-3.44,1.284-6.732,3.624-9.264
	c0.415-0.434,0.54-1.068,0.323-1.628c-1.006-2.453-2.348-4.756-3.983-6.844c-0.376-0.461-0.984-0.667-1.563-0.528
	c-3.346,0.739-6.846,0.203-9.816-1.504c-2.98-1.717-5.203-4.496-6.225-7.78c-0.16-0.577-0.644-1.006-1.235-1.096
	c-2.626-0.36-5.29-0.36-7.916,0c-0.59,0.091-1.073,0.518-1.236,1.092c-1.019,3.285-3.24,6.063-6.22,7.78
	c-2.971,1.704-6.471,2.24-9.816,1.504c-0.579-0.143-1.188,0.062-1.564,0.524c-1.634,2.088-2.972,4.393-3.976,6.848
	c-0.221,0.561-0.094,1.198,0.324,1.632c2.332,2.532,3.616,5.82,3.616,9.26c0,3.44-1.288,6.735-3.62,9.265
	c-0.416,0.433-0.543,1.066-0.328,1.627c1,2.44,2.336,4.744,3.98,6.849c0.377,0.461,0.985,0.665,1.564,0.524
	C11.748,50.008,12.752,49.904,13.756,49.904z"/>
<path d="M32,44.136c-6.722-0.007-12.169-5.454-12.176-12.176C19.833,25.24,25.28,19.794,32,19.788
	c6.721,0.006,12.167,5.452,12.176,12.172C44.17,38.682,38.722,44.129,32,44.136z M32,22.832c-5.042,0.004-9.127,4.09-9.132,9.132
	c0.004,5.042,4.09,9.128,9.132,9.132c5.043-0.004,9.129-4.09,9.137-9.132C41.127,26.923,37.041,22.838,32,22.832z"/>
</svg>
