<?xml version="1.0" encoding="utf-8"?>
<!-- Generator: Adobe Illustrator 15.0.0, SVG Export Plug-In . SVG Version: 6.00 Build 0)  -->
<!DOCTYPE svg PUBLIC "-//W3C//DTD SVG 1.1//EN" "http://www.w3.org/Graphics/SVG/1.1/DTD/svg11.dtd">
<svg version="1.1" id="图层_1" xmlns="http://www.w3.org/2000/svg" xmlns:xlink="http://www.w3.org/1999/xlink" x="0px" y="0px"
	 width="59.5px" height="59.488px" viewBox="2.212 2.275 59.5 59.488" enable-background="new 2.212 2.275 59.5 59.488"
	 xml:space="preserve">
<path d="M17.938,34.938h23.875v3.5H17.938V34.938z M17.938,25.563h28.125v3.5H17.938V25.563z"/>
<path d="M31.956,61.763c-5.406,0-10.693-1.463-15.3-4.231c-0.119-0.013-0.494-0.019-1.362,0.188
	c-0.819,0.193-1.807,0.513-2.756,0.825c-1.263,0.412-2.575,0.831-3.712,1.05c-1.131,0.213-2.763,0.375-3.844-0.719
	c-1.588-1.6-0.688-4.369,0.35-7.568c0.313-0.957,0.631-1.944,0.832-2.763c0.212-0.882,0.206-1.25,0.194-1.369
	c-2.713-4.575-4.144-9.813-4.144-15.15c0-4.012,0.788-7.913,2.337-11.581c1.5-3.544,3.644-6.725,6.375-9.457
	c2.731-2.731,5.913-4.875,9.457-6.375c3.668-1.55,7.563-2.337,11.581-2.337c4.019,0,7.913,0.788,11.582,2.337
	c3.544,1.5,6.725,3.644,9.456,6.375c2.731,2.731,4.875,5.913,6.375,9.457c1.55,3.668,2.338,7.563,2.338,11.581
	c0,4.019-0.788,7.913-2.338,11.582c-1.5,3.544-3.644,6.725-6.375,9.456s-5.912,4.875-9.456,6.375
	C39.869,60.975,35.975,61.763,31.956,61.763z M16.538,54.031c0.694,0,1.313,0.131,1.837,0.45c4.081,2.475,8.775,3.781,13.575,3.781
	c3.544,0,6.981-0.694,10.219-2.063c3.125-1.325,5.931-3.213,8.344-5.625c2.412-2.413,4.306-5.219,5.625-8.344
	c1.368-3.237,2.063-6.675,2.063-10.219s-0.694-6.981-2.063-10.219c-1.325-3.125-3.213-5.932-5.625-8.344
	c-2.413-2.413-5.219-4.307-8.344-5.625c-3.237-1.369-6.675-2.063-10.219-2.063s-6.981,0.693-10.219,2.063
	c-3.125,1.325-5.932,3.212-8.344,5.625c-2.413,2.412-4.307,5.219-5.625,8.344C6.394,25.031,5.7,28.469,5.7,32.013
	c0,4.743,1.281,9.394,3.7,13.443c0.975,1.625,0.175,4.081-0.75,6.925C8.331,53.356,8,54.369,7.8,55.213
	c-0.112,0.469-0.162,0.793-0.181,1.019c0.225-0.019,0.55-0.069,1.013-0.182c0.837-0.2,1.85-0.524,2.819-0.837
	C13.375,54.594,15.112,54.031,16.538,54.031z"/>
</svg>
