<?xml version="1.0" encoding="utf-8"?>
<!-- Generator: Adobe Illustrator 15.0.0, SVG Export Plug-In . SVG Version: 6.00 Build 0)  -->
<!DOCTYPE svg PUBLIC "-//W3C//DTD SVG 1.1//EN" "http://www.w3.org/Graphics/SVG/1.1/DTD/svg11.dtd">
<svg version="1.1" id="图层_1" xmlns="http://www.w3.org/2000/svg" xmlns:xlink="http://www.w3.org/1999/xlink" x="0px" y="0px"
	 width="42.937px" height="48.125px" viewBox="10.675 8.15 42.937 48.125" enable-background="new 10.675 8.15 42.937 48.125"
	 xml:space="preserve">
<path d="M53.325,23.5C48.381,18.856,36.963,8.375,36.963,8.375c-0.156-0.15-0.344-0.194-0.544-0.206l0.006,0.012
	c-0.019,0-0.031-0.012-0.056-0.012c-0.476,0-0.856,0.381-0.856,0.856v0.832h0.006v12.55c0,1.419,1.156,2.575,2.575,2.575h13.787
	v28.706c0,0.475-0.387,0.856-0.855,0.856H13.244c-0.475,0-0.856-0.388-0.856-0.856V10.719c0-0.475,0.387-0.856,0.856-0.856h15.344
	c0.019,0,0.038,0.013,0.063,0.013c0.475,0,0.856-0.381,0.856-0.856c0-0.475-0.381-0.856-0.856-0.856h-0.006
	C22.506,8.156,13.25,8.15,13.25,8.15c-1.419,0-2.575,1.156-2.575,2.575V53.7c0,1.419,1.156,2.575,2.575,2.575h37.781
	c1.419,0,2.575-1.156,2.575-2.575V24.3C53.6,24.269,53.688,23.844,53.325,23.5z M38.094,23.269c-0.475,0-0.856-0.387-0.856-0.856
	V10.981l13.331,12.287H38.094z"/>
<path d="M32.537,29.175c0,0.475-0.381,0.856-0.856,0.856H19.975c-0.475,0-0.856-0.381-0.856-0.856c0-0.475,0.381-0.856,0.856-0.856
	h11.7C32.156,28.319,32.537,28.7,32.537,29.175z M43.443,37.188v0.081c0,0.45-0.368,0.819-0.818,0.819H19.938
	c-0.45,0-0.819-0.369-0.819-0.819v-0.081c0-0.45,0.369-0.818,0.819-0.818h22.688C43.075,36.369,43.443,36.737,43.443,37.188z
	 M43.443,45.237v0.081c0,0.45-0.368,0.819-0.818,0.819H19.938c-0.45,0-0.819-0.369-0.819-0.819v-0.081
	c0-0.45,0.369-0.818,0.819-0.818h22.688C43.075,44.425,43.443,44.787,43.443,45.237z"/>
</svg>
