<?xml version="1.0" encoding="utf-8"?>
<!-- Generator: Adobe Illustrator 15.0.0, SVG Export Plug-In . SVG Version: 6.00 Build 0)  -->
<!DOCTYPE svg PUBLIC "-//W3C//DTD SVG 1.1//EN" "http://www.w3.org/Graphics/SVG/1.1/DTD/svg11.dtd">
<svg version="1.1" id="图层_1" xmlns="http://www.w3.org/2000/svg" xmlns:xlink="http://www.w3.org/1999/xlink" x="0px" y="0px"
	 width="64.016px" height="42.328px" viewBox="-0.016 10.313 64.016 42.328" enable-background="new -0.016 10.313 64.016 42.328"
	 xml:space="preserve">
<path d="M62.317,33.12H4.955c-1.01,0-1.683-0.64-1.683-1.601c0-0.959,0.673-1.6,1.683-1.6h57.363c1.01,0,1.683,0.641,1.683,1.6
	C64,32.48,63.327,33.12,62.317,33.12z"/>
<path d="M26.318,52.641c-0.336,0-0.841-0.16-1.009-0.32L0.749,32.8c-0.673-0.64-0.841-1.6-0.168-2.239
	c0.673-0.641,1.682-0.801,2.354-0.16l24.561,19.52c0.672,0.641,0.841,1.6,0.168,2.24C27.159,52.48,26.823,52.641,26.318,52.641z"/>
<path d="M1.758,33.12c-0.504,0-1.009-0.16-1.346-0.64c-0.673-0.641-0.505-1.76,0.168-2.24l24.56-19.52
	c0.673-0.64,1.851-0.48,2.355,0.16c0.672,0.64,0.505,1.76-0.168,2.24L2.768,32.8C2.6,32.96,2.095,33.12,1.758,33.12z"/>
</svg>
