<?xml version="1.0" standalone="no"?><!DOCTYPE svg PUBLIC "-//W3C//DTD SVG 1.1//EN" "http://www.w3.org/Graphics/SVG/1.1/DTD/svg11.dtd"><svg t="1602752152884" class="icon" viewBox="0 0 1365 1024" version="1.1" xmlns="http://www.w3.org/2000/svg" p-id="34588" width="85.3125" height="64" xmlns:xlink="http://www.w3.org/1999/xlink"><defs><style type="text/css"></style></defs><path d="M170.666667 85.333333a85.333333 85.333333 0 0 0-85.333334 85.333334v682.666666a85.333333 85.333333 0 0 0 85.333334 85.333334h1024a85.333333 85.333333 0 0 0 85.333333-85.333334V170.666667a85.333333 85.333333 0 0 0-85.333333-85.333334H170.666667z m0-85.333333h1024a170.666667 170.666667 0 0 1 170.666666 170.666667v682.666666a170.666667 170.666667 0 0 1-170.666666 170.666667H170.666667a170.666667 170.666667 0 0 1-170.666667-170.666667V170.666667a170.666667 170.666667 0 0 1 170.666667-170.666667z" p-id="34589"></path><path d="M1305.6 220.416l47.104 71.168L682.496 735.573333 21.674667 291.413333l47.616-70.826666 613.546666 412.416z" p-id="34590"></path></svg>
