<?xml version="1.0" encoding="utf-8"?>
<!-- Generator: Adobe Illustrator 15.0.0, SVG Export Plug-In . SVG Version: 6.00 Build 0)  -->
<!DOCTYPE svg PUBLIC "-//W3C//DTD SVG 1.1//EN" "http://www.w3.org/Graphics/SVG/1.1/DTD/svg11.dtd">
<svg version="1.1" id="图层_1" xmlns="http://www.w3.org/2000/svg" xmlns:xlink="http://www.w3.org/1999/xlink" x="0px" y="0px"
	 width="48.45px" height="48.312px" viewBox="7.837 7.913 48.45 48.312" enable-background="new 7.837 7.913 48.45 48.312"
	 xml:space="preserve">
<path d="M32.106,47.119c-0.419,0-0.838-0.106-1.213-0.319L9.144,35.568l-0.019-0.006c-0.794-0.456-1.281-1.313-1.281-2.237v-2.313
	c0-0.475,0.388-0.863,0.862-0.863c0.475,0,0.863,0.388,0.863,0.863v2.313c0,0.306,0.156,0.587,0.4,0.731l21.75,11.23l0.019,0.013
	c0.231,0.132,0.513,0.132,0.744,0l0.031-0.019l21.649-11.219c0.25-0.15,0.4-0.432,0.4-0.731v-2.313c0-0.475,0.388-0.862,0.862-0.862
	c0.476,0,0.862,0.388,0.862,0.862v2.313c0,0.925-0.487,1.781-1.281,2.237l-0.031,0.02L33.318,46.8
	C32.943,47.013,32.525,47.119,32.106,47.119z"/>
<path d="M32.106,56.225c-0.419,0-0.838-0.105-1.213-0.318L9.144,44.675l-0.019-0.013c-0.794-0.456-1.281-1.313-1.281-2.237v-2.313
	c0-0.475,0.388-0.862,0.862-0.862c0.475,0,0.863,0.388,0.863,0.862v2.313c0,0.307,0.156,0.588,0.4,0.731l21.75,11.231l0.019,0.013
	c0.231,0.131,0.513,0.131,0.744,0l0.031-0.02l21.649-11.219c0.25-0.149,0.4-0.431,0.4-0.73v-2.313c0-0.476,0.388-0.863,0.862-0.863
	c0.476,0,0.862,0.388,0.862,0.863v2.313c0,0.925-0.487,1.781-1.281,2.237l-0.031,0.019L33.318,55.912
	C32.943,56.119,32.525,56.225,32.106,56.225z M32.056,37.693c-0.431,0-0.856-0.112-1.244-0.337L9.106,25.425l-0.013-0.006
	c-0.775-0.457-1.244-1.275-1.256-2.188c-0.012-0.913,0.438-1.744,1.194-2.225l0.025-0.013L30.75,8.288c0.806-0.5,1.8-0.5,2.606,0
	L55.075,21l0.013,0.006c0.762,0.481,1.212,1.313,1.199,2.225c-0.012,0.912-0.48,1.731-1.256,2.188l-0.025,0.012L33.3,37.362
	C32.919,37.588,32.487,37.693,32.056,37.693z M9.969,23.925l21.7,11.932l0.012,0.006c0.238,0.138,0.519,0.138,0.756,0l0.025-0.013
	l21.7-11.925c0.351-0.212,0.395-0.575,0.4-0.719c0-0.144-0.031-0.506-0.381-0.731L32.462,9.763L32.45,9.756
	c-0.244-0.156-0.55-0.156-0.794,0l-0.025,0.012L9.944,22.475c-0.35,0.225-0.381,0.587-0.381,0.731
	C9.569,23.356,9.612,23.712,9.969,23.925z"/>
</svg>
