<?xml version="1.0" encoding="utf-8"?>
<!-- Generator: Adobe Illustrator 15.0.0, SVG Export Plug-In . SVG Version: 6.00 Build 0)  -->
<!DOCTYPE svg PUBLIC "-//W3C//DTD SVG 1.1//EN" "http://www.w3.org/Graphics/SVG/1.1/DTD/svg11.dtd">
<svg version="1.1" id="图层_1" xmlns="http://www.w3.org/2000/svg" xmlns:xlink="http://www.w3.org/1999/xlink" x="0px" y="0px"
	 width="53.542px" height="53.526px" viewBox="5.272 5.244 53.542 53.526" enable-background="new 5.272 5.244 53.542 53.526"
	 xml:space="preserve">
<path d="M43.555,26.452c-1.545,0-3.089-0.572-4.232-1.773c-2.346-2.345-2.346-6.121,0-8.466c2.345-2.345,6.12-2.345,8.465,0
	c2.346,2.345,2.346,6.121,0,8.466C46.644,25.822,45.1,26.452,43.555,26.452z M43.555,16.67c-0.973,0-1.945,0.343-2.688,1.087
	c-1.487,1.487-1.487,3.833,0,5.32s3.833,1.487,5.319,0c1.488-1.487,1.488-3.833,0-5.32C45.5,17.07,44.527,16.67,43.555,16.67z
	 M16.613,58.771h-0.172l-8.866-1.373c-0.458-0.058-0.858-0.458-0.915-0.915l-1.373-8.866c-0.057-0.343,0.058-0.687,0.286-0.973
	L25.65,26.566c0.458-0.458,1.144-0.458,1.602,0c0.458,0.458,0.458,1.144,0,1.602L7.518,47.845l1.201,7.493l7.036,1.088l1.373-5.777
	c0.115-0.516,0.629-0.859,1.144-0.859l4.348,0.287l2.574-2.574l-1.029-3.947c-0.115-0.4,0-0.801,0.286-1.087
	c0.286-0.286,0.687-0.4,1.087-0.286l3.833,1.087l2.06-2.06c0.458-0.457,1.144-0.457,1.601,0c0.458,0.458,0.458,1.145,0,1.602
	l-2.517,2.518c-0.286,0.285-0.687,0.4-1.087,0.285l-2.574-0.743l0.686,2.688c0.115,0.4,0,0.801-0.286,1.087l-3.375,3.375
	c-0.229,0.229-0.572,0.343-0.858,0.343l-3.89-0.285l-1.43,5.834C17.585,58.428,17.127,58.771,16.613,58.771z"/>
<path d="M41.725,39.436c-1.773,0-3.547-0.285-5.32-0.857c-0.572-0.172-0.915-0.801-0.743-1.43c0.171-0.572,0.801-0.916,1.43-0.744
	c5.377,1.717,11.154,0.344,15.102-3.604c5.777-5.777,5.777-15.216,0-21.05c-5.777-5.777-15.216-5.777-21.05,0
	c-3.947,3.947-5.377,9.782-3.604,15.102c0.172,0.572-0.114,1.201-0.744,1.43c-0.572,0.172-1.201-0.114-1.43-0.744
	c-1.945-6.063-0.343-12.756,4.233-17.275c6.692-6.692,17.504-6.692,24.196,0c6.692,6.693,6.692,17.504,0,24.196
	C50.477,37.663,46.186,39.436,41.725,39.436z"/>
</svg>
