<?xml version="1.0" standalone="no"?><!DOCTYPE svg PUBLIC "-//W3C//DTD SVG 1.1//EN" "http://www.w3.org/Graphics/SVG/1.1/DTD/svg11.dtd"><svg t="1602753358531" class="icon" viewBox="0 0 1024 1024" version="1.1" xmlns="http://www.w3.org/2000/svg" p-id="1625" width="64" height="64" xmlns:xlink="http://www.w3.org/1999/xlink"><defs><style type="text/css"></style></defs><path d="M731.392 755.904a24.768 24.768 0 0 1-17.344-7.232L275.328 309.824a24.32 24.32 0 0 1 34.432-34.496l438.72 438.912c9.6 9.472 9.6 24.896 0 34.368a24.256 24.256 0 0 1-17.088 7.296z" p-id="1626"></path><path d="M292.48 755.904a24.576 24.576 0 0 1-17.216-7.232 24.192 24.192 0 0 1 0-34.368l438.72-438.912a24.32 24.32 0 0 1 34.432 0 24.32 24.32 0 0 1 0 34.496L309.76 748.608a24.704 24.704 0 0 1-17.28 7.296z" p-id="1627"></path><path d="M511.936 1024C229.632 1024 0 794.24 0 512c0-282.304 229.632-512 511.936-512 282.24 0 512 229.696 512 512 0 282.24-229.76 512-512 512z m0-975.232C256.512 48.768 48.768 256.576 48.768 512c0 255.36 207.744 463.232 463.168 463.232 255.36 0 463.168-207.872 463.168-463.232 0-255.424-207.808-463.232-463.168-463.232z" p-id="1628"></path></svg>
