<?xml version="1.0" encoding="utf-8"?>
<!-- Generator: Adobe Illustrator 15.0.0, SVG Export Plug-In . SVG Version: 6.00 Build 0)  -->
<!DOCTYPE svg PUBLIC "-//W3C//DTD SVG 1.1//EN" "http://www.w3.org/Graphics/SVG/1.1/DTD/svg11.dtd">
<svg version="1.1" id="图层_1" xmlns="http://www.w3.org/2000/svg" xmlns:xlink="http://www.w3.org/1999/xlink" x="0px" y="0px"
	 width="37.5px" height="37.5px" viewBox="13.219 13.219 37.5 37.5" enable-background="new 13.219 13.219 37.5 37.5"
	 xml:space="preserve">
<path d="M50.432,31.306c-0.182-0.168-0.426-0.275-0.7-0.275H32.906V14.156c0-0.519-0.419-0.938-0.938-0.938
	c-10.356,0-18.75,8.394-18.75,18.75s8.394,18.75,18.75,18.75s18.75-8.394,18.75-18.75C50.719,31.712,50.606,31.475,50.432,31.306z
	 M47.519,38.537C46.669,40.55,45.45,42.35,43.9,43.9c-1.551,1.55-3.356,2.769-5.363,3.618c-2.081,0.882-4.287,1.325-6.568,1.325
	S27.481,48.4,25.4,47.519c-2.006-0.85-3.813-2.068-5.362-3.618c-1.55-1.551-2.769-3.356-3.619-5.363
	c-0.881-2.081-1.325-4.287-1.325-6.568s0.444-4.487,1.325-6.569c0.85-2.012,2.068-3.813,3.619-5.362
	c1.55-1.55,3.356-2.769,5.362-3.619c1.794-0.756,3.681-1.194,5.631-1.3v16.875c0,0.256,0.112,0.488,0.288,0.65l0.006,0.007
	c0.168,0.156,0.394,0.256,0.644,0.256h16.85C48.713,34.856,48.275,36.744,47.519,38.537z"/>
<path d="M35.693,28.269C35.7,28.275,35.7,28.275,35.693,28.269c0.176,0.163,0.4,0.263,0.65,0.263H49.25
	c0.606,0,1.05-0.569,0.9-1.156c0-0.006-0.007-0.013-0.007-0.019V27.35c-0.056-0.231-0.125-0.462-0.188-0.694
	c-1.794-6.081-6.587-10.881-12.675-12.675c-0.231-0.069-0.463-0.131-0.693-0.188h-0.007c-0.006,0-0.013-0.006-0.019-0.006
	c-0.588-0.15-1.156,0.293-1.156,0.9v12.938C35.406,27.881,35.519,28.106,35.693,28.269z M38.537,16.419
	c2.007,0.85,3.813,2.068,5.363,3.619c1.55,1.55,2.769,3.356,3.618,5.362c0.175,0.413,0.331,0.832,0.476,1.256H37.281V15.944
	C37.706,16.087,38.125,16.244,38.537,16.419z"/>
</svg>
