<?xml version="1.0" encoding="utf-8"?>
<!-- Generator: Adobe Illustrator 15.0.0, SVG Export Plug-In . SVG Version: 6.00 Build 0)  -->
<!DOCTYPE svg PUBLIC "-//W3C//DTD SVG 1.1//EN" "http://www.w3.org/Graphics/SVG/1.1/DTD/svg11.dtd">
<svg version="1.1" id="图层_1" xmlns="http://www.w3.org/2000/svg" xmlns:xlink="http://www.w3.org/1999/xlink" x="0px" y="0px"
	 width="56.339px" height="54.122px" viewBox="3.806 3.904 56.339 54.122" enable-background="new 3.806 3.904 56.339 54.122"
	 xml:space="preserve">
<path d="M41.95,56.85H39.6V40.419c0-1.813-2.037-3.594-4.105-3.594h-7.038c-2.075,0-4.106,1.781-4.106,3.594V56.85H22V40.419
	c0-3.4,3.406-5.944,6.456-5.944H35.5c3.05,0,6.456,2.544,6.456,5.944V56.85H41.95z"/>
<path d="M50.381,58.025H13.569c-2.856,0-5.175-2.632-5.175-5.869V22.813h2.35v29.344c0,1.906,1.294,3.519,2.825,3.519h36.812
	c1.531,0,2.825-1.612,2.825-3.519V22.813h2.351v29.344C55.557,55.388,53.231,58.025,50.381,58.025z"/>
<path d="M58.969,27.894c-0.263,0-0.525-0.087-0.744-0.269L33.575,7.288c-1.6-1.3-1.6-1.3-3.207,0.006L5.725,27.625
	c-0.5,0.413-1.238,0.337-1.65-0.156c-0.413-0.5-0.344-1.237,0.156-1.65l24.65-20.344c2.575-2.094,3.612-2.094,6.181-0.006
	l24.656,20.344c0.5,0.413,0.568,1.15,0.156,1.65C59.644,27.75,59.307,27.894,58.969,27.894z"/>
</svg>
